<svg width="48" height="48" viewBox="0 0 48 48" fill="none" xmlns="http://www.w3.org/2000/svg">
<path d="M23.9832 25.3726C25.4014 25.3726 26.8058 25.0933 28.1161 24.5506C29.4264 24.0079 30.6169 23.2124 31.6198 22.2097C32.6226 21.2069 33.4181 20.0164 33.9608 18.7063C34.5036 17.3961 34.7829 15.9918 34.7829 14.5737C34.7829 13.1556 34.5036 11.7513 33.9608 10.4411C33.4181 9.13096 32.6226 7.9405 31.6198 6.93773C30.6169 5.93496 29.4264 5.13952 28.1161 4.59683C26.8058 4.05413 25.4014 3.77481 23.9832 3.77481C21.1189 3.77481 18.372 4.91255 16.3466 6.93773C14.3213 8.96292 13.1835 11.7097 13.1835 14.5737C13.1835 17.4377 14.3213 20.1845 16.3466 22.2097C18.372 24.2348 21.1189 25.3726 23.9832 25.3726ZM24 7.64435e-07C27.1612 -0.0010289 30.2349 1.03815 32.7469 2.95721C35.2588 4.87627 37.0694 7.56854 37.8993 10.6186C38.7291 13.6687 38.5322 16.9072 37.3388 19.8342C36.1454 22.7613 34.0218 25.2143 31.2958 26.8148C40.1468 29.4786 46.7946 36.937 47.9874 46.2C48.1002 47.0807 47.445 47.8799 46.5234 47.9879C45.6042 48.0958 44.7643 47.4719 44.6515 46.5912C43.3555 36.5362 34.6461 28.965 24.084 28.965C13.4643 28.965 4.64211 36.5506 3.34854 46.5912C3.23575 47.4719 2.39577 48.0958 1.47659 47.9879C0.555017 47.8799 -0.100166 47.0807 0.0126315 46.2C1.203 36.9754 7.88682 29.5266 16.7522 26.8388C14.0179 25.2456 11.8847 22.796 10.6824 19.8688C9.48003 16.9417 9.27556 13.7 10.1006 10.6449C10.9256 7.58993 12.7341 4.89176 15.2465 2.96761C17.7589 1.04346 20.8353 0.000502177 24 7.64435e-07Z" fill="black"/>
</svg>
