<svg width="467" height="355" viewBox="0 0 467 355" fill="none" xmlns="http://www.w3.org/2000/svg">
<path d="M383.99 234.3C377.79 224.5 367.69 214.8 353.89 205.3C359.737 202.305 365.383 198.931 370.79 195.2C352.09 204.4 325.79 216.7 294.39 229.6C296.914 230.252 299.388 231.088 301.79 232.1C305.121 233.449 308.277 235.195 311.19 237.3C313.626 239.138 315.84 241.252 317.79 243.6C324.443 250.914 327.952 260.551 327.559 270.43C327.166 280.309 322.903 289.638 315.69 296.4H389.89C392.145 288.736 393.29 280.789 393.29 272.8C393.29 256.9 390.29 244.1 383.99 234.3Z" fill="white"/>
<path d="M419.69 173.2C419.549 173.215 419.407 173.18 419.29 173.1C419.39 173 419.39 172.8 419.49 172.7C419.813 172.498 420.115 172.264 420.39 172C419.39 171.5 418.49 171.1 417.59 170.7C416.521 170.307 415.512 169.768 414.59 169.1C414.263 168.792 413.962 168.458 413.69 168.1C412.89 167.1 412.09 166.1 411.29 165C411.524 164.931 411.77 164.913 412.012 164.948C412.253 164.982 412.485 165.068 412.69 165.2L415.09 167C415.784 167.564 416.61 167.942 417.49 168.1C422.69 169.6 427.89 171.2 433.09 172.7C433.347 172.8 433.633 172.8 433.89 172.7C439.49 170.9 445.09 169.1 450.79 167.3C452.69 166.7 454.59 166.1 456.59 165.6C457.724 165.271 458.914 165.181 460.085 165.335C461.255 165.49 462.381 165.887 463.39 166.5C463.694 166.671 464.044 166.741 464.39 166.7C464.79 166.8 465.19 166.8 465.49 166.9C465.689 166.958 465.872 167.061 466.026 167.201C466.179 167.34 466.299 167.513 466.376 167.706C466.453 167.898 466.485 168.106 466.47 168.313C466.455 168.52 466.394 168.72 466.29 168.9C466.074 169.301 465.766 169.644 465.39 169.9C462.673 171.925 459.579 173.387 456.29 174.2C453.79 174.9 451.39 175.7 448.89 176.5L448.29 176.8C447.467 177.343 446.597 177.812 445.69 178.2C445.434 178.27 445.213 178.43 445.066 178.651C444.919 178.871 444.856 179.137 444.89 179.4C445.29 179.3 445.69 179.1 446.09 179L449.69 177.8C450.118 177.717 450.554 177.683 450.99 177.7C451.223 177.745 451.439 177.852 451.615 178.011C451.792 178.169 451.921 178.373 451.99 178.6C452.19 179.5 452.39 180.5 452.59 181.4C452.618 181.499 452.625 181.603 452.609 181.704C452.593 181.806 452.555 181.903 452.498 181.989C452.441 182.074 452.366 182.146 452.278 182.2C452.19 182.254 452.092 182.288 451.99 182.3C450.39 182.9 448.79 183.6 447.09 184.2C446.369 184.366 445.629 184.433 444.89 184.4C444.59 184.4 444.59 184.2 444.79 184L445.09 183.7C444.59 183.7 444.19 183.6 443.59 183.6C443.39 184.2 443.09 184.9 442.89 185.6C442.69 186.7 441.99 188.6 440.99 188.8C440.39 188.9 439.89 188.4 439.39 187.8C439.09 187.3 438.89 186.8 438.59 186.4C438.09 186.5 437.79 186.6 437.39 186.7C437.29 186.7 437.09 186.6 436.99 186.6C437.09 186.4 437.09 186.3 437.19 186.2C437.29 186.1 437.69 185.8 437.99 185.5C437.69 185.2 437.49 184.8 437.19 184.7C436.89 184.6 436.49 184.6 436.09 184.6C436.354 184.325 436.588 184.023 436.79 183.7C437.104 183.742 437.423 183.671 437.69 183.5C437.751 183.197 437.716 182.882 437.59 182.6C436.865 182.803 436.131 182.97 435.39 183.1C435.29 183.1 435.09 183.2 434.99 183.1C434.89 183 434.79 183 434.59 182.9C434.69 182.8 434.69 182.7 434.79 182.6C434.89 182.5 435.29 182.2 435.49 182L434.59 182.3C432.796 182.946 430.896 183.252 428.99 183.2C428.062 183.245 427.149 183.448 426.29 183.8C425.09 184.2 423.89 184.7 422.69 185.1C421.411 185.462 420.108 185.73 418.79 185.9C414.59 186.5 410.39 187 406.09 187.5C405.952 187.514 405.818 187.557 405.698 187.626C405.577 187.695 405.472 187.788 405.39 187.9C404.99 188.6 404.59 189.2 404.19 189.9C403.99 190.3 403.79 190.4 403.29 190.5C401.99 190.7 401.99 190.7 401.49 189.5C401.29 189 401.09 188.6 400.89 188.1C400.855 187.972 400.775 187.861 400.665 187.788C400.554 187.714 400.421 187.683 400.29 187.7C399.09 187.7 397.89 187.7 396.79 187.8C396.607 187.81 396.427 187.755 396.281 187.645C396.135 187.535 396.032 187.378 395.99 187.2C395.949 187.121 395.924 187.036 395.917 186.947C395.91 186.859 395.921 186.77 395.949 186.686C395.977 186.602 396.022 186.525 396.08 186.459C396.139 186.392 396.21 186.338 396.29 186.3C396.89 185.9 397.59 185.5 398.29 185.1C396.79 184.2 395.29 183.4 393.69 182.5C394.59 182.2 395.39 181.9 396.19 181.6C396.39 181.5 396.69 181.7 396.99 181.7C397.59 181.8 398.19 182 398.89 182.1C397.29 179.2 395.79 176.4 394.19 173.5C395.39 173.2 396.59 172.8 397.89 172.5C398.062 172.493 398.234 172.528 398.39 172.6C401.89 174.9 405.49 177.2 408.99 179.5C409.358 179.732 409.769 179.887 410.199 179.956C410.629 180.025 411.068 180.006 411.49 179.9C416.49 178.3 421.49 176.6 426.39 174.9L426.49 174.8C426.383 174.673 426.236 174.584 426.074 174.548C425.911 174.512 425.741 174.53 425.59 174.6C425.206 174.778 424.804 174.912 424.39 175C424.185 174.992 423.981 175.026 423.79 175.1C423.89 174.5 424.49 174.4 424.79 173.9L421.49 172.4" fill="white"/>
<path d="M346.19 20.6L322.89 0L391.79 8.8L438.69 59.2L409.29 53.4L401.89 68.1C394.2 57.7045 384.16 49.2751 372.59 43.5C358.29 36.5 346.39 34 338.89 33.4C341.89 27.9 343.49 25.3 346.19 20.6Z" fill="white"/>
<path d="M438.19 68.3L440.49 68.8C443.29 69.5 443.69 70.3 442.69 74.3C440.79 81.6 439.99 77.2001 439.99 96.1001L434.49 95.2C433.89 95.1 437.79 77.5 432.79 94.7C432.59 95.3 428.49 94.2001 428.89 93.6001C435.59 80.8001 434.89 78.7 435.89 71.5C435.871 70.7887 436.086 70.091 436.501 69.5132C436.917 68.9354 437.51 68.5093 438.19 68.3Z" fill="white"/>
<path d="M438.59 65.0999C438.909 62.9477 439.076 60.7757 439.09 58.5999C439.09 56.7999 439.29 52.3999 438.79 50.6999C437.99 48.2999 433.19 46.4999 431.39 45.9999C429.19 45.3999 422.99 43.4999 420.89 43.9999C420.591 44.062 420.28 44.0068 420.021 43.8459C419.761 43.6849 419.574 43.4305 419.497 43.1352C419.42 42.8398 419.459 42.5262 419.607 42.2591C419.754 41.9919 419.999 41.7918 420.29 41.6999C422.79 41.0999 428.89 42.9999 431.69 43.8999C438.39 45.9999 440.29 47.9999 441.09 50.7999C441.69 52.8999 441.29 55.4999 441.29 57.5999C441.359 60.3061 441.225 63.0137 440.89 65.6999C440.79 66.2999 439.99 66.5999 439.39 66.4999C439.11 66.402 438.876 66.2065 438.729 65.9493C438.582 65.6921 438.532 65.3905 438.59 65.0999Z" fill="white"/>
<path d="M436.59 66.1C436.506 66.9867 436.773 67.8712 437.334 68.5631C437.895 69.255 438.705 69.6992 439.59 69.8C440.451 69.9627 441.341 69.7816 442.07 69.2956C442.799 68.8096 443.309 68.0573 443.49 67.2C443.574 66.3132 443.307 65.4287 442.746 64.7368C442.185 64.0449 441.375 63.6007 440.49 63.4999C439.629 63.3372 438.739 63.5183 438.01 64.0043C437.28 64.4903 436.771 65.2426 436.59 66.1Z" fill="white"/>
<path d="M436.59 66.1C436.79 66.2 436.89 64.8 438.49 64.1C438.957 63.9126 439.461 63.8333 439.963 63.868C440.465 63.9026 440.953 64.0503 441.39 64.3C441.896 64.5659 442.315 64.9707 442.598 65.4667C442.882 65.9627 443.018 66.5294 442.99 67.1C442.897 67.6663 442.622 68.187 442.207 68.5837C441.792 68.9805 441.26 69.2318 440.69 69.3C440.2 69.3828 439.699 69.3633 439.217 69.2429C438.735 69.1224 438.283 68.9035 437.89 68.6C436.49 67.4 436.79 66.1 436.59 66.1C436.39 66.1 436.39 66.4 436.39 66.9C436.426 67.7351 436.785 68.5237 437.39 69.1C437.828 69.5718 438.38 69.9214 438.994 70.1143C439.608 70.3072 440.261 70.3368 440.89 70.2C441.662 70.1018 442.38 69.7565 442.939 69.2157C443.498 68.675 443.867 67.9678 443.99 67.2C444.087 66.4259 443.935 65.6412 443.558 64.9585C443.181 64.2757 442.597 63.7301 441.89 63.4C441.329 63.1268 440.714 62.9849 440.09 62.9849C439.466 62.9849 438.851 63.1268 438.29 63.4C437.924 63.5728 437.6 63.8233 437.341 64.1342C437.082 64.4451 436.894 64.8089 436.79 65.2C436.617 65.4658 436.546 65.7857 436.59 66.1Z" fill="white"/>
<path d="M440.59 90.6999C440.89 90.7999 442.29 85.3999 442.39 79.4999C442.542 77.2358 442.542 74.9641 442.39 72.7C442.367 72.1222 442.221 71.5559 441.963 71.0387C441.704 70.5215 441.338 70.0651 440.89 69.7C441.043 70.7275 441.143 71.7622 441.19 72.7999C441.456 74.8894 441.59 76.9936 441.59 79.1C441.29 84.8 440.29 90.5999 440.59 90.6999Z" fill="white"/>
<path d="M437.29 85.1001C437.59 85.2001 438.59 81.8001 439.19 77.5001C439.79 73.2001 439.69 69.6001 439.39 69.6001C439.09 69.6001 438.69 73.1001 438.09 77.3001C437.69 81.6001 437.09 85.1001 437.29 85.1001Z" fill="white"/>
<path d="M437.29 73.5999C437.59 73.6999 437.99 72.7999 438.29 71.5999C438.59 70.3999 438.59 69.4999 438.29 69.3999C437.99 69.2999 437.59 70.1999 437.29 71.3999C436.99 72.5999 436.99 73.5999 437.29 73.5999Z" fill="white"/>
<path d="M117.59 285.8L108.19 296.3H189.79L227.19 255C191.332 267.533 154.728 277.82 117.59 285.8Z" fill="white"/>
<path d="M128.49 39.6001H21.89L12.29 97.1001H52.19L21.59 281.1C44.1778 280.928 66.7159 278.955 88.99 275.2L128.49 39.6001Z" fill="white"/>
<path d="M85.4901 296.3L86.2901 291.7C72.0781 293.965 57.7593 295.501 43.3901 296.3H85.4901Z" fill="white"/>
<path d="M264.79 65.1001C245.69 48.1001 221.723 39.6001 192.89 39.6001C171.81 39.5096 151.188 45.745 133.69 57.5001L117.09 155.7H136.39C140.99 114.3 157.457 93.6001 185.79 93.6001C197.29 93.6001 207.29 97.8001 215.69 106.2C224.09 114.6 228.29 124.5 228.29 136C228.29 147.5 223.79 160.1 214.69 173.3C205.59 186.5 190.29 205.2 168.39 229.4L135.89 265.6C173.09 256.7 210.59 245.9 245.19 235C277.39 197.9 293.523 162.5 293.59 128.8C293.59 103.4 283.99 82.1001 264.79 65.1001Z" fill="white"/>
<path d="M251.69 296.3C244.69 290.6 239.09 282.4 234.79 271.8H222.49L200.29 296.3H251.69Z" fill="white"/>
<path d="M386.09 62.4001C369.09 47.2001 347.123 39.6001 320.19 39.6001C300.09 39.6001 281.923 44.2001 265.69 53.4001C280.09 64.3001 294.59 84.0001 296.99 98.9001C301.399 97.3835 306.028 96.6063 310.69 96.6001C320.69 96.6001 328.99 100 335.59 106.9C342.19 113.8 345.49 122.3 345.49 132.5C345.49 146.1 339.89 157.2 328.59 165.8C319.69 172.6 307.79 177 292.69 179.3L286.39 221.5C326.79 207.9 360.39 195.3 380.79 187.5C401.457 169.8 411.79 147.833 411.79 121.6C411.59 97.4001 403.09 77.7001 386.09 62.4001Z" fill="white"/>
<path d="M16.79 341.53L11.1 354.13H0L23.62 305.6H36.94L42.63 354.13H31.69L30.75 341.53H16.79ZM30.33 333.61L29.33 323.17C29.19 320.51 28.9 316.62 28.68 313.67H28.54C27.31 316.62 25.95 320.36 24.65 323.17L19.79 333.61H30.33Z" fill="white"/>
<path d="M56.96 306.3C61.408 305.559 65.9108 305.198 70.42 305.22C77.98 305.22 83.96 306.95 88.06 310.48C92.06 313.72 94.47 318.48 94.47 325.67C94.47 335.1 90.47 343.17 84.53 347.99C78.92 352.53 71.79 354.47 61.28 354.47C56.8226 354.505 52.3692 354.194 47.96 353.54L56.96 306.3ZM59.96 345.83C61.4676 345.993 62.9836 346.067 64.5 346.05C70.11 346.05 75.08 344.11 78.25 340.43C81.42 336.75 83.25 331.58 83.25 325.74C83.25 318.04 79 313.5 70.43 313.5C68.9587 313.484 67.489 313.605 66.04 313.86L59.96 345.83Z" fill="white"/>
<path d="M137.46 354.13L140.46 334.13C141.25 328.87 142.33 322.13 143.7 315.19H143.48C140.82 321.45 137.79 328.19 135.13 333.48L125.14 353.3H117.08L115.35 333.64C114.92 328.32 114.56 321.64 114.27 315.14H114.13C112.76 321.55 111.32 328.82 110.13 334.08L105.31 354.08H95.79L107.96 305.55H121.79L123.3 323.99C123.59 328.52 124.09 334.07 124.17 339.47H124.45C126.364 334.199 128.554 329.032 131.01 323.99L140.01 305.55H154.01L147.46 354.08L137.46 354.13Z" fill="white"/>
<path d="M175.4 305.6L166.18 354.13H155.79L165.01 305.6H175.4Z" fill="white"/>
<path d="M177.84 342.9C181.316 344.925 185.267 345.994 189.29 346C193.29 346 197 344.13 197 340.38C197 337.57 194.91 335.84 190.44 333.47C185.33 330.73 180.44 326.92 180.44 320.65C180.44 310.79 188.93 304.88 199.52 304.88C205.42 304.88 208.88 306.18 210.97 307.26L207.73 315.9C204.943 314.486 201.855 313.769 198.73 313.81C193.84 313.81 191.32 316.19 191.32 318.81C191.32 321.43 194.32 323.42 198.37 325.72C204.28 328.72 208.02 332.72 208.02 338.54C208.02 349.34 199.09 354.89 188.29 354.89C181.53 354.81 176.7 353.09 174.4 351.43L177.84 342.9Z" fill="white"/>
<path d="M214.56 342.9C218.036 344.925 221.987 345.994 226.01 346C230.01 346 233.72 344.13 233.72 340.38C233.72 337.57 231.63 335.84 227.16 333.47C222.05 330.73 217.16 326.92 217.16 320.65C217.16 310.79 225.65 304.88 236.24 304.88C242.14 304.88 245.6 306.18 247.69 307.26L244.45 315.9C241.663 314.486 238.575 313.769 235.45 313.81C230.56 313.81 228.04 316.19 228.04 318.81C228.04 321.43 230.99 323.42 235.09 325.72C241 328.72 244.74 332.72 244.74 338.54C244.74 349.34 235.81 354.89 225.01 354.89C218.25 354.81 213.42 353.09 211.12 351.43L214.56 342.9Z" fill="white"/>
<path d="M268.56 305.6L259.35 354.13H248.98L258.2 305.6H268.56Z" fill="white"/>
<path d="M317.24 325.04C317.24 333.9 314.14 342.54 308.6 347.94C303.784 352.553 297.337 355.07 290.67 354.94C278.07 354.94 271.01 346.01 271.01 334.7C271.01 325.92 274.25 317.2 279.94 311.7C284.727 307.192 291.075 304.715 297.65 304.79C310.47 304.81 317.24 313.45 317.24 325.04ZM288.08 317.12C284.19 320.94 282.03 328.5 282.03 334.33C282.03 341.17 285.12 346.33 292.18 346.33C293.704 346.313 295.208 345.992 296.606 345.386C298.004 344.78 299.267 343.901 300.32 342.8C304.13 338.98 306.22 330.99 306.22 325.37C306.22 319.37 304.06 313.49 296.43 313.49C294.865 313.495 293.317 313.82 291.881 314.444C290.445 315.068 289.152 315.979 288.08 317.12Z" fill="white"/>
<path d="M319.68 354.13L328.9 305.6H341.07L347.47 324.11C349.42 330.3 350.71 335.34 351.87 340.67H352.08C352.427 334.816 353.176 328.992 354.32 323.24L357.63 305.6H367.35L358.13 354.13H347.4L340.63 334.76C338.732 329.213 337.146 323.564 335.88 317.84H335.67C335.16 322.59 334.01 329.51 332.57 337.14L329.33 354.14L319.68 354.13Z" fill="white"/>
<path d="M369.72 342.9C373.196 344.926 377.147 345.996 381.17 346C385.17 346 388.87 344.13 388.87 340.38C388.87 337.57 386.79 335.84 382.32 333.47C377.21 330.73 372.32 326.92 372.32 320.65C372.32 310.79 380.82 304.88 391.4 304.88C397.31 304.88 400.76 306.18 402.85 307.26L399.61 315.9C396.824 314.484 393.735 313.767 390.61 313.81C385.72 313.81 383.19 316.19 383.19 318.81C383.19 321.43 386.19 323.42 390.25 325.72C396.16 328.72 399.9 332.72 399.9 338.54C399.9 349.34 390.97 354.89 380.17 354.89C373.4 354.81 368.58 353.09 366.27 351.43L369.72 342.9Z" fill="white"/>
</svg>
