<?xml version="1.0" encoding="utf-8"?>
<!-- Generator: Adobe Illustrator 26.0.1, SVG Export Plug-In . SVG Version: 6.00 Build 0)  -->
<svg version="1.1" id="Layer_1" xmlns="http://www.w3.org/2000/svg" xmlns:xlink="http://www.w3.org/1999/xlink" x="0px" y="0px"
	 viewBox="0 0 586.5 463.4" style="enable-background:new 0 0 586.5 463.4;" xml:space="preserve">
<style type="text/css">
	.st0{fill:#FFFFFF;}
	.st1{fill:#949399;stroke:#232C4B;stroke-width:3;stroke-miterlimit:10;}
	.st2{fill:#232C4B;stroke:#939598;stroke-width:2;stroke-miterlimit:10;}
	.st3{fill:#232C4B;}
	.st4{fill:#232C4B;stroke:#939598;stroke-width:3;stroke-miterlimit:10;}
	.st5{fill:#4B144B;}
	.st6{fill:#44B59C;}
</style>
<g>
	<path class="st5" d="M455.1,286.7c-6.2-9.8-16.3-19.5-30.1-29c6.1-3.2,11.8-6.5,16.9-10.1c-18.7,9.2-45,21.5-76.4,34.4
		c2.6,0.7,5.1,1.5,7.4,2.5c3.5,1.4,6.6,3.2,9.4,5.2c2.5,1.9,4.7,4,6.6,6.3c6.1,7,9.8,15.8,9.8,25.3c0,10.6-4.5,20.2-11.9,27.5
		l74.2,0c2.2-7.5,3.4-15.4,3.4-23.6C464.5,309.3,461.4,296.5,455.1,286.7z"/>
	<path class="st6" d="M490.8,225.6c-0.1,0-0.3,0-0.4-0.1c0.1-0.1,0.1-0.3,0.2-0.4c0.3-0.2,0.6-0.4,0.9-0.7c-1-0.5-1.9-0.9-2.8-1.3
		c-1-0.5-2.1-0.8-3-1.6c-0.3-0.3-0.7-0.7-0.9-1c-0.8-1-1.6-2-2.4-3.1c0.5-0.1,1-0.1,1.4,0.2c0.8,0.6,1.6,1.2,2.4,1.8
		c0.7,0.6,1.5,0.9,2.4,1.1c5.2,1.5,10.4,3.1,15.6,4.6c0.3,0.1,0.6,0.1,0.8,0c5.6-1.8,11.2-3.6,16.9-5.4c1.9-0.6,3.8-1.2,5.8-1.7
		c2.4-0.6,4.7-0.4,6.8,0.9c0.3,0.2,0.6,0.2,1,0.2c0.4,0.1,0.8,0.1,1.1,0.2c0.9,0.3,1.2,1.2,0.8,2c-0.2,0.4-0.5,0.7-0.9,1
		c-2.7,2.1-5.8,3.4-9.1,4.3c-2.5,0.7-4.9,1.5-7.4,2.3c-0.2,0.1-0.4,0.2-0.6,0.3c-0.9,0.5-1.7,1.1-2.6,1.4c-0.6,0.2-0.8,0.6-0.8,1.2
		c0.4-0.1,0.8-0.3,1.2-0.4c1.2-0.4,2.4-0.8,3.6-1.2c0.4-0.1,0.9-0.1,1.3-0.1c0.5,0.1,0.8,0.4,1,0.9c0.2,0.9,0.4,1.9,0.6,2.8
		c0.1,0.4-0.1,0.8-0.6,0.9c-1.6,0.6-3.2,1.3-4.9,1.9c-0.7,0.2-1.5,0.2-2.2,0.2c-0.3,0-0.3-0.2-0.1-0.4c0.1-0.1,0.2-0.2,0.3-0.3
		c-0.5,0-0.9-0.1-1.5-0.1c-0.2,0.6-0.5,1.3-0.7,2c-0.2,1.1-0.9,3-1.9,3.2c-0.6,0.1-1.1-0.4-1.6-1c-0.3-0.5-0.5-1-0.8-1.4
		c-0.5,0.1-0.8,0.2-1.2,0.3c-0.1,0-0.3-0.1-0.4-0.1c0.1-0.2,0.1-0.3,0.2-0.4c0.2-0.2,0.5-0.4,0.8-0.7c-0.3-0.3-0.5-0.7-0.8-0.8
		c-0.3-0.2-0.7-0.1-1.1-0.1c0.3-0.3,0.5-0.6,0.7-0.9c0.3,0,0.7,0,0.9-0.2c0.1-0.2,0-0.6-0.1-0.9c-0.8,0.2-1.5,0.4-2.2,0.5
		c-0.1,0-0.3,0.1-0.4,0c-0.1,0-0.2-0.1-0.4-0.2c0.1-0.1,0.1-0.2,0.2-0.3c0.2-0.2,0.5-0.4,0.7-0.6c-0.3,0.1-0.6,0.2-0.9,0.3
		c-1.8,0.7-3.7,0.9-5.6,0.9c-1,0-1.8,0.3-2.7,0.6c-1.2,0.4-2.4,0.9-3.6,1.3c-1.3,0.4-2.6,0.6-3.9,0.8c-4.2,0.6-8.4,1.1-12.7,1.6
		c-0.3,0-0.5,0.2-0.7,0.4c-0.4,0.7-0.8,1.3-1.2,2c-0.2,0.4-0.4,0.5-0.9,0.6c-1.3,0.2-1.3,0.2-1.8-1c-0.2-0.5-0.4-0.9-0.6-1.4
		c-0.1-0.3-0.3-0.4-0.6-0.4c-1.2,0-2.4,0-3.5,0.1c-0.5,0-0.7-0.3-0.8-0.6c-0.2-0.4,0-0.7,0.3-0.9c0.6-0.4,1.3-0.8,2-1.2
		c-1.5-0.9-3-1.7-4.6-2.6c0.9-0.3,1.7-0.6,2.5-0.9c0.2-0.1,0.5,0.1,0.8,0.1c0.6,0.1,1.2,0.3,1.9,0.4c-1.6-2.9-3.1-5.7-4.7-8.6
		c1.2-0.3,2.4-0.7,3.7-1c0.1,0,0.3,0,0.5,0.1c3.5,2.3,7.1,4.6,10.6,6.9c0.8,0.5,1.7,0.6,2.5,0.4c5-1.6,10-3.3,14.9-5
		c0,0,0,0,0.1-0.1c-0.3-0.3-0.5-0.3-0.9-0.2c-0.4,0.2-0.8,0.3-1.2,0.4c-0.2,0-0.3,0-0.6,0.1c0.1-0.6,0.7-0.7,1-1.2
		c-1.1-0.5-2.2-1-3.3-1.5"/>
	<path class="st6" d="M417.3,73L394,52.4l68.9,8.8l46.9,50.4l-29.4-5.8l-7.4,14.7c-4.3-5.8-13.7-16.9-29.3-24.6
		c-14.3-7-26.2-9.5-33.7-10.1C413,80.3,414.6,77.7,417.3,73z"/>
	<g>
		<g>
			<path class="st6" d="M509.3,120.7l2.3,0.5c2.8,0.7,3.2,1.5,2.2,5.5c-1.9,7.3-2.7,2.9-2.7,21.8c-2.4-0.4-3.1-0.5-5.5-0.9
				c-0.6-0.1,3.3-17.7-1.7-0.5c-0.2,0.6-4.3-0.5-3.9-1.1c6.7-12.8,6-14.9,7-22.1C507.1,122.6,507.6,121.2,509.3,120.7z"/>
			<g>
				<path class="st6" d="M509.7,117.5c0.3-2.1,0.5-4.3,0.5-6.5c0-1.8,0.2-6.2-0.3-7.9c-0.8-2.4-5.6-4.2-7.4-4.7
					c-2.2-0.6-8.4-2.5-10.5-2c-1.5,0.4-2.1-1.9-0.6-2.3c2.5-0.6,8.6,1.3,11.4,2.2c6.7,2.1,8.6,4.1,9.4,6.9c0.6,2.1,0.2,4.7,0.2,6.8
					c0,2.6,0,5.6-0.4,8.1c-0.1,0.6-0.9,0.9-1.5,0.8C509.9,118.7,509.6,118.1,509.7,117.5L509.7,117.5z"/>
			</g>
			<g>
				<path class="st6" d="M507.7,118.5c-0.3,1.7,1.1,3.4,3,3.7c1.9,0.3,3.6-0.9,3.9-2.6s-1.1-3.4-3-3.7
					C509.7,115.6,508,116.8,507.7,118.5z"/>
				<g>
					<path class="st6" d="M507.7,118.5c0.2,0.1,0.3-1.3,1.9-2c0.8-0.3,1.9-0.4,2.9,0.2c1,0.5,1.7,1.7,1.6,2.8
						c-0.2,1.2-1.2,2.1-2.3,2.2c-1.1,0.2-2.2-0.2-2.8-0.7C507.6,119.8,507.9,118.5,507.7,118.5c-0.1,0-0.2,0.3-0.2,0.8
						c0,0.5,0.2,1.4,1,2.2c0.7,0.8,2,1.4,3.5,1.1c1.4-0.2,2.9-1.3,3.1-3c0.3-1.6-0.8-3.2-2.1-3.8c-1.3-0.6-2.7-0.5-3.6,0
						c-0.9,0.5-1.4,1.2-1.5,1.8C507.6,118.2,507.7,118.5,507.7,118.5z"/>
				</g>
			</g>
			<g>
				<path class="st6" d="M511.7,143.1c0.3,0.1,1.7-5.3,1.8-11.2c0.1-2.9,0.2-4.9,0-6.8c-0.2-1.9-1.4-3.1-1.5-3
					c-0.1,0.1,0.3,1.1,0.3,3.1c0.1,1.9,0.5,3.4,0.4,6.3C512.5,137.2,511.5,143,511.7,143.1z"/>
			</g>
			<g>
				<path class="st6" d="M508.5,137.5c0.3,0.1,1.3-3.3,1.9-7.6c0.6-4.3,0.5-7.9,0.2-7.9c-0.3,0-0.7,3.5-1.3,7.7
					C508.8,134,508.2,137.5,508.5,137.5z"/>
			</g>
			<g>
				<path class="st6" d="M508.4,126c0.3,0.1,0.7-0.8,1-2c0.3-1.1,0.3-2.1,0-2.2c-0.3-0.1-0.7,0.8-1,2C508.1,125,508.1,126,508.4,126
					z"/>
			</g>
		</g>
	</g>
	<path class="st6" d="M188.7,338.2l-9.4,10.5l81.6,0l37.4-41.3C263.9,319.3,226.7,330.2,188.7,338.2z"/>
	<g>
		<g>
			<path class="st6" d="M87.4,359.6H95l13.4,52.7H98.2l-2.7-10.6H76l-5.7,10.6H59.1L87.4,359.6z M89.3,376.9l-8.3,15.5h12.2
				L89.3,376.9z"/>
			<path class="st6" d="M121.1,359.6h13.6c3.5,0,7.2,0.8,11.1,2.3c4,1.5,7.1,4.2,9.6,8c2.4,3.8,3.7,8.3,3.7,13.4
				c0,4.6-0.8,8.9-2.6,12.8c-1.7,3.9-4.1,7.1-7.1,9.7c-3,2.5-5.9,4.3-8.9,5.1c-2.9,0.9-6.3,1.4-10.3,1.4h-16.9L121.1,359.6z
				 M130.5,370.3l-4.5,31.1h4c6.4,0,11-1.7,13.7-5.1c2.7-3.5,4.1-7.8,4.1-13.2c0-3.9-1.2-7.1-3.7-9.4c-2.4-2.3-5.8-3.5-10.1-3.5
				H130.5z"/>
			<path class="st6" d="M175.7,359.6h10l5.4,29.6l14.9-29.6h10.1v52.7h-9.8v-31.5l-16.1,31.5h-5.1l-5.9-32.8l-11.1,32.8h-10.4
				L175.7,359.6z"/>
			<path class="st6" d="M228.3,359.6h10.8l-7.8,52.7h-10.9L228.3,359.6z"/>
			<path class="st6" d="M274.3,365.1l-5.9,7.7c-2-1.4-3.7-2.5-5-3.2c-1.3-0.7-2.6-1.1-3.9-1.1c-2,0-3.7,0.6-4.9,1.8
				c-1.3,1.2-1.9,2.6-1.9,4.4c0,1.6,0.7,3,2.1,4.1c1.4,1.2,3.7,2.5,7.1,3.9c2.7,1.7,4.5,3,5.5,3.9c1,0.9,1.9,2.2,2.8,4
				c0.9,1.8,1.3,3.7,1.3,5.8c0,4.6-1.7,8.4-5.1,11.6c-3.5,3.2-7.5,4.8-12.4,4.8c-5.8,0-11.4-2.2-16.8-6.8l6.2-7.6c1.4,1,3,2,4.8,3.2
				s3.6,1.7,5.3,1.7c1.9,0,3.6-0.6,4.9-1.9c1.4-1.3,2-2.8,2-4.6c0-1.6-0.7-3.1-2-4.3c-1.3-1.2-3.4-2.4-6.1-3.5
				c-2.7-1.1-4.6-2.1-5.7-3c-1.2-0.8-2.3-2.2-3.5-4.1c-1.1-1.9-1.7-4.2-1.7-6.9c0-4.7,1.7-8.6,5.1-11.6c3.4-3.1,7.7-4.6,12.9-4.6
				C264.8,358.8,269.7,361,274.3,365.1z"/>
			<path class="st6" d="M309.4,365.1l-5.9,7.7c-2-1.4-3.7-2.5-5-3.2c-1.3-0.7-2.6-1.1-3.9-1.1c-2,0-3.7,0.6-4.9,1.8
				c-1.3,1.2-1.9,2.6-1.9,4.4c0,1.6,0.7,3,2.1,4.1c1.4,1.2,3.7,2.5,7.1,3.9c2.7,1.7,4.5,3,5.5,3.9c1,0.9,1.9,2.2,2.8,4
				c0.9,1.8,1.3,3.7,1.3,5.8c0,4.6-1.7,8.4-5.1,11.6c-3.5,3.2-7.5,4.8-12.4,4.8c-5.8,0-11.4-2.2-16.8-6.8l6.2-7.6c1.4,1,3,2,4.8,3.2
				s3.6,1.7,5.3,1.7c1.9,0,3.6-0.6,4.9-1.9c1.4-1.3,2-2.8,2-4.6c0-1.6-0.7-3.1-2-4.3c-1.3-1.2-3.4-2.4-6.1-3.5
				c-2.7-1.1-4.6-2.1-5.7-3c-1.2-0.8-2.3-2.2-3.5-4.1c-1.1-1.9-1.7-4.2-1.7-6.9c0-4.7,1.7-8.6,5.1-11.6c3.4-3.1,7.7-4.6,12.9-4.6
				C299.8,358.8,304.8,361,309.4,365.1z"/>
			<path class="st6" d="M315.5,359.6h10.8l-7.8,52.7h-10.9L315.5,359.6z"/>
			<path class="st6" d="M358.3,358.7c8,0,14.2,2.3,18.6,6.9c4.3,4.6,6.5,11,6.5,19.1c0,8.4-2.7,15.3-8.1,20.5S362.7,413,354,413
				c-7.7,0-13.8-2.4-18.3-7c-4.4-4.7-6.7-11-6.7-19c0-8.1,2.7-14.9,8.2-20.2C342.7,361.4,349.7,358.7,358.3,358.7z M372.5,384.9
				c0-5-1.4-9-4.2-12.1c-2.8-3.1-6.5-4.6-11-4.6c-4.7,0-8.8,1.8-12.2,5.5c-3.4,3.7-5.1,8.1-5.1,13.1c0,4.9,1.4,8.9,4.3,12
				c2.8,3.1,6.4,4.7,10.8,4.7c4.8,0,8.9-1.8,12.3-5.5C370.8,394.4,372.5,390,372.5,384.9z"/>
			<path class="st6" d="M395.2,359.6h11.2l16.9,35.3l5.2-35.3h10.8l-7.7,52.7h-10.1l-17.7-36.6l-5.3,36.6h-10.9L395.2,359.6z"/>
			<path class="st6" d="M474.6,365.1l-5.9,7.7c-2-1.4-3.7-2.5-5-3.2c-1.3-0.7-2.6-1.1-3.9-1.1c-2,0-3.7,0.6-4.9,1.8
				c-1.3,1.2-1.9,2.6-1.9,4.4c0,1.6,0.7,3,2.1,4.1c1.4,1.2,3.7,2.5,7.1,3.9c2.7,1.7,4.5,3,5.5,3.9c1,0.9,1.9,2.2,2.8,4
				c0.9,1.8,1.3,3.7,1.3,5.8c0,4.6-1.7,8.4-5.1,11.6c-3.5,3.2-7.5,4.8-12.4,4.8c-5.8,0-11.4-2.2-16.8-6.8l6.2-7.6c1.4,1,3,2,4.8,3.2
				s3.6,1.7,5.3,1.7c1.9,0,3.6-0.6,4.9-1.9c1.4-1.3,2-2.8,2-4.6c0-1.6-0.7-3.1-2-4.3c-1.3-1.2-3.4-2.4-6.1-3.5
				c-2.7-1.1-4.6-2.1-5.7-3c-1.2-0.8-2.3-2.2-3.5-4.1c-1.1-1.9-1.7-4.2-1.7-6.9c0-4.7,1.7-8.6,5.1-11.6c3.4-3.1,7.7-4.6,12.9-4.6
				C465.1,358.8,470,361,474.6,365.1z"/>
		</g>
	</g>
	<g>
		<path class="st5" d="M199.6,92H93l-9.6,57.5h39.9l-30.6,184c19,0,41.4-1.7,67.4-5.9L199.6,92z"/>
		<path class="st5" d="M156.6,348.7l0.8-4.6c-15.8,2.5-30.1,3.9-42.9,4.6L156.6,348.7z"/>
	</g>
	<g>
		<path class="st6" d="M335.9,117.5c-19.1-17-43.1-25.5-71.9-25.5c-21.4,0-41.2,6-59.2,17.9l-16.6,98.2h19.3
			c4.6-41.4,21.1-62.1,49.4-62.1c11.5,0,21.5,4.2,29.9,12.6c8.4,8.4,12.6,18.3,12.6,29.8c0,11.6-4.5,24.1-13.6,37.3
			c-9,13.2-24.4,31.9-46.3,56.1L207,318c37.2-8.9,74.7-19.7,109.3-30.6c32.2-37.1,48.4-72.5,48.4-106.2
			C364.7,155.8,355.1,134.5,335.9,117.5z"/>
	</g>
	<g>
		<path class="st5" d="M322.8,348.7c-7-5.7-12.6-13.9-16.9-24.5h-12.3l-22.2,24.5L322.8,348.7z"/>
	</g>
	<g>
		<path class="st5" d="M457.2,114.8c-17-15.2-39-22.8-65.9-22.8c-20.1,0-38.3,4.6-54.5,13.8c14.4,10.9,28.9,30.6,31.3,45.5
			c4.3-1.4,8.5-2.3,13.7-2.3c10,0,18.3,3.4,24.9,10.3c6.6,6.9,9.9,15.4,9.9,25.6c0,13.6-5.6,24.7-16.9,33.3
			c-8.9,6.8-20.8,11.2-35.9,13.5l-6.3,42.2c40.4-13.6,74-26.2,94.4-34c20.7-17.7,31-39.7,31-65.9
			C482.7,149.8,474.2,130.1,457.2,114.8z"/>
	</g>
</g>
</svg>
