<svg width="1920" height="710" viewBox="0 0 1920 710" fill="none" xmlns="http://www.w3.org/2000/svg">
<g opacity="0.2">
<mask id="mask0_2_4" style="mask-type:luminance" maskUnits="userSpaceOnUse" x="0" y="189" width="1920" height="503">
<path d="M1919.98 614.253C1752.61 729.896 1627.13 701.702 1511.44 620.382C1452.52 578.976 1396.34 523.789 1338.43 466.913C1213.13 343.843 1079.61 212.702 894.376 198.244C741.517 186.307 657.078 287.818 572.764 389.207C450.241 536.554 327.85 683.589 0.238281 493.311V484.633C324.965 675.036 445.581 530.051 566.394 384.781C652.048 281.781 737.831 178.647 895.031 190.923C1083.36 205.626 1217.98 337.832 1344.3 461.917C1402 518.596 1457.97 573.559 1516.34 614.585C1630.09 694.538 1753.81 721.618 1919.98 604.889V614.253Z" fill="white"/>
</mask>
<g mask="url(#mask0_2_4)">
<path d="M1919.98 178.646H0.238281V729.895H1919.98V178.646Z" fill="url(#paint0_linear_2_4)"/>
</g>
<mask id="mask1_2_4" style="mask-type:luminance" maskUnits="userSpaceOnUse" x="0" y="185" width="1920" height="488">
<path d="M1919.98 595.072C1751.09 711.873 1623.22 682.06 1504.43 599.786C1446.57 559.706 1390.99 507.13 1333.85 453.091C1207.55 333.642 1073.53 206.87 891.318 193.79C740.737 182.976 655.978 282.217 571.41 381.25C447.74 526.038 324.402 670.333 0.238281 480.694V471.971C321.588 661.764 443.155 519.487 565.101 376.729C650.996 276.155 737.098 175.357 891.942 186.476C1077.17 199.773 1212.29 327.584 1339.61 448.017C1396.5 501.825 1451.83 554.16 1509.26 593.928C1626.13 674.885 1752.27 703.574 1919.97 585.64L1919.98 595.072Z" fill="white"/>
</mask>
<g mask="url(#mask1_2_4)">
<path d="M1919.98 175.356H0.238281V711.878H1919.98V175.356Z" fill="url(#paint1_linear_2_4)"/>
</g>
<mask id="mask2_2_4" style="mask-type:luminance" maskUnits="userSpaceOnUse" x="0" y="181" width="1920" height="473">
<path d="M1919.98 575.854C1749.36 693.986 1618.87 662.435 1496.79 579.119C1440.13 540.458 1385.36 490.573 1329.19 439.423C1201.98 323.555 1067.51 201.1 888.373 189.373C740.086 179.656 655.026 276.616 570.22 373.28C445.389 515.573 321.067 657.212 0.246094 468.18V459.423C318.287 648.621 440.882 508.976 563.989 368.685C650.104 270.52 736.482 172.057 888.947 182.049C1071.06 193.972 1206.62 317.436 1334.87 434.223C1390.78 485.133 1445.3 534.8 1501.62 573.221C1621.82 655.253 1750.57 685.701 1920 566.399L1919.98 575.854Z" fill="white"/>
</mask>
<g mask="url(#mask2_2_4)">
<path d="M1919.98 172.057H0.237915V693.985H1919.98V172.057Z" fill="url(#paint2_linear_2_4)"/>
</g>
<mask id="mask3_2_4" style="mask-type:luminance" maskUnits="userSpaceOnUse" x="0" y="177" width="1920" height="458">
<path d="M1919.98 556.622C1747.4 676.26 1614.08 642.806 1488.49 558.36C1433.15 521.158 1379.41 474.039 1324.45 425.851C1196.39 313.575 1061.57 195.372 885.494 184.962C739.521 176.321 654.186 271 569.174 365.316C443.131 505.148 317.763 644.217 0.238281 455.773V446.975C315.065 635.617 438.712 498.537 562.979 360.666C649.302 264.898 735.951 168.763 885.993 177.642C1065.01 188.224 1200.91 307.387 1330.01 420.57C1384.75 468.571 1438.28 515.507 1493.24 552.447C1616.97 635.634 1748.57 668.047 1919.98 547.2L1919.98 556.622Z" fill="white"/>
</mask>
<g mask="url(#mask3_2_4)">
<path d="M1919.98 168.762H0.242371V676.259H1919.98V168.762Z" fill="url(#paint3_linear_2_4)"/>
</g>
<mask id="mask4_2_4" style="mask-type:luminance" maskUnits="userSpaceOnUse" x="0" y="172" width="1920" height="444">
<path d="M1919.98 537.398C1745.16 658.757 1608.77 623.167 1479.41 537.489C1425.65 501.886 1373.18 457.595 1319.64 412.41C1190.8 303.68 1055.73 189.686 882.69 180.567C739.084 172.985 653.494 265.379 568.288 357.377C441.047 494.766 314.543 631.242 0.238281 443.364V434.614C311.936 622.75 436.662 488.124 562.162 352.629C648.657 259.24 735.537 165.45 883.132 173.239C1059.07 182.505 1195.21 297.415 1325.07 407.014C1378.41 452.022 1430.69 496.15 1484.13 531.54C1611.64 615.999 1746.32 650.56 1919.98 527.956V537.398Z" fill="white"/>
</mask>
<g mask="url(#mask4_2_4)">
<path d="M1919.98 165.454H0.238281V658.754H1919.98V165.454Z" fill="url(#paint4_linear_2_4)"/>
</g>
<mask id="mask5_2_4" style="mask-type:luminance" maskUnits="userSpaceOnUse" x="0" y="168" width="1920" height="429">
<path d="M1919.98 518.187C1742.62 641.487 1602.89 603.508 1469.54 516.49C1417.49 482.533 1366.57 441.17 1314.75 399.074C1185.22 293.86 1049.98 184.034 879.975 176.177C738.748 169.637 652.954 259.751 567.575 349.434C439.061 484.426 311.396 618.408 0.238281 431.09V422.265C308.881 609.902 434.761 477.737 561.5 344.604C648.155 253.584 735.228 162.126 880.352 168.849C1053.22 176.849 1189.52 287.575 1320.09 393.603C1371.79 435.59 1422.59 476.844 1474.2 510.519C1605.75 596.347 1743.78 633.287 1919.99 508.697L1919.98 518.187Z" fill="white"/>
</mask>
<g mask="url(#mask5_2_4)">
<path d="M1919.98 162.143H0.238281V641.487H1919.98V162.143Z" fill="url(#paint5_linear_2_4)"/>
</g>
<mask id="mask6_2_4" style="mask-type:luminance" maskUnits="userSpaceOnUse" x="0" y="164" width="1920" height="415">
<path d="M1919.98 499.026C1739.76 624.519 1596.38 583.821 1458.69 495.343C1408.75 463.25 1359.65 424.874 1309.77 385.904C1179.63 284.186 1044.32 178.456 877.324 171.845C738.483 166.323 652.52 254.152 567.005 341.544C437.215 474.171 308.359 605.75 0.238281 418.927V410.103C305.908 597.255 433.01 467.478 561.038 336.654C647.816 247.975 735.048 158.849 877.667 164.527C1047.43 171.258 1183.82 277.836 1314.98 380.341C1364.7 419.182 1413.66 457.443 1463.3 489.349C1599.19 576.677 1740.9 616.322 1919.97 489.485L1919.98 499.026Z" fill="white"/>
</mask>
<g mask="url(#mask6_2_4)">
<path d="M1919.98 158.833H0.238281V624.506H1919.98V158.833Z" fill="url(#paint6_linear_2_4)"/>
</g>
<mask id="mask7_2_4" style="mask-type:luminance" maskUnits="userSpaceOnUse" x="0" y="159" width="1920" height="401">
<path d="M1919.98 479.838C1736.51 607.822 1589.12 564.033 1446.78 473.936C1399.19 443.814 1352.27 408.547 1304.75 372.836C1174.06 274.607 1038.75 172.909 874.771 167.499C738.363 162.961 652.271 248.517 566.627 333.625C435.52 463.931 305.429 593.198 0.230469 406.84V397.972C303.019 584.689 431.38 457.207 560.725 328.656C647.611 242.316 734.939 155.515 875.036 160.172C1041.74 165.68 1178.12 268.182 1309.83 367.175C1357.24 402.811 1404.05 437.984 1451.32 467.908C1591.9 556.896 1737.64 599.636 1919.97 470.26L1919.98 479.838Z" fill="white"/>
</mask>
<g mask="url(#mask7_2_4)">
<path d="M1919.98 155.513H0.238892V607.817H1919.98V155.513Z" fill="url(#paint7_linear_2_4)"/>
</g>
<mask id="mask8_2_4" style="mask-type:luminance" maskUnits="userSpaceOnUse" x="0" y="155" width="1920" height="387">
<path d="M1919.98 460.631C1732.8 591.452 1580.98 544.123 1433.56 452.234C1388.89 424.403 1344.5 392.306 1299.65 359.89C1168.5 265.119 1033.3 167.427 872.295 163.161C738.344 159.604 652.16 242.885 566.448 325.733C433.987 453.748 302.572 580.696 0.238281 394.804V385.98C300.267 572.31 429.918 447.021 560.587 320.72C647.537 236.688 734.95 152.201 872.495 155.857C1036.15 160.177 1172.42 258.654 1304.6 354.164C1349.22 386.407 1393.39 418.335 1438.08 446.193C1583.75 537.002 1733.94 583.344 1919.97 451.077L1919.98 460.631Z" fill="white"/>
</mask>
<g mask="url(#mask8_2_4)">
<path d="M1919.98 152.188H0.238281V591.452H1919.98V152.188Z" fill="url(#paint8_linear_2_4)"/>
</g>
</g>
<defs>
<linearGradient id="paint0_linear_2_4" x1="1355.99" y1="-335.185" x2="422.702" y2="1525.96" gradientUnits="userSpaceOnUse">
<stop stop-color="#CCCCCC"/>
<stop offset="1" stop-color="white"/>
</linearGradient>
<linearGradient id="paint1_linear_2_4" x1="1337.99" y1="-332.746" x2="448.388" y2="1494.94" gradientUnits="userSpaceOnUse">
<stop stop-color="#CCCCCC"/>
<stop offset="1" stop-color="white"/>
</linearGradient>
<linearGradient id="paint2_linear_2_4" x1="1383.96" y1="-328.666" x2="666.167" y2="961.245" gradientUnits="userSpaceOnUse">
<stop stop-color="#CCCCCC"/>
<stop offset="1" stop-color="white"/>
</linearGradient>
<linearGradient id="paint3_linear_2_4" x1="1379.5" y1="-331.147" x2="661.705" y2="958.761" gradientUnits="userSpaceOnUse">
<stop stop-color="#CCCCCC"/>
<stop offset="1" stop-color="white"/>
</linearGradient>
<linearGradient id="paint4_linear_2_4" x1="1375.08" y1="-333.612" x2="657.285" y2="956.292" gradientUnits="userSpaceOnUse">
<stop stop-color="#CCCCCC"/>
<stop offset="1" stop-color="white"/>
</linearGradient>
<linearGradient id="paint5_linear_2_4" x1="1370.71" y1="-336.044" x2="652.917" y2="953.853" gradientUnits="userSpaceOnUse">
<stop stop-color="#CCCCCC"/>
<stop offset="1" stop-color="white"/>
</linearGradient>
<linearGradient id="paint6_linear_2_4" x1="1366.39" y1="-338.442" x2="648.603" y2="951.46" gradientUnits="userSpaceOnUse">
<stop stop-color="#CCCCCC"/>
<stop offset="1" stop-color="white"/>
</linearGradient>
<linearGradient id="paint7_linear_2_4" x1="1362.14" y1="-340.807" x2="644.355" y2="949.087" gradientUnits="userSpaceOnUse">
<stop stop-color="#CCCCCC"/>
<stop offset="1" stop-color="white"/>
</linearGradient>
<linearGradient id="paint8_linear_2_4" x1="1357.96" y1="-343.135" x2="640.173" y2="946.759" gradientUnits="userSpaceOnUse">
<stop stop-color="#CCCCCC"/>
<stop offset="1" stop-color="white"/>
</linearGradient>
</defs>
</svg>
