<svg width="88" height="88" viewBox="0 0 88 88" fill="none" xmlns="http://www.w3.org/2000/svg">
<g filter="url(#filter0_d_1051_2)">
<circle cx="42" cy="40" r="31" fill="white"/>
</g>
<path d="M45.2273 31.6872C45.3176 31.5918 45.3881 31.4795 45.4349 31.3567C45.4817 31.234 45.5039 31.1033 45.5002 30.972C45.4965 30.8407 45.4669 30.7114 45.4133 30.5915C45.3596 30.4716 45.2828 30.3635 45.1873 30.2732C45.0919 30.183 44.9796 30.1125 44.8568 30.0657C44.7341 30.0189 44.6034 29.9967 44.4721 30.0004C44.3408 30.0041 44.2115 30.0337 44.0916 30.0873C43.9717 30.141 43.8636 30.2178 43.7733 30.3132L35.2733 39.3132C35.0978 39.4989 35 39.7447 35 40.0002C35 40.2558 35.0978 40.5016 35.2733 40.6872L43.7733 49.6882C43.863 49.7858 43.9711 49.8646 44.0914 49.92C44.2117 49.9754 44.3419 50.0064 44.4743 50.0111C44.6067 50.0158 44.7387 49.9942 44.8626 49.9474C44.9866 49.9007 45.1 49.8298 45.1963 49.7388C45.2927 49.6479 45.3699 49.5387 45.4237 49.4176C45.4775 49.2965 45.5067 49.166 45.5095 49.0335C45.5124 48.9011 45.489 48.7694 45.4405 48.6461C45.3921 48.5228 45.3196 48.4103 45.2273 48.3153L37.3753 40.0002L45.2273 31.6872Z" fill="#707070"/>
<defs>
<filter id="filter0_d_1051_2" x="0" y="0" width="88" height="88" filterUnits="userSpaceOnUse" color-interpolation-filters="sRGB">
<feFlood flood-opacity="0" result="BackgroundImageFix"/>
<feColorMatrix in="SourceAlpha" type="matrix" values="0 0 0 0 0 0 0 0 0 0 0 0 0 0 0 0 0 0 127 0" result="hardAlpha"/>
<feOffset dx="2" dy="4"/>
<feGaussianBlur stdDeviation="6.5"/>
<feComposite in2="hardAlpha" operator="out"/>
<feColorMatrix type="matrix" values="0 0 0 0 0 0 0 0 0 0 0 0 0 0 0 0 0 0 0.25 0"/>
<feBlend mode="normal" in2="BackgroundImageFix" result="effect1_dropShadow_1051_2"/>
<feBlend mode="normal" in="SourceGraphic" in2="effect1_dropShadow_1051_2" result="shape"/>
</filter>
</defs>
</svg>
