<svg width="88" height="88" viewBox="0 0 88 88" fill="none" xmlns="http://www.w3.org/2000/svg">
<g filter="url(#filter0_d_1051_3)">
<circle cx="42" cy="40" r="31" fill="white"/>
</g>
<path d="M37.7727 48.3128C37.6824 48.4082 37.6119 48.5205 37.5651 48.6433C37.5183 48.766 37.4961 48.8967 37.4998 49.028C37.5035 49.1593 37.5331 49.2886 37.5867 49.4085C37.6404 49.5284 37.7172 49.6365 37.8127 49.7268C37.9081 49.817 38.0204 49.8875 38.1432 49.9343C38.2659 49.9811 38.3966 50.0033 38.5279 49.9996C38.6592 49.9959 38.7885 49.9663 38.9084 49.9127C39.0283 49.859 39.1364 49.7822 39.2267 49.6868L47.7267 40.6868C47.9022 40.5011 48 40.2553 48 39.9998C48 39.7442 47.9022 39.4984 47.7267 39.3128L39.2267 30.3118C39.137 30.2142 39.0289 30.1354 38.9086 30.08C38.7883 30.0246 38.6581 29.9936 38.5257 29.9889C38.3933 29.9842 38.2613 30.0058 38.1374 30.0526C38.0134 30.0993 37.9 30.1702 37.8037 30.2612C37.7073 30.3521 37.6301 30.4613 37.5763 30.5824C37.5225 30.7035 37.4933 30.834 37.4905 30.9665C37.4876 31.0989 37.511 31.2306 37.5595 31.3539C37.6079 31.4772 37.6804 31.5897 37.7727 31.6847L45.6247 39.9998L37.7727 48.3128Z" fill="#707070"/>
<defs>
<filter id="filter0_d_1051_3" x="0" y="0" width="88" height="88" filterUnits="userSpaceOnUse" color-interpolation-filters="sRGB">
<feFlood flood-opacity="0" result="BackgroundImageFix"/>
<feColorMatrix in="SourceAlpha" type="matrix" values="0 0 0 0 0 0 0 0 0 0 0 0 0 0 0 0 0 0 127 0" result="hardAlpha"/>
<feOffset dx="2" dy="4"/>
<feGaussianBlur stdDeviation="6.5"/>
<feComposite in2="hardAlpha" operator="out"/>
<feColorMatrix type="matrix" values="0 0 0 0 0 0 0 0 0 0 0 0 0 0 0 0 0 0 0.25 0"/>
<feBlend mode="normal" in2="BackgroundImageFix" result="effect1_dropShadow_1051_3"/>
<feBlend mode="normal" in="SourceGraphic" in2="effect1_dropShadow_1051_3" result="shape"/>
</filter>
</defs>
</svg>
