<svg width="388" height="378" viewBox="0 0 388 378" fill="none" xmlns="http://www.w3.org/2000/svg">
<mask id="mask0_2_142" style="mask-type:alpha" maskUnits="userSpaceOnUse" x="0" y="10" width="359" height="340">
<rect y="10" width="359" height="340" fill="black"/>
</mask>
<g mask="url(#mask0_2_142)">
<g opacity="0.3">
<path d="M263.152 10.8838C263.167 10.8866 263.182 10.8862 263.196 10.8826C263.21 10.879 263.223 10.8723 263.235 10.8629C263.246 10.8536 263.255 10.8418 263.261 10.8285C263.268 10.8152 263.271 10.8007 263.271 10.786C263.271 10.7713 263.268 10.7568 263.261 10.7435C263.255 10.7302 263.246 10.7185 263.235 10.7091C263.223 10.6998 263.21 10.6931 263.196 10.6895C263.182 10.6858 263.167 10.6854 263.152 10.6882C263.13 10.6927 263.109 10.7048 263.094 10.7227C263.08 10.7405 263.072 10.7629 263.072 10.786C263.072 10.8091 263.08 10.8315 263.094 10.8493C263.109 10.8672 263.13 10.8794 263.152 10.8838Z" fill="#39CCBC"/>
<path d="M280.734 11.0805C280.792 11.0805 280.848 11.0634 280.896 11.0313C280.944 10.9993 280.982 10.9538 281.004 10.9005C281.026 10.8473 281.031 10.7887 281.02 10.7321C281.009 10.6756 280.981 10.6237 280.94 10.5829C280.9 10.5421 280.848 10.5144 280.791 10.5031C280.735 10.4919 280.676 10.4977 280.623 10.5197C280.57 10.5418 280.524 10.5791 280.492 10.6271C280.46 10.675 280.443 10.7313 280.443 10.789C280.443 10.8663 280.474 10.9404 280.528 10.9951C280.583 11.0498 280.657 11.0805 280.734 11.0805Z" fill="#39CCBC"/>
<path d="M298.314 11.3232C298.419 11.3224 298.522 11.2904 298.61 11.2312C298.697 11.172 298.765 11.0882 298.805 10.9904C298.845 10.8926 298.855 10.7851 298.834 10.6816C298.813 10.5781 298.762 10.4831 298.687 10.4086C298.612 10.3342 298.517 10.2836 298.413 10.2632C298.309 10.2429 298.202 10.2537 298.105 10.2943C298.007 10.3349 297.924 10.4035 297.865 10.4914C297.806 10.5793 297.775 10.6825 297.775 10.7882C297.775 10.8588 297.789 10.9286 297.816 10.9938C297.843 11.0589 297.883 11.1181 297.933 11.1678C297.983 11.2175 298.043 11.2568 298.108 11.2835C298.173 11.3102 298.243 11.3236 298.314 11.3232Z" fill="#39CCBC"/>
<path d="M315.894 11.5638C316.324 11.5638 316.672 11.2153 316.672 10.7854C316.672 10.3554 316.324 10.0069 315.894 10.0069C315.464 10.0069 315.116 10.3554 315.116 10.7854C315.116 11.2153 315.464 11.5638 315.894 11.5638Z" fill="#39CCBC"/>
<path d="M333.472 11.7153C333.656 11.7153 333.835 11.661 333.987 11.5593C334.139 11.4575 334.258 11.3129 334.328 11.1437C334.398 10.9744 334.416 10.7883 334.381 10.6086C334.345 10.429 334.257 10.264 334.127 10.1345C333.998 10.0049 333.833 9.91675 333.653 9.88101C333.473 9.84528 333.287 9.86362 333.118 9.93371C332.949 10.0038 332.804 10.1225 332.702 10.2748C332.601 10.4271 332.546 10.6061 332.546 10.7893C332.546 11.0349 332.644 11.2704 332.818 11.4441C332.991 11.6178 333.227 11.7153 333.472 11.7153Z" fill="#39CCBC"/>
<path d="M351.051 11.9106C351.27 11.9106 351.484 11.8457 351.666 11.7241C351.848 11.6025 351.99 11.4296 352.074 11.2273C352.157 11.0251 352.179 10.8025 352.137 10.5878C352.094 10.3731 351.988 10.1759 351.834 10.0211C351.679 9.86633 351.482 9.76091 351.267 9.7182C351.052 9.67549 350.83 9.69741 350.627 9.78118C350.425 9.86496 350.252 10.0068 350.131 10.1888C350.009 10.3709 349.944 10.5849 349.944 10.8038C349.944 11.0973 350.061 11.3788 350.268 11.5864C350.476 11.794 350.757 11.9106 351.051 11.9106Z" fill="#39CCBC"/>
<path d="M254.365 28.5604C254.393 28.562 254.42 28.5578 254.446 28.5479C254.472 28.5381 254.495 28.5229 254.514 28.5033C254.533 28.4837 254.548 28.4602 254.557 28.4344C254.567 28.4086 254.571 28.3811 254.568 28.3537C254.568 28.3281 254.563 28.3026 254.553 28.2789C254.544 28.2552 254.529 28.2336 254.511 28.2155C254.493 28.1973 254.471 28.1829 254.448 28.1731C254.424 28.1633 254.398 28.1582 254.373 28.1582C254.321 28.1582 254.271 28.1788 254.235 28.2155C254.198 28.2521 254.177 28.3019 254.177 28.3537C254.175 28.3798 254.179 28.4061 254.187 28.4308C254.196 28.4556 254.209 28.4784 254.227 28.4977C254.244 28.5171 254.266 28.5326 254.29 28.5434C254.313 28.5542 254.339 28.5599 254.365 28.5604Z" fill="#39CCBC"/>
<path d="M271.946 28.8563C272.043 28.8563 272.137 28.8278 272.218 28.7743C272.298 28.7209 272.361 28.6449 272.399 28.5559C272.436 28.4668 272.446 28.3687 272.428 28.2739C272.41 28.179 272.365 28.0916 272.297 28.0225C272.23 27.9535 272.143 27.9059 272.049 27.8857C271.954 27.8656 271.856 27.8737 271.766 27.9092C271.676 27.9446 271.599 28.0058 271.544 28.085C271.488 28.1642 271.458 28.258 271.456 28.3545C271.454 28.4199 271.466 28.4849 271.49 28.5457C271.514 28.6065 271.55 28.6619 271.595 28.7087C271.641 28.7554 271.696 28.7926 271.756 28.8179C271.816 28.8433 271.881 28.8563 271.946 28.8563Z" fill="#39CCBC"/>
<path d="M289.521 29.1477C289.676 29.1484 289.827 29.1035 289.956 29.0184C290.084 28.9334 290.185 28.8122 290.245 28.6699C290.305 28.5277 290.322 28.3709 290.293 28.2193C290.264 28.0676 290.191 27.9279 290.083 27.8177C289.975 27.7075 289.837 27.6318 289.685 27.6001C289.534 27.5684 289.377 27.5821 289.234 27.6395C289.091 27.6969 288.968 27.7954 288.88 27.9226C288.793 28.0499 288.745 28.2001 288.743 28.3545C288.741 28.4578 288.76 28.5604 288.799 28.6564C288.837 28.7523 288.894 28.8397 288.967 28.9134C289.039 28.9872 289.125 29.0459 289.22 29.0861C289.316 29.1263 289.418 29.1472 289.521 29.1477Z" fill="#39CCBC"/>
<path d="M307.103 29.4392C307.316 29.4392 307.523 29.3761 307.7 29.258C307.877 29.1398 308.014 28.9719 308.096 28.7755C308.177 28.5791 308.198 28.3631 308.156 28.1547C308.114 27.9464 308.012 27.7551 307.861 27.6051C307.711 27.4551 307.519 27.3531 307.31 27.3121C307.102 27.2711 306.886 27.2929 306.69 27.3747C306.494 27.4565 306.326 27.5947 306.209 27.7717C306.091 27.9488 306.029 28.1567 306.03 28.3692C306.031 28.6533 306.144 28.9255 306.345 29.126C306.547 29.3266 306.819 29.4392 307.103 29.4392Z" fill="#39CCBC"/>
<path d="M324.683 29.6819C325.411 29.6819 326 29.0922 326 28.3647C326 27.6373 325.411 27.0476 324.683 27.0476C323.956 27.0476 323.366 27.6373 323.366 28.3647C323.366 29.0922 323.956 29.6819 324.683 29.6819Z" fill="#39CCBC"/>
<path d="M342.258 29.878C342.558 29.8787 342.851 29.7905 343.1 29.6246C343.35 29.4586 343.544 29.2224 343.659 28.9459C343.774 28.6693 343.804 28.3648 343.746 28.0711C343.688 27.7773 343.544 27.5074 343.332 27.2957C343.12 27.0839 342.85 26.9397 342.556 26.8815C342.263 26.8232 341.958 26.8535 341.682 26.9685C341.405 27.0834 341.169 27.2779 341.003 27.5272C340.837 27.7765 340.749 28.0695 340.749 28.369C340.749 28.7692 340.908 29.153 341.191 29.436C341.474 29.719 341.858 29.878 342.258 29.878Z" fill="#39CCBC"/>
<path d="M359.839 30.0253C360.168 30.026 360.489 29.9292 360.763 29.747C361.036 29.5649 361.25 29.3056 361.376 29.0021C361.502 28.6986 361.535 28.3645 361.471 28.0421C361.407 27.7197 361.249 27.4235 361.017 27.1911C360.784 26.9587 360.488 26.8005 360.166 26.7365C359.843 26.6726 359.509 26.7058 359.206 26.8319C358.902 26.958 358.643 27.1714 358.461 27.445C358.278 27.7186 358.182 28.0401 358.182 28.3687C358.182 28.5863 358.225 28.8017 358.308 29.0027C358.392 29.2037 358.514 29.3863 358.668 29.5401C358.821 29.6939 359.004 29.816 359.205 29.8992C359.406 29.9825 359.621 30.0253 359.839 30.0253Z" fill="#39CCBC"/>
<path d="M228.004 45.9935C228.017 45.9935 228.029 45.9884 228.038 45.9793C228.047 45.9703 228.052 45.958 228.052 45.9452C228.052 45.9324 228.047 45.9201 228.038 45.911C228.029 45.902 228.017 45.8969 228.004 45.8969C227.991 45.8969 227.979 45.902 227.97 45.911C227.961 45.9201 227.956 45.9324 227.956 45.9452C227.955 45.9517 227.956 45.9582 227.958 45.9643C227.961 45.9704 227.964 45.976 227.969 45.9806C227.973 45.9852 227.979 45.9887 227.985 45.991C227.991 45.9932 227.998 45.9941 228.004 45.9935Z" fill="#39CCBC"/>
<path d="M245.574 46.2879C245.619 46.2879 245.664 46.2791 245.705 46.2618C245.747 46.2446 245.785 46.2193 245.817 46.1875C245.848 46.1556 245.874 46.1178 245.891 46.0761C245.908 46.0345 245.917 45.9899 245.917 45.9448C245.917 45.8999 245.908 45.8555 245.891 45.8141C245.874 45.7727 245.848 45.7351 245.816 45.7035C245.784 45.6719 245.747 45.647 245.705 45.6302C245.663 45.6133 245.619 45.6049 245.574 45.6054C245.484 45.6054 245.398 45.6412 245.334 45.7048C245.27 45.7685 245.234 45.8548 245.234 45.9448C245.234 46.0352 245.27 46.1219 245.334 46.1862C245.397 46.2504 245.484 46.287 245.574 46.2879Z" fill="#39CCBC"/>
<path d="M263.155 46.6277C263.336 46.6277 263.509 46.5558 263.637 46.4278C263.765 46.2998 263.837 46.1261 263.837 45.9451C263.837 45.7641 263.765 45.5905 263.637 45.4625C263.509 45.3345 263.336 45.2626 263.155 45.2626C262.974 45.2626 262.8 45.3345 262.672 45.4625C262.544 45.5905 262.472 45.7641 262.472 45.9451C262.472 46.1261 262.544 46.2998 262.672 46.4278C262.8 46.5558 262.974 46.6277 263.155 46.6277Z" fill="#39CCBC"/>
<path d="M280.733 46.9224C280.927 46.9231 281.116 46.8664 281.278 46.7594C281.439 46.6524 281.565 46.5 281.639 46.3214C281.714 46.1428 281.734 45.9461 281.696 45.7562C281.659 45.5663 281.566 45.3917 281.43 45.2546C281.293 45.1175 281.119 45.024 280.929 44.986C280.739 44.948 280.543 44.9671 280.364 45.041C280.185 45.1149 280.032 45.2402 279.924 45.4011C279.817 45.5619 279.759 45.7511 279.759 45.9446C279.759 46.2033 279.862 46.4514 280.044 46.6347C280.227 46.8179 280.475 46.9214 280.733 46.9224Z" fill="#39CCBC"/>
<path d="M298.314 47.2625C298.575 47.2625 298.829 47.1853 299.046 47.0405C299.263 46.8958 299.431 46.6901 299.531 46.4494C299.631 46.2087 299.657 45.9439 299.606 45.6884C299.555 45.4329 299.43 45.1982 299.246 45.014C299.061 44.8298 298.827 44.7044 298.571 44.6535C298.316 44.6027 298.051 44.6288 297.81 44.7285C297.569 44.8282 297.364 44.997 297.219 45.2136C297.074 45.4302 296.997 45.6849 296.997 45.9454C296.997 46.1185 297.03 46.29 297.096 46.45C297.162 46.61 297.259 46.7554 297.382 46.8778C297.504 47.0002 297.65 47.0972 297.81 47.1632C297.97 47.2293 298.141 47.263 298.314 47.2625Z" fill="#39CCBC"/>
<path d="M315.891 47.5396C316.209 47.5396 316.52 47.4452 316.784 47.2685C317.049 47.0917 317.255 46.8405 317.377 46.5466C317.499 46.2526 317.53 45.9292 317.468 45.6171C317.406 45.3051 317.253 45.0185 317.028 44.7935C316.803 44.5685 316.517 44.4153 316.205 44.3533C315.892 44.2912 315.569 44.3231 315.275 44.4448C314.981 44.5666 314.73 44.7727 314.553 45.0373C314.376 45.3018 314.282 45.6128 314.282 45.931C314.282 46.3576 314.452 46.7667 314.753 47.0684C315.055 47.3701 315.464 47.5396 315.891 47.5396Z" fill="#39CCBC"/>
<path d="M333.471 47.7983C333.836 47.7983 334.193 47.6901 334.496 47.4874C334.8 47.2847 335.036 46.9966 335.176 46.6595C335.315 46.3225 335.352 45.9515 335.281 45.5937C335.209 45.2359 335.034 44.9072 334.776 44.6492C334.518 44.3912 334.189 44.2155 333.831 44.1443C333.473 44.0731 333.102 44.1097 332.765 44.2493C332.428 44.3889 332.14 44.6253 331.938 44.9287C331.735 45.2321 331.627 45.5887 331.627 45.9536C331.627 46.4428 331.821 46.9121 332.167 47.258C332.513 47.604 332.982 47.7983 333.471 47.7983Z" fill="#39CCBC"/>
<path d="M351.052 47.9927C351.457 47.9927 351.853 47.8726 352.189 47.6476C352.526 47.4226 352.788 47.1028 352.943 46.7287C353.098 46.3545 353.139 45.9428 353.06 45.5456C352.981 45.1484 352.786 44.7835 352.5 44.4971C352.213 44.2108 351.848 44.0158 351.451 43.9367C351.054 43.8577 350.642 43.8983 350.268 44.0533C349.894 44.2083 349.574 44.4707 349.349 44.8074C349.124 45.1442 349.004 45.5401 349.004 45.945C349.004 46.2139 349.057 46.4802 349.16 46.7287C349.263 46.9771 349.414 47.2028 349.604 47.393C349.794 47.5831 350.02 47.7339 350.268 47.8368C350.516 47.9397 350.783 47.9927 351.052 47.9927Z" fill="#39CCBC"/>
<path d="M219.206 63.6222C219.219 63.6227 219.232 63.6206 219.244 63.616C219.256 63.6114 219.267 63.6044 219.276 63.5955C219.285 63.5865 219.293 63.5758 219.298 63.5639C219.303 63.552 219.305 63.5392 219.305 63.5263C219.305 63.5134 219.303 63.5006 219.298 63.4887C219.293 63.4768 219.285 63.4661 219.276 63.4571C219.267 63.4482 219.256 63.4412 219.244 63.4366C219.232 63.432 219.219 63.4299 219.206 63.4304C219.18 63.4304 219.156 63.4405 219.138 63.4585C219.12 63.4765 219.11 63.5008 219.11 63.5263C219.11 63.5517 219.12 63.5761 219.138 63.5941C219.156 63.6121 219.18 63.6222 219.206 63.6222Z" fill="#39CCBC"/>
<path d="M236.785 63.9635C237.027 63.9635 237.224 63.7669 237.224 63.5244C237.224 63.282 237.027 63.0854 236.785 63.0854C236.542 63.0854 236.346 63.282 236.346 63.5244C236.346 63.7669 236.542 63.9635 236.785 63.9635Z" fill="#39CCBC"/>
<path d="M254.366 64.3036C254.468 64.3041 254.569 64.2843 254.664 64.2454C254.759 64.2064 254.845 64.1491 254.917 64.0767C254.99 64.0043 255.047 63.9183 255.086 63.8236C255.125 63.729 255.145 63.6275 255.144 63.5252C255.145 63.4228 255.125 63.3213 255.086 63.2267C255.047 63.132 254.99 63.046 254.917 62.9736C254.845 62.9012 254.759 62.8439 254.664 62.8049C254.569 62.766 254.468 62.7462 254.366 62.7467C254.263 62.7462 254.161 62.766 254.067 62.8049C253.972 62.8438 253.885 62.9011 253.813 62.9734C253.74 63.0457 253.682 63.1317 253.643 63.2264C253.604 63.3211 253.583 63.4226 253.583 63.5252C253.583 63.6277 253.604 63.7292 253.643 63.8239C253.682 63.9186 253.74 64.0046 253.813 64.0769C253.885 64.1493 253.972 64.2065 254.067 64.2454C254.161 64.2843 254.263 64.3041 254.366 64.3036Z" fill="#39CCBC"/>
<path d="M271.945 64.6957C272.176 64.695 272.402 64.6258 272.594 64.4968C272.786 64.3679 272.935 64.185 273.023 63.9712C273.111 63.7574 273.134 63.5224 273.088 63.2958C273.043 63.0691 272.931 62.8611 272.767 62.6979C272.603 62.5347 272.395 62.4237 272.168 62.3788C271.942 62.334 271.707 62.3574 271.493 62.446C271.28 62.5346 271.097 62.6845 270.969 62.8768C270.84 63.069 270.772 63.295 270.772 63.5262C270.772 63.6801 270.802 63.8325 270.861 63.9746C270.92 64.1167 271.007 64.2458 271.116 64.3545C271.225 64.4631 271.354 64.5492 271.496 64.6078C271.639 64.6663 271.791 64.6962 271.945 64.6957Z" fill="#39CCBC"/>
<path d="M289.523 65.0392C289.822 65.0399 290.115 64.9518 290.364 64.786C290.613 64.6203 290.808 64.3843 290.923 64.1079C291.038 63.8316 291.069 63.5273 291.011 63.2337C290.953 62.94 290.809 62.6701 290.597 62.4582C290.386 62.2463 290.117 62.1018 289.823 62.0432C289.529 61.9845 289.225 62.0142 288.948 62.1286C288.672 62.243 288.435 62.4369 288.269 62.6857C288.103 62.9345 288.014 63.2272 288.014 63.5265C288.015 63.9267 288.174 64.3104 288.457 64.5938C288.739 64.8771 289.123 65.0372 289.523 65.0392Z" fill="#39CCBC"/>
<path d="M307.102 65.3769C307.467 65.3769 307.824 65.2687 308.127 65.066C308.431 64.8633 308.667 64.5752 308.807 64.2381C308.946 63.901 308.983 63.5301 308.912 63.1722C308.841 62.8144 308.665 62.4857 308.407 62.2277C308.149 61.9697 307.82 61.794 307.462 61.7229C307.105 61.6517 306.734 61.6882 306.397 61.8278C306.059 61.9675 305.771 62.2039 305.569 62.5073C305.366 62.8106 305.258 63.1673 305.258 63.5321C305.258 64.0214 305.452 64.4906 305.798 64.8366C306.144 65.1825 306.613 65.3769 307.102 65.3769Z" fill="#39CCBC"/>
<path d="M324.668 65.7207C325.102 65.7207 325.527 65.5919 325.888 65.3507C326.249 65.1095 326.53 64.7666 326.696 64.3655C326.862 63.9644 326.906 63.523 326.821 63.0972C326.737 62.6713 326.527 62.2802 326.22 61.9732C325.913 61.6662 325.522 61.4571 325.096 61.3724C324.671 61.2877 324.229 61.3312 323.828 61.4973C323.427 61.6635 323.084 61.9448 322.843 62.3058C322.602 62.6668 322.473 63.0913 322.473 63.5254C322.473 64.1076 322.704 64.666 323.116 65.0777C323.528 65.4894 324.086 65.7207 324.668 65.7207Z" fill="#39CCBC"/>
<path d="M342.261 65.9654C342.743 65.9662 343.215 65.8238 343.617 65.5562C344.018 65.2887 344.331 64.9081 344.516 64.4625C344.702 64.017 344.75 63.5265 344.657 63.0532C344.563 62.5799 344.331 62.145 343.99 61.8036C343.649 61.4621 343.215 61.2295 342.742 61.1351C342.268 61.0407 341.778 61.0888 341.332 61.2733C340.886 61.4577 340.505 61.7703 340.237 62.1714C339.969 62.5726 339.826 63.0442 339.826 63.5267C339.826 64.1729 340.082 64.7926 340.539 65.2499C340.995 65.7071 341.615 65.9645 342.261 65.9654Z" fill="#39CCBC"/>
<path d="M359.838 66.2082C361.319 66.2082 362.52 65.0073 362.52 63.5259C362.52 62.0446 361.319 60.8437 359.838 60.8437C358.357 60.8437 357.156 62.0446 357.156 63.5259C357.156 65.0073 358.357 66.2082 359.838 66.2082Z" fill="#39CCBC"/>
<path d="M210.416 81.2023C210.441 81.2023 210.465 81.1922 210.483 81.1742C210.501 81.1562 210.511 81.1319 210.511 81.1064C210.512 81.0935 210.51 81.0806 210.505 81.0686C210.501 81.0565 210.494 81.0455 210.485 81.0362C210.476 81.0269 210.465 81.0195 210.453 81.0144C210.441 81.0094 210.428 81.0068 210.416 81.0068C210.403 81.0068 210.39 81.0094 210.378 81.0144C210.366 81.0195 210.355 81.0269 210.346 81.0362C210.337 81.0455 210.33 81.0565 210.326 81.0686C210.321 81.0806 210.319 81.0935 210.32 81.1064C210.32 81.1319 210.33 81.1562 210.348 81.1742C210.366 81.1922 210.39 81.2023 210.416 81.2023Z" fill="#39CCBC"/>
<path d="M228.004 81.5462C228.117 81.5434 228.226 81.497 228.306 81.4167C228.386 81.3363 228.433 81.2281 228.436 81.1145C228.437 81.0569 228.426 80.9996 228.405 80.946C228.384 80.8923 228.352 80.8434 228.312 80.8019C228.272 80.7605 228.224 80.7273 228.171 80.7043C228.118 80.6814 228.062 80.6691 228.004 80.6681C227.945 80.6671 227.886 80.678 227.832 80.7001C227.777 80.7221 227.728 80.755 227.686 80.7966C227.644 80.8383 227.611 80.8879 227.589 80.9425C227.567 80.9971 227.556 81.0556 227.557 81.1145C227.558 81.1722 227.571 81.2291 227.594 81.282C227.617 81.3349 227.65 81.3828 227.691 81.4229C227.733 81.4629 227.782 81.4945 227.835 81.5156C227.889 81.5368 227.946 81.5472 228.004 81.5462Z" fill="#39CCBC"/>
<path d="M245.572 81.9334C245.791 81.9344 246.001 81.8487 246.156 81.6952C246.312 81.5417 246.401 81.3329 246.402 81.1143C246.402 80.8941 246.315 80.683 246.159 80.5273C246.004 80.3716 245.792 80.2842 245.572 80.2842C245.463 80.2842 245.356 80.3057 245.255 80.3474C245.155 80.3892 245.063 80.4504 244.987 80.5275C244.91 80.6047 244.849 80.6962 244.808 80.7969C244.766 80.8976 244.745 81.0055 244.746 81.1143C244.748 81.3322 244.836 81.5405 244.991 81.6939C245.145 81.8473 245.354 81.9334 245.572 81.9334Z" fill="#39CCBC"/>
<path d="M263.153 82.3709C263.404 82.3716 263.651 82.2975 263.86 82.158C264.069 82.0185 264.233 81.8199 264.329 81.5874C264.425 81.3549 264.45 81.099 264.401 80.8523C264.351 80.6055 264.23 80.3791 264.051 80.2017C263.873 80.0242 263.646 79.9039 263.399 79.8559C263.152 79.8079 262.896 79.8344 262.664 79.932C262.432 80.0297 262.234 80.1941 262.096 80.4043C261.958 80.6145 261.885 80.8612 261.887 81.1128C261.889 81.4471 262.023 81.7671 262.261 82.0029C262.498 82.2386 262.818 82.3709 263.153 82.3709Z" fill="#39CCBC"/>
<path d="M280.734 82.763C281.063 82.7637 281.385 82.6667 281.659 82.4842C281.933 82.3017 282.146 82.042 282.272 81.7381C282.398 81.4341 282.431 81.0996 282.366 80.777C282.301 80.4544 282.143 80.1583 281.909 79.9262C281.676 79.6941 281.379 79.5364 281.056 79.4733C280.734 79.4102 280.399 79.4445 280.096 79.5717C279.792 79.699 279.534 79.9135 279.352 80.1881C279.171 80.4626 279.076 80.7848 279.078 81.1138C279.08 81.5519 279.255 81.9714 279.566 82.2804C279.876 82.5895 280.296 82.763 280.734 82.763Z" fill="#39CCBC"/>
<path d="M298.313 83.1539C298.718 83.1525 299.114 83.0309 299.449 82.8047C299.785 82.5785 300.047 82.2578 300.2 81.883C300.354 81.5083 300.393 81.0965 300.313 80.6996C300.232 80.3026 300.036 79.9385 299.748 79.6532C299.461 79.3678 299.095 79.1741 298.698 79.0965C298.3 79.019 297.889 79.061 297.515 79.2173C297.142 79.3737 296.823 79.6373 296.599 79.9748C296.375 80.3123 296.257 80.7087 296.258 81.1136C296.259 81.3825 296.313 81.6486 296.417 81.8967C296.521 82.1447 296.672 82.3699 296.863 82.5594C297.054 82.7489 297.28 82.8989 297.529 83.0009C297.778 83.1029 298.044 83.1549 298.313 83.1539Z" fill="#39CCBC"/>
<path d="M315.89 83.5419C316.372 83.5427 316.844 83.4002 317.246 83.1325C317.648 82.8648 317.961 82.484 318.146 82.0382C318.331 81.5924 318.38 81.1018 318.286 80.6284C318.192 80.1549 317.959 79.7201 317.618 79.3788C317.277 79.0375 316.842 78.8052 316.368 78.7112C315.895 78.6172 315.404 78.6658 314.959 78.8508C314.513 79.0359 314.132 79.349 313.864 79.7506C313.597 80.1522 313.454 80.6243 313.455 81.1069C313.455 81.7527 313.711 82.3721 314.168 82.8287C314.625 83.2854 315.244 83.5419 315.89 83.5419Z" fill="#39CCBC"/>
<path d="M333.471 83.8841C334.02 83.8841 334.557 83.7212 335.014 83.4159C335.471 83.1107 335.827 82.6768 336.037 82.1691C336.248 81.6615 336.303 81.1029 336.196 80.564C336.088 80.0251 335.824 79.5301 335.435 79.1415C335.047 78.753 334.552 78.4884 334.013 78.3812C333.474 78.274 332.915 78.329 332.408 78.5393C331.9 78.7496 331.466 79.1057 331.161 79.5625C330.856 80.0194 330.693 80.5565 330.693 81.106C330.693 81.8428 330.985 82.5494 331.506 83.0704C332.027 83.5914 332.734 83.8841 333.471 83.8841Z" fill="#39CCBC"/>
<path d="M351.051 84.1747C351.659 84.1747 352.253 83.9944 352.759 83.6565C353.264 83.3187 353.658 82.8385 353.891 82.2767C354.123 81.7149 354.184 81.0968 354.065 80.5005C353.946 79.9042 353.653 79.3566 353.223 78.927C352.793 78.4973 352.245 78.2049 351.648 78.0867C351.052 77.9685 350.434 78.0299 349.872 78.2631C349.311 78.4963 348.831 78.8908 348.494 79.3967C348.156 79.9026 347.977 80.4971 347.978 81.1051C347.979 81.9196 348.303 82.7003 348.879 83.2759C349.455 83.8515 350.236 84.1747 351.051 84.1747Z" fill="#39CCBC"/>
<path d="M201.629 98.783C201.655 98.782 201.679 98.7711 201.697 98.7525C201.715 98.7339 201.725 98.7091 201.725 98.6833C201.725 98.6579 201.715 98.6335 201.697 98.6155C201.679 98.5975 201.654 98.5874 201.629 98.5874C201.603 98.5874 201.578 98.5974 201.56 98.6153C201.541 98.6332 201.53 98.6576 201.529 98.6833C201.529 98.7098 201.54 98.7351 201.558 98.7538C201.577 98.7725 201.602 98.783 201.629 98.783Z" fill="#39CCBC"/>
<path d="M219.204 99.121C219.321 99.121 219.432 99.0748 219.515 98.9925C219.597 98.9101 219.643 98.7984 219.643 98.682C219.643 98.6245 219.632 98.5676 219.61 98.5145C219.588 98.4615 219.555 98.4133 219.514 98.3728C219.473 98.3324 219.425 98.3004 219.372 98.2787C219.319 98.2571 219.262 98.2462 219.204 98.2466C219.088 98.2466 218.977 98.2924 218.895 98.3739C218.813 98.4555 218.766 98.5662 218.765 98.682C218.765 98.7984 218.811 98.9101 218.894 98.9925C218.976 99.0748 219.088 99.121 219.204 99.121Z" fill="#39CCBC"/>
<path d="M236.786 99.5615C237.271 99.5615 237.665 99.1683 237.665 98.6834C237.665 98.1984 237.271 97.8053 236.786 97.8053C236.302 97.8053 235.908 98.1984 235.908 98.6834C235.908 99.1683 236.302 99.5615 236.786 99.5615Z" fill="#39CCBC"/>
<path d="M254.366 100.001C254.714 99.9987 255.047 99.8591 255.293 99.6123C255.538 99.3655 255.676 99.0316 255.676 98.6835C255.676 98.5107 255.642 98.3396 255.575 98.18C255.509 98.0204 255.412 97.8755 255.29 97.7535C255.167 97.6314 255.022 97.5348 254.862 97.469C254.703 97.4032 254.531 97.3696 254.359 97.3701C254.186 97.3696 254.015 97.4032 253.855 97.469C253.695 97.5348 253.55 97.6314 253.427 97.7535C253.305 97.8755 253.208 98.0204 253.142 98.18C253.076 98.3396 253.041 98.5107 253.041 98.6835C253.041 98.8571 253.076 99.029 253.142 99.1893C253.209 99.3496 253.307 99.4951 253.43 99.6175C253.553 99.7399 253.699 99.8368 253.86 99.9025C254.02 99.9683 254.192 100.002 254.366 100.001Z" fill="#39CCBC"/>
<path d="M271.945 100.439C272.292 100.439 272.632 100.336 272.921 100.143C273.21 99.9501 273.435 99.6758 273.568 99.3549C273.701 99.034 273.735 98.6809 273.668 98.3402C273.6 97.9995 273.433 97.6866 273.187 97.441C272.941 97.1954 272.628 97.0281 272.288 96.9604C271.947 96.8926 271.594 96.9274 271.273 97.0603C270.952 97.1932 270.678 97.4183 270.485 97.7071C270.292 97.9959 270.189 98.3355 270.189 98.6828C270.189 99.1486 270.374 99.5953 270.703 99.9246C271.033 100.254 271.479 100.439 271.945 100.439Z" fill="#39CCBC"/>
<path d="M289.522 100.878C289.956 100.879 290.381 100.75 290.742 100.51C291.104 100.269 291.386 99.9263 291.552 99.5252C291.719 99.1241 291.763 98.6826 291.679 98.2566C291.595 97.8305 291.386 97.439 291.079 97.1316C290.772 96.8242 290.381 96.6148 289.955 96.5298C289.529 96.4448 289.088 96.488 288.686 96.6541C288.285 96.8201 287.942 97.1015 287.7 97.4626C287.459 97.8237 287.33 98.2482 287.33 98.6826C287.33 99.2641 287.561 99.8219 287.972 100.234C288.383 100.645 288.94 100.877 289.522 100.878Z" fill="#39CCBC"/>
<path d="M307.102 101.313C308.555 101.313 309.733 100.136 309.733 98.6827C309.733 97.2299 308.555 96.0521 307.102 96.0521C305.649 96.0521 304.472 97.2299 304.472 98.6827C304.472 100.136 305.649 101.313 307.102 101.313Z" fill="#39CCBC"/>
<path d="M324.667 101.709C325.266 101.709 325.851 101.533 326.349 101.201C326.847 100.869 327.235 100.396 327.465 99.8436C327.695 99.2909 327.755 98.6825 327.639 98.0954C327.522 97.5083 327.235 96.9689 326.812 96.5454C326.389 96.1219 325.85 95.8334 325.263 95.7164C324.676 95.5993 324.067 95.659 323.514 95.8879C322.961 96.1168 322.488 96.5046 322.156 97.0021C321.823 97.4997 321.646 98.0848 321.646 98.6833C321.646 99.4851 321.964 100.254 322.53 100.821C323.097 101.389 323.866 101.708 324.667 101.709Z" fill="#39CCBC"/>
<path d="M342.259 102.049C342.925 102.05 343.575 101.853 344.129 101.484C344.683 101.114 345.115 100.589 345.37 99.9743C345.625 99.3595 345.693 98.6828 345.563 98.0299C345.434 97.3769 345.114 96.777 344.643 96.3061C344.173 95.8352 343.573 95.5143 342.92 95.3842C342.268 95.2541 341.591 95.3205 340.976 95.575C340.361 95.8296 339.835 96.2609 339.465 96.8143C339.095 97.3677 338.898 98.0184 338.898 98.684C338.898 99.5758 339.252 100.431 339.882 101.062C340.512 101.693 341.367 102.048 342.259 102.049Z" fill="#39CCBC"/>
<path d="M359.839 102.39C360.568 102.39 361.281 102.174 361.887 101.77C362.494 101.365 362.966 100.79 363.246 100.117C363.526 99.4438 363.6 98.703 363.459 97.9878C363.318 97.2726 362.969 96.6152 362.455 96.0985C361.941 95.5818 361.285 95.2289 360.57 95.0845C359.856 94.9401 359.115 95.0105 358.44 95.2869C357.766 95.5633 357.188 96.0333 356.781 96.6376C356.373 97.2419 356.154 97.9534 356.15 98.6823C356.148 99.1684 356.241 99.6502 356.426 100.1C356.61 100.55 356.881 100.959 357.224 101.303C357.567 101.648 357.974 101.921 358.423 102.108C358.872 102.294 359.353 102.39 359.839 102.39Z" fill="#39CCBC"/>
<path d="M192.839 116.312C192.865 116.312 192.887 116.29 192.887 116.264C192.887 116.237 192.865 116.215 192.839 116.215C192.812 116.215 192.79 116.237 192.79 116.264C192.79 116.29 192.812 116.312 192.839 116.312Z" fill="#39CCBC"/>
<path d="M210.417 116.655C210.521 116.655 210.62 116.613 210.694 116.54C210.767 116.467 210.808 116.367 210.808 116.263C210.807 116.16 210.766 116.061 210.693 115.988C210.619 115.915 210.521 115.873 210.417 115.872C210.314 115.873 210.215 115.915 210.142 115.988C210.069 116.061 210.027 116.16 210.026 116.263C210.026 116.367 210.067 116.467 210.141 116.54C210.214 116.613 210.313 116.655 210.417 116.655Z" fill="#39CCBC"/>
<path d="M228.003 117.045C228.105 117.045 228.207 117.025 228.302 116.985C228.396 116.946 228.482 116.888 228.555 116.816C228.627 116.743 228.684 116.657 228.723 116.562C228.762 116.467 228.782 116.365 228.781 116.263C228.782 116.161 228.762 116.059 228.723 115.964C228.684 115.87 228.627 115.784 228.554 115.711C228.482 115.639 228.396 115.582 228.301 115.543C228.207 115.504 228.105 115.484 228.003 115.484C227.9 115.484 227.799 115.504 227.704 115.543C227.609 115.582 227.523 115.639 227.45 115.711C227.377 115.783 227.32 115.869 227.28 115.964C227.241 116.059 227.221 116.16 227.221 116.263C227.221 116.47 227.303 116.669 227.45 116.816C227.596 116.963 227.795 117.045 228.003 117.045Z" fill="#39CCBC"/>
<path d="M245.574 117.533C245.911 117.533 246.234 117.399 246.472 117.161C246.71 116.923 246.843 116.6 246.843 116.263C246.843 116.097 246.81 115.932 246.747 115.778C246.683 115.624 246.589 115.485 246.471 115.367C246.353 115.25 246.213 115.157 246.06 115.093C245.906 115.03 245.741 114.997 245.574 114.998C245.238 114.998 244.917 115.131 244.679 115.369C244.442 115.606 244.309 115.928 244.309 116.263C244.309 116.599 244.442 116.922 244.679 117.16C244.916 117.397 245.238 117.532 245.574 117.533Z" fill="#39CCBC"/>
<path d="M263.153 118.009C263.501 118.01 263.841 117.908 264.13 117.715C264.419 117.523 264.645 117.249 264.778 116.928C264.912 116.607 264.947 116.254 264.88 115.913C264.812 115.572 264.645 115.259 264.4 115.013C264.155 114.767 263.842 114.599 263.501 114.531C263.16 114.463 262.807 114.497 262.486 114.63C262.165 114.763 261.89 114.988 261.697 115.277C261.504 115.566 261.401 115.906 261.401 116.253C261.401 116.718 261.585 117.164 261.914 117.494C262.242 117.823 262.688 118.008 263.153 118.009Z" fill="#39CCBC"/>
<path d="M280.735 118.458C281.168 118.455 281.59 118.323 281.948 118.081C282.306 117.838 282.584 117.495 282.748 117.095C282.912 116.694 282.954 116.254 282.869 115.83C282.784 115.406 282.575 115.017 282.269 114.711C281.963 114.405 281.574 114.196 281.149 114.111C280.725 114.026 280.286 114.068 279.885 114.232C279.485 114.395 279.142 114.674 278.899 115.032C278.657 115.39 278.525 115.812 278.522 116.245C278.519 116.536 278.574 116.825 278.684 117.095C278.794 117.365 278.957 117.61 279.163 117.817C279.369 118.023 279.615 118.186 279.885 118.296C280.154 118.406 280.444 118.461 280.735 118.458Z" fill="#39CCBC"/>
<path d="M298.314 118.946C298.845 118.946 299.363 118.789 299.804 118.494C300.245 118.199 300.589 117.78 300.792 117.29C300.995 116.8 301.048 116.261 300.945 115.74C300.841 115.22 300.586 114.742 300.211 114.367C299.836 113.992 299.358 113.736 298.837 113.633C298.317 113.529 297.778 113.583 297.288 113.786C296.798 113.989 296.379 114.332 296.084 114.773C295.789 115.215 295.632 115.733 295.632 116.264C295.632 116.975 295.915 117.657 296.418 118.16C296.921 118.663 297.603 118.946 298.314 118.946Z" fill="#39CCBC"/>
<path d="M315.89 119.433C316.516 119.434 317.13 119.249 317.651 118.901C318.173 118.553 318.58 118.059 318.82 117.48C319.061 116.9 319.124 116.263 319.002 115.648C318.88 115.033 318.579 114.468 318.136 114.024C317.692 113.581 317.128 113.279 316.513 113.156C315.898 113.033 315.261 113.096 314.681 113.336C314.102 113.576 313.607 113.982 313.258 114.503C312.91 115.024 312.724 115.637 312.724 116.264C312.724 117.104 313.057 117.91 313.651 118.504C314.244 119.098 315.05 119.432 315.89 119.433Z" fill="#39CCBC"/>
<path d="M333.472 119.872C334.185 119.872 334.883 119.661 335.476 119.264C336.07 118.868 336.532 118.304 336.805 117.645C337.078 116.985 337.15 116.26 337.01 115.56C336.871 114.86 336.528 114.217 336.023 113.712C335.518 113.208 334.875 112.864 334.175 112.725C333.476 112.586 332.75 112.657 332.091 112.93C331.431 113.203 330.868 113.666 330.471 114.259C330.075 114.853 329.863 115.55 329.863 116.264C329.863 117.221 330.243 118.139 330.92 118.815C331.597 119.492 332.515 119.872 333.472 119.872Z" fill="#39CCBC"/>
<path d="M351.052 120.259C353.258 120.259 355.047 118.47 355.047 116.263C355.047 114.057 353.258 112.268 351.052 112.268C348.845 112.268 347.056 114.057 347.056 116.263C347.056 118.47 348.845 120.259 351.052 120.259Z" fill="#39CCBC"/>
<path d="M201.629 134.134C201.707 134.134 201.781 134.104 201.836 134.049C201.89 133.994 201.921 133.92 201.921 133.843C201.921 133.766 201.89 133.692 201.836 133.637C201.781 133.582 201.707 133.552 201.629 133.552C201.591 133.551 201.553 133.558 201.517 133.573C201.481 133.587 201.448 133.609 201.421 133.636C201.393 133.663 201.372 133.695 201.357 133.731C201.342 133.766 201.334 133.804 201.334 133.843C201.334 133.882 201.342 133.92 201.357 133.955C201.372 133.991 201.393 134.023 201.421 134.05C201.448 134.078 201.481 134.099 201.517 134.113C201.553 134.128 201.591 134.135 201.629 134.134Z" fill="#39CCBC"/>
<path d="M219.205 134.527C219.386 134.527 219.56 134.455 219.688 134.327C219.816 134.199 219.888 134.025 219.888 133.844C219.888 133.754 219.87 133.666 219.836 133.583C219.802 133.5 219.751 133.425 219.688 133.361C219.625 133.298 219.549 133.248 219.467 133.213C219.384 133.179 219.295 133.161 219.205 133.161C219.116 133.161 219.027 133.179 218.944 133.213C218.861 133.248 218.786 133.298 218.723 133.361C218.659 133.425 218.609 133.5 218.575 133.583C218.54 133.666 218.523 133.754 218.523 133.844C218.523 134.025 218.595 134.199 218.723 134.327C218.851 134.455 219.024 134.527 219.205 134.527Z" fill="#39CCBC"/>
<path d="M236.786 135.014C236.94 135.016 237.093 134.986 237.237 134.928C237.38 134.87 237.51 134.784 237.62 134.675C237.73 134.567 237.817 134.437 237.876 134.295C237.936 134.152 237.966 133.999 237.966 133.845C237.966 133.534 237.843 133.237 237.624 133.018C237.404 132.798 237.107 132.675 236.797 132.675C236.487 132.675 236.189 132.798 235.97 133.018C235.75 133.237 235.627 133.534 235.627 133.845C235.627 134.153 235.749 134.449 235.966 134.668C236.183 134.887 236.477 135.011 236.786 135.014Z" fill="#39CCBC"/>
<path d="M254.365 135.5C254.804 135.5 255.226 135.325 255.536 135.014C255.847 134.704 256.022 134.282 256.022 133.843C256.022 133.404 255.847 132.982 255.536 132.672C255.226 132.361 254.804 132.186 254.365 132.186C253.928 132.19 253.511 132.367 253.203 132.677C252.896 132.987 252.723 133.406 252.723 133.843C252.723 134.28 252.896 134.699 253.203 135.009C253.511 135.319 253.928 135.496 254.365 135.5Z" fill="#39CCBC"/>
<path d="M271.946 135.988C272.371 135.988 272.786 135.862 273.139 135.626C273.493 135.39 273.768 135.054 273.93 134.662C274.093 134.269 274.135 133.837 274.052 133.421C273.969 133.004 273.764 132.621 273.463 132.321C273.163 132.021 272.78 131.817 272.363 131.735C271.946 131.652 271.514 131.695 271.122 131.858C270.73 132.021 270.394 132.297 270.159 132.651C269.923 133.004 269.798 133.42 269.799 133.845C269.799 134.126 269.854 134.406 269.962 134.666C270.07 134.926 270.229 135.163 270.428 135.362C270.627 135.561 270.864 135.719 271.125 135.826C271.385 135.934 271.664 135.989 271.946 135.988Z" fill="#39CCBC"/>
<path d="M289.526 136.52C291.007 136.52 292.208 135.319 292.208 133.838C292.208 132.357 291.007 131.156 289.526 131.156C288.045 131.156 286.844 132.357 286.844 133.838C286.844 135.319 288.045 136.52 289.526 136.52Z" fill="#39CCBC"/>
<path d="M307.103 137.012C307.73 137.012 308.342 136.826 308.864 136.478C309.385 136.13 309.791 135.635 310.031 135.056C310.271 134.476 310.334 133.839 310.211 133.224C310.089 132.61 309.787 132.045 309.344 131.602C308.901 131.158 308.336 130.857 307.721 130.734C307.106 130.612 306.469 130.675 305.89 130.915C305.311 131.155 304.816 131.561 304.468 132.082C304.12 132.603 303.934 133.216 303.934 133.843C303.935 134.683 304.269 135.488 304.863 136.083C305.457 136.677 306.263 137.011 307.103 137.012Z" fill="#39CCBC"/>
<path d="M324.668 137.564C325.398 137.564 326.111 137.347 326.718 136.942C327.324 136.537 327.797 135.96 328.077 135.286C328.356 134.612 328.429 133.87 328.287 133.155C328.144 132.439 327.793 131.781 327.277 131.265C326.761 130.749 326.103 130.398 325.388 130.256C324.672 130.113 323.93 130.186 323.256 130.466C322.582 130.745 322.006 131.218 321.6 131.825C321.195 132.431 320.978 133.145 320.978 133.874C320.978 134.853 321.367 135.791 322.059 136.483C322.751 137.175 323.689 137.564 324.668 137.564Z" fill="#39CCBC"/>
<path d="M342.26 138.034C343.089 138.034 343.899 137.788 344.588 137.327C345.277 136.867 345.815 136.212 346.132 135.446C346.449 134.68 346.532 133.838 346.37 133.025C346.209 132.212 345.81 131.465 345.223 130.879C344.637 130.293 343.89 129.893 343.077 129.732C342.264 129.57 341.422 129.653 340.656 129.97C339.89 130.287 339.235 130.825 338.775 131.514C338.314 132.203 338.068 133.013 338.068 133.842C338.069 134.954 338.511 136.019 339.297 136.805C340.083 137.591 341.148 138.033 342.26 138.034Z" fill="#39CCBC"/>
<path d="M359.84 138.47C362.397 138.47 364.47 136.397 364.47 133.84C364.47 131.283 362.397 129.21 359.84 129.21C357.283 129.21 355.21 131.283 355.21 133.84C355.21 136.397 357.283 138.47 359.84 138.47Z" fill="#39CCBC"/>
<path d="M192.839 151.569C192.921 151.569 192.987 151.503 192.987 151.421C192.987 151.34 192.921 151.274 192.839 151.274C192.758 151.274 192.692 151.34 192.692 151.421C192.692 151.503 192.758 151.569 192.839 151.569Z" fill="#39CCBC"/>
<path d="M210.415 151.951C210.557 151.951 210.693 151.895 210.794 151.795C210.894 151.694 210.95 151.558 210.95 151.416C210.951 151.346 210.937 151.276 210.911 151.21C210.884 151.145 210.845 151.086 210.795 151.036C210.745 150.986 210.686 150.946 210.621 150.919C210.556 150.892 210.486 150.878 210.415 150.878C210.345 150.878 210.275 150.892 210.21 150.919C210.145 150.946 210.085 150.986 210.036 151.036C209.986 151.086 209.947 151.145 209.92 151.21C209.893 151.276 209.88 151.346 209.88 151.416C209.88 151.558 209.937 151.694 210.037 151.795C210.137 151.895 210.273 151.951 210.415 151.951Z" fill="#39CCBC"/>
<path d="M228.004 152.445C228.275 152.445 228.535 152.337 228.727 152.146C228.918 151.954 229.026 151.694 229.026 151.423C229.027 151.288 229.001 151.155 228.949 151.031C228.898 150.906 228.823 150.793 228.728 150.698C228.633 150.603 228.52 150.527 228.396 150.475C228.272 150.424 228.139 150.397 228.004 150.397C227.869 150.397 227.736 150.423 227.611 150.474C227.486 150.526 227.373 150.601 227.278 150.697C227.182 150.792 227.107 150.905 227.056 151.03C227.004 151.154 226.978 151.288 226.978 151.423C226.978 151.557 227.005 151.691 227.057 151.815C227.108 151.939 227.184 152.052 227.279 152.147C227.374 152.242 227.488 152.317 227.612 152.368C227.736 152.419 227.87 152.445 228.004 152.445Z" fill="#39CCBC"/>
<path d="M245.573 152.932C245.772 152.933 245.968 152.894 246.152 152.819C246.335 152.743 246.502 152.632 246.643 152.492C246.783 152.352 246.895 152.185 246.971 152.002C247.047 151.818 247.086 151.622 247.086 151.423C247.086 151.225 247.048 151.028 246.972 150.844C246.896 150.66 246.785 150.493 246.644 150.353C246.503 150.212 246.337 150.101 246.153 150.025C245.969 149.949 245.772 149.91 245.573 149.911C245.375 149.911 245.178 149.95 244.995 150.026C244.812 150.102 244.645 150.213 244.505 150.354C244.365 150.495 244.254 150.661 244.178 150.845C244.103 151.028 244.064 151.225 244.064 151.423C244.064 151.824 244.223 152.207 244.506 152.49C244.789 152.773 245.173 152.932 245.573 152.932Z" fill="#39CCBC"/>
<path d="M263.154 153.428C263.423 153.439 263.692 153.396 263.945 153.301C264.197 153.206 264.428 153.061 264.623 152.874C264.818 152.687 264.973 152.463 265.079 152.215C265.185 151.967 265.239 151.7 265.239 151.43C265.239 151.16 265.185 150.893 265.079 150.645C264.973 150.397 264.818 150.173 264.623 149.986C264.428 149.799 264.197 149.654 263.945 149.559C263.692 149.464 263.423 149.421 263.154 149.432C262.884 149.421 262.615 149.464 262.362 149.559C262.11 149.654 261.879 149.799 261.685 149.986C261.49 150.173 261.335 150.397 261.229 150.645C261.123 150.893 261.068 151.16 261.068 151.43C261.068 151.7 261.123 151.967 261.229 152.215C261.335 152.463 261.49 152.687 261.685 152.874C261.879 153.061 262.11 153.206 262.362 153.301C262.615 153.396 262.884 153.439 263.154 153.428Z" fill="#39CCBC"/>
<path d="M280.734 153.958C281.235 153.958 281.725 153.809 282.142 153.531C282.559 153.252 282.884 152.856 283.076 152.393C283.267 151.93 283.318 151.42 283.22 150.929C283.122 150.437 282.881 149.985 282.526 149.631C282.172 149.276 281.72 149.035 281.228 148.937C280.737 148.839 280.227 148.889 279.764 149.081C279.301 149.273 278.905 149.598 278.626 150.015C278.348 150.432 278.199 150.922 278.199 151.423C278.2 152.095 278.467 152.739 278.943 153.214C279.418 153.689 280.062 153.957 280.734 153.958Z" fill="#39CCBC"/>
<path d="M298.315 154.493C298.923 154.493 299.518 154.313 300.023 153.975C300.529 153.637 300.922 153.157 301.155 152.595C301.387 152.033 301.448 151.415 301.329 150.819C301.21 150.223 300.917 149.675 300.487 149.245C300.057 148.816 299.509 148.523 298.913 148.405C298.316 148.287 297.698 148.348 297.137 148.581C296.575 148.815 296.095 149.209 295.758 149.715C295.421 150.221 295.241 150.815 295.242 151.423C295.243 152.238 295.567 153.019 296.143 153.594C296.72 154.17 297.501 154.493 298.315 154.493Z" fill="#39CCBC"/>
<path d="M319.226 152.8C319.989 150.959 319.115 148.848 317.273 148.085C315.432 147.323 313.322 148.197 312.559 150.038C311.796 151.879 312.671 153.99 314.512 154.753C316.353 155.515 318.464 154.641 319.226 152.8Z" fill="#39CCBC"/>
<path d="M333.471 155.563C335.759 155.563 337.614 153.708 337.614 151.42C337.614 149.132 335.759 147.277 333.471 147.277C331.182 147.277 329.327 149.132 329.327 151.42C329.327 153.708 331.182 155.563 333.471 155.563Z" fill="#39CCBC"/>
<path d="M351.053 156.098C353.636 156.098 355.731 154.003 355.731 151.419C355.731 148.836 353.636 146.741 351.053 146.741C348.469 146.741 346.374 148.836 346.374 151.419C346.374 154.003 348.469 156.098 351.053 156.098Z" fill="#39CCBC"/>
<path d="M184.048 169.05C184.061 169.05 184.073 169.044 184.082 169.035C184.092 169.026 184.097 169.014 184.097 169.001C184.097 168.988 184.092 168.976 184.082 168.967C184.073 168.958 184.061 168.953 184.048 168.953C184.035 168.953 184.023 168.958 184.014 168.967C184.005 168.976 184 168.988 184 169.001C184 169.014 184.005 169.026 184.014 169.035C184.023 169.044 184.035 169.05 184.048 169.05Z" fill="#39CCBC"/>
<path d="M201.628 169.344C201.718 169.343 201.805 169.306 201.868 169.242C201.932 169.178 201.968 169.091 201.968 169.001C201.968 168.911 201.932 168.825 201.868 168.761C201.804 168.697 201.718 168.661 201.628 168.661C201.538 168.661 201.451 168.697 201.387 168.761C201.323 168.824 201.286 168.911 201.285 169.001C201.285 169.092 201.321 169.179 201.385 169.244C201.45 169.308 201.537 169.344 201.628 169.344Z" fill="#39CCBC"/>
<path d="M219.205 169.783C219.412 169.783 219.611 169.7 219.758 169.554C219.905 169.407 219.987 169.208 219.987 169.001C219.986 168.794 219.903 168.596 219.757 168.45C219.61 168.304 219.412 168.222 219.205 168.222C218.999 168.223 218.801 168.305 218.655 168.451C218.51 168.597 218.427 168.794 218.426 169.001C218.426 169.207 218.508 169.406 218.654 169.552C218.8 169.699 218.998 169.782 219.205 169.783Z" fill="#39CCBC"/>
<path d="M236.786 170.268C236.953 170.268 237.118 170.235 237.272 170.172C237.426 170.108 237.565 170.014 237.683 169.896C237.801 169.779 237.895 169.639 237.958 169.485C238.022 169.331 238.055 169.166 238.055 168.999C238.054 168.663 237.92 168.341 237.682 168.104C237.444 167.867 237.122 167.734 236.786 167.734C236.45 167.734 236.128 167.867 235.891 168.104C235.654 168.342 235.52 168.663 235.52 168.999C235.52 169.166 235.552 169.33 235.616 169.484C235.679 169.638 235.772 169.778 235.89 169.896C236.007 170.014 236.147 170.108 236.301 170.172C236.455 170.235 236.619 170.268 236.786 170.268Z" fill="#39CCBC"/>
<path d="M254.365 170.804C254.844 170.804 255.303 170.614 255.641 170.276C255.979 169.937 256.169 169.478 256.169 169C256.169 168.521 255.979 168.062 255.641 167.724C255.303 167.386 254.844 167.196 254.365 167.196C253.887 167.196 253.428 167.386 253.09 167.724C252.751 168.062 252.561 168.521 252.561 169C252.561 169.478 252.751 169.937 253.09 170.276C253.428 170.614 253.887 170.804 254.365 170.804Z" fill="#39CCBC"/>
<path d="M271.946 171.291C272.399 171.291 272.842 171.157 273.219 170.905C273.596 170.654 273.89 170.296 274.063 169.877C274.236 169.458 274.282 168.998 274.193 168.553C274.105 168.109 273.887 167.701 273.566 167.38C273.246 167.06 272.838 166.842 272.393 166.753C271.949 166.665 271.488 166.71 271.07 166.884C270.651 167.057 270.293 167.351 270.041 167.727C269.79 168.104 269.655 168.547 269.655 169C269.656 169.608 269.898 170.19 270.327 170.619C270.757 171.049 271.339 171.291 271.946 171.291Z" fill="#39CCBC"/>
<path d="M289.522 171.831C290.082 171.832 290.629 171.666 291.095 171.356C291.561 171.045 291.924 170.604 292.139 170.087C292.354 169.57 292.41 169.001 292.302 168.451C292.193 167.902 291.924 167.398 291.528 167.001C291.132 166.605 290.628 166.335 290.079 166.226C289.53 166.116 288.961 166.172 288.444 166.386C287.926 166.6 287.484 166.963 287.173 167.429C286.862 167.894 286.696 168.441 286.696 169.001C286.696 169.751 286.994 170.47 287.523 171.001C288.053 171.531 288.772 171.83 289.522 171.831Z" fill="#39CCBC"/>
<path d="M307.102 172.412C307.777 172.412 308.437 172.212 308.998 171.837C309.559 171.462 309.997 170.929 310.255 170.305C310.513 169.681 310.581 168.995 310.449 168.333C310.318 167.671 309.993 167.063 309.515 166.586C309.038 166.109 308.43 165.784 307.768 165.652C307.106 165.52 306.42 165.588 305.796 165.846C305.173 166.104 304.64 166.542 304.265 167.103C303.89 167.664 303.689 168.324 303.689 168.999C303.689 169.904 304.049 170.772 304.689 171.412C305.329 172.052 306.197 172.412 307.102 172.412Z" fill="#39CCBC"/>
<path d="M324.668 172.951C325.449 172.952 326.214 172.721 326.864 172.287C327.514 171.853 328.021 171.236 328.321 170.515C328.62 169.793 328.699 168.998 328.547 168.231C328.395 167.464 328.019 166.76 327.467 166.207C326.914 165.654 326.21 165.277 325.444 165.125C324.677 164.972 323.882 165.05 323.16 165.349C322.438 165.648 321.82 166.154 321.386 166.804C320.952 167.454 320.72 168.218 320.72 169C320.72 170.047 321.136 171.052 321.876 171.793C322.616 172.534 323.62 172.95 324.668 172.951Z" fill="#39CCBC"/>
<path d="M342.26 173.534C343.157 173.535 344.034 173.27 344.781 172.772C345.527 172.274 346.108 171.566 346.452 170.738C346.796 169.909 346.886 168.997 346.712 168.117C346.537 167.238 346.106 166.429 345.472 165.795C344.838 165.16 344.03 164.728 343.15 164.553C342.27 164.378 341.358 164.467 340.53 164.81C339.701 165.153 338.993 165.734 338.494 166.48C337.996 167.226 337.73 168.103 337.73 169C337.73 170.202 338.207 171.354 339.057 172.205C339.906 173.055 341.058 173.533 342.26 173.534Z" fill="#39CCBC"/>
<path d="M359.841 174.12C360.853 174.121 361.844 173.821 362.687 173.259C363.529 172.697 364.186 171.897 364.574 170.962C364.962 170.026 365.064 168.996 364.867 168.002C364.67 167.009 364.183 166.096 363.467 165.38C362.751 164.663 361.838 164.175 360.845 163.977C359.851 163.779 358.821 163.88 357.885 164.268C356.949 164.655 356.149 165.312 355.587 166.154C355.024 166.996 354.723 167.986 354.723 168.999C354.723 170.357 355.262 171.659 356.222 172.619C357.181 173.579 358.483 174.119 359.841 174.12Z" fill="#39CCBC"/>
<path d="M192.839 186.728C192.921 186.728 192.987 186.662 192.987 186.581C192.987 186.499 192.921 186.433 192.839 186.433C192.758 186.433 192.692 186.499 192.692 186.581C192.692 186.662 192.758 186.728 192.839 186.728Z" fill="#39CCBC"/>
<path d="M210.415 187.117C210.557 187.117 210.693 187.061 210.794 186.96C210.894 186.86 210.95 186.724 210.95 186.582C210.95 186.512 210.936 186.442 210.91 186.377C210.883 186.312 210.843 186.253 210.794 186.204C210.744 186.154 210.685 186.115 210.62 186.088C210.555 186.061 210.486 186.047 210.415 186.047C210.345 186.047 210.275 186.061 210.211 186.088C210.146 186.115 210.087 186.154 210.037 186.204C209.987 186.253 209.948 186.312 209.921 186.377C209.894 186.442 209.88 186.512 209.88 186.582C209.88 186.724 209.937 186.86 210.037 186.96C210.137 187.061 210.273 187.117 210.415 187.117Z" fill="#39CCBC"/>
<path d="M228.004 187.606C228.276 187.605 228.535 187.497 228.727 187.304C228.919 187.112 229.026 186.852 229.026 186.58C229.026 186.309 228.918 186.049 228.727 185.858C228.535 185.666 228.275 185.558 228.004 185.558C227.87 185.558 227.736 185.584 227.612 185.635C227.488 185.686 227.374 185.762 227.279 185.856C227.184 185.951 227.108 186.064 227.057 186.188C227.005 186.313 226.978 186.446 226.978 186.58C226.978 186.852 227.087 187.113 227.279 187.306C227.471 187.498 227.732 187.606 228.004 187.606Z" fill="#39CCBC"/>
<path d="M245.573 188.108C245.772 188.108 245.969 188.068 246.152 187.992C246.336 187.916 246.502 187.805 246.643 187.664C246.783 187.524 246.895 187.357 246.971 187.174C247.047 186.99 247.086 186.794 247.086 186.595C247.086 186.194 246.927 185.809 246.643 185.525C246.359 185.242 245.975 185.082 245.573 185.082C245.173 185.083 244.789 185.243 244.506 185.527C244.223 185.81 244.064 186.194 244.064 186.595C244.064 186.995 244.223 187.38 244.506 187.663C244.789 187.947 245.173 188.107 245.573 188.108Z" fill="#39CCBC"/>
<path d="M263.154 188.581C263.684 188.581 264.193 188.37 264.568 187.995C264.943 187.62 265.154 187.111 265.154 186.581C265.154 186.051 264.943 185.542 264.568 185.167C264.193 184.792 263.684 184.581 263.154 184.581C262.624 184.581 262.115 184.792 261.74 185.167C261.365 185.542 261.154 186.051 261.154 186.581C261.154 187.111 261.365 187.62 261.74 187.995C262.115 188.37 262.624 188.581 263.154 188.581Z" fill="#39CCBC"/>
<path d="M280.734 189.115C281.235 189.115 281.725 188.966 282.142 188.688C282.559 188.409 282.884 188.013 283.076 187.55C283.267 187.087 283.318 186.577 283.22 186.086C283.122 185.594 282.881 185.142 282.526 184.788C282.172 184.433 281.72 184.192 281.228 184.094C280.737 183.996 280.227 184.047 279.764 184.238C279.301 184.43 278.905 184.755 278.626 185.172C278.348 185.589 278.199 186.079 278.199 186.58C278.2 187.252 278.467 187.896 278.943 188.371C279.418 188.846 280.062 189.114 280.734 189.115Z" fill="#39CCBC"/>
<path d="M298.315 189.651C298.922 189.65 299.515 189.47 300.02 189.132C300.524 188.794 300.917 188.314 301.149 187.754C301.38 187.193 301.441 186.575 301.322 185.98C301.203 185.385 300.91 184.838 300.481 184.41C300.051 183.981 299.504 183.689 298.909 183.57C298.314 183.452 297.697 183.513 297.136 183.746C296.575 183.978 296.096 184.372 295.759 184.876C295.422 185.381 295.242 185.974 295.242 186.581C295.242 186.985 295.321 187.384 295.476 187.757C295.63 188.13 295.857 188.468 296.142 188.753C296.428 189.038 296.767 189.264 297.139 189.418C297.512 189.572 297.912 189.652 298.315 189.651Z" fill="#39CCBC"/>
<path d="M318.442 189.13C319.852 187.721 319.852 185.436 318.442 184.027C317.033 182.618 314.749 182.618 313.34 184.027C311.93 185.436 311.93 187.721 313.34 189.13C314.749 190.539 317.033 190.539 318.442 189.13Z" fill="#39CCBC"/>
<path d="M333.471 190.771C335.786 190.771 337.663 188.895 337.663 186.58C337.663 184.265 335.786 182.389 333.471 182.389C331.157 182.389 329.28 184.265 329.28 186.58C329.28 188.895 331.157 190.771 333.471 190.771Z" fill="#39CCBC"/>
<path d="M351.051 191.311C353.663 191.311 355.781 189.193 355.781 186.581C355.781 183.969 353.663 181.851 351.051 181.851C348.439 181.851 346.321 183.969 346.321 186.581C346.321 189.193 348.439 191.311 351.051 191.311Z" fill="#39CCBC"/>
<path d="M201.629 204.452C201.707 204.452 201.781 204.422 201.836 204.367C201.89 204.312 201.921 204.238 201.921 204.161C201.921 204.083 201.89 204.009 201.836 203.954C201.781 203.898 201.707 203.867 201.629 203.866C201.551 203.866 201.476 203.897 201.421 203.952C201.365 204.008 201.334 204.083 201.334 204.161C201.334 204.2 201.342 204.238 201.357 204.273C201.372 204.309 201.393 204.341 201.421 204.368C201.448 204.395 201.481 204.417 201.517 204.431C201.553 204.446 201.591 204.453 201.629 204.452Z" fill="#39CCBC"/>
<path d="M219.208 204.887C219.612 204.887 219.939 204.56 219.939 204.157C219.939 203.754 219.612 203.426 219.208 203.426C218.805 203.426 218.478 203.754 218.478 204.157C218.478 204.56 218.805 204.887 219.208 204.887Z" fill="#39CCBC"/>
<path d="M236.786 205.33C236.94 205.332 237.093 205.303 237.237 205.245C237.38 205.186 237.51 205.1 237.62 204.992C237.73 204.883 237.817 204.754 237.876 204.611C237.936 204.468 237.966 204.315 237.966 204.161C237.966 203.851 237.843 203.553 237.624 203.334C237.404 203.114 237.107 202.991 236.797 202.991C236.487 202.991 236.189 203.114 235.97 203.334C235.75 203.553 235.627 203.851 235.627 204.161C235.627 204.469 235.749 204.765 235.966 204.984C236.183 205.203 236.477 205.327 236.786 205.33Z" fill="#39CCBC"/>
<path d="M254.365 205.817C254.805 205.817 255.226 205.643 255.537 205.332C255.847 205.022 256.022 204.6 256.022 204.161C256.022 203.721 255.848 203.299 255.537 202.988C255.226 202.677 254.805 202.502 254.365 202.501C253.926 202.502 253.504 202.677 253.194 202.988C252.883 203.299 252.709 203.721 252.709 204.161C252.709 204.378 252.752 204.594 252.835 204.795C252.918 204.996 253.04 205.178 253.194 205.332C253.348 205.486 253.531 205.608 253.732 205.691C253.933 205.775 254.148 205.817 254.365 205.817Z" fill="#39CCBC"/>
<path d="M271.946 206.305C272.371 206.305 272.786 206.178 273.139 205.942C273.493 205.706 273.768 205.371 273.93 204.978C274.093 204.586 274.135 204.154 274.052 203.737C273.969 203.32 273.764 202.938 273.463 202.638C273.163 202.337 272.78 202.133 272.363 202.051C271.946 201.968 271.514 202.011 271.122 202.175C270.73 202.338 270.394 202.613 270.159 202.967C269.923 203.321 269.798 203.736 269.799 204.161C269.799 204.443 269.854 204.722 269.962 204.982C270.07 205.242 270.229 205.479 270.428 205.678C270.627 205.877 270.864 206.035 271.125 206.142C271.385 206.25 271.664 206.305 271.946 206.305Z" fill="#39CCBC"/>
<path d="M289.526 206.841C291.007 206.841 292.208 205.64 292.208 204.159C292.208 202.677 291.007 201.476 289.526 201.476C288.045 201.476 286.844 202.677 286.844 204.159C286.844 205.64 288.045 206.841 289.526 206.841Z" fill="#39CCBC"/>
<path d="M307.104 207.379C307.74 207.379 308.362 207.19 308.891 206.837C309.42 206.483 309.832 205.981 310.076 205.393C310.319 204.805 310.383 204.158 310.259 203.534C310.135 202.91 309.828 202.337 309.379 201.887C308.929 201.437 308.355 201.131 307.731 201.006C307.107 200.882 306.46 200.946 305.872 201.189C305.285 201.433 304.782 201.845 304.429 202.374C304.075 202.903 303.886 203.525 303.886 204.162C303.886 205.015 304.225 205.833 304.829 206.437C305.432 207.04 306.25 207.379 307.104 207.379Z" fill="#39CCBC"/>
<path d="M324.668 207.864C325.398 207.864 326.111 207.647 326.718 207.242C327.324 206.836 327.797 206.26 328.077 205.586C328.356 204.912 328.429 204.17 328.287 203.454C328.144 202.739 327.793 202.081 327.277 201.565C326.761 201.049 326.103 200.698 325.388 200.556C324.672 200.413 323.93 200.486 323.256 200.766C322.582 201.045 322.006 201.518 321.6 202.124C321.195 202.731 320.978 203.444 320.978 204.174C320.978 205.153 321.367 206.091 322.059 206.783C322.751 207.475 323.689 207.864 324.668 207.864Z" fill="#39CCBC"/>
<path d="M342.26 208.351C343.09 208.352 343.901 208.106 344.592 207.646C345.282 207.185 345.82 206.53 346.138 205.763C346.456 204.997 346.54 204.153 346.378 203.339C346.216 202.525 345.817 201.777 345.23 201.19C344.643 200.603 343.895 200.203 343.081 200.042C342.267 199.88 341.423 199.963 340.656 200.281C339.89 200.599 339.235 201.137 338.774 201.828C338.313 202.518 338.068 203.33 338.068 204.16C338.069 205.271 338.511 206.337 339.297 207.122C340.083 207.908 341.148 208.35 342.26 208.351Z" fill="#39CCBC"/>
<path d="M359.841 208.835C362.424 208.835 364.519 206.741 364.519 204.157C364.519 201.573 362.424 199.479 359.841 199.479C357.257 199.479 355.163 201.573 355.163 204.157C355.163 206.741 357.257 208.835 359.841 208.835Z" fill="#39CCBC"/>
<path d="M192.837 221.791C192.85 221.791 192.864 221.786 192.873 221.776C192.883 221.766 192.889 221.753 192.889 221.739C192.889 221.732 192.887 221.726 192.885 221.72C192.882 221.714 192.878 221.708 192.873 221.704C192.868 221.699 192.863 221.696 192.856 221.693C192.85 221.691 192.843 221.69 192.837 221.691C192.824 221.691 192.812 221.696 192.803 221.705C192.793 221.714 192.788 221.726 192.788 221.739C192.788 221.746 192.789 221.752 192.791 221.759C192.793 221.765 192.797 221.771 192.801 221.776C192.806 221.781 192.811 221.784 192.817 221.787C192.823 221.79 192.83 221.791 192.837 221.791Z" fill="#39CCBC"/>
<path d="M210.417 222.128C210.521 222.128 210.62 222.087 210.694 222.014C210.767 221.941 210.808 221.841 210.808 221.737C210.803 221.637 210.759 221.544 210.686 221.475C210.613 221.406 210.517 221.368 210.417 221.368C210.317 221.368 210.221 221.406 210.148 221.475C210.075 221.544 210.032 221.637 210.026 221.737C210.026 221.841 210.067 221.941 210.141 222.014C210.214 222.087 210.313 222.128 210.417 222.128Z" fill="#39CCBC"/>
<path d="M228.004 222.567C228.112 222.567 228.22 222.546 228.321 222.504C228.421 222.462 228.513 222.401 228.589 222.324C228.666 222.247 228.727 222.155 228.768 222.054C228.81 221.954 228.831 221.846 228.83 221.737C228.83 221.629 228.809 221.521 228.767 221.421C228.726 221.321 228.665 221.229 228.588 221.153C228.511 221.076 228.42 221.015 228.32 220.974C228.22 220.932 228.112 220.911 228.004 220.911C227.895 220.91 227.787 220.931 227.686 220.972C227.586 221.014 227.494 221.075 227.417 221.151C227.34 221.228 227.279 221.319 227.237 221.42C227.195 221.52 227.173 221.628 227.173 221.737C227.173 221.957 227.261 222.168 227.417 222.324C227.572 222.48 227.783 222.567 228.004 222.567Z" fill="#39CCBC"/>
<path d="M245.574 223.006C245.911 223.006 246.234 222.872 246.472 222.634C246.71 222.396 246.843 222.073 246.843 221.737C246.842 221.401 246.708 221.079 246.47 220.842C246.232 220.604 245.91 220.471 245.574 220.471C245.239 220.472 244.917 220.606 244.68 220.843C244.443 221.08 244.31 221.401 244.309 221.737C244.309 222.073 244.442 222.395 244.679 222.633C244.916 222.871 245.238 223.005 245.574 223.006Z" fill="#39CCBC"/>
<path d="M263.154 223.493C263.392 223.504 263.628 223.467 263.851 223.384C264.073 223.3 264.276 223.173 264.448 223.009C264.62 222.845 264.756 222.648 264.85 222.429C264.943 222.211 264.991 221.976 264.991 221.739C264.991 221.501 264.943 221.267 264.85 221.048C264.756 220.83 264.62 220.633 264.448 220.469C264.276 220.305 264.073 220.177 263.851 220.094C263.628 220.011 263.392 219.974 263.154 219.985C262.703 220.005 262.277 220.199 261.965 220.526C261.653 220.853 261.479 221.287 261.479 221.739C261.479 222.191 261.653 222.625 261.965 222.952C262.277 223.279 262.703 223.472 263.154 223.493Z" fill="#39CCBC"/>
<path d="M280.734 223.98C281.178 223.98 281.611 223.849 281.98 223.602C282.349 223.356 282.637 223.006 282.806 222.596C282.976 222.186 283.02 221.735 282.934 221.3C282.847 220.865 282.634 220.465 282.32 220.151C282.006 219.837 281.607 219.624 281.171 219.537C280.736 219.451 280.285 219.495 279.875 219.665C279.466 219.835 279.115 220.122 278.869 220.491C278.622 220.86 278.491 221.294 278.491 221.737C278.491 222.032 278.549 222.324 278.661 222.596C278.774 222.868 278.939 223.115 279.148 223.323C279.356 223.532 279.603 223.697 279.875 223.81C280.148 223.922 280.439 223.98 280.734 223.98Z" fill="#39CCBC"/>
<path d="M298.315 224.468C298.855 224.468 299.383 224.308 299.832 224.008C300.281 223.708 300.631 223.281 300.837 222.783C301.044 222.284 301.098 221.735 300.993 221.205C300.887 220.676 300.627 220.189 300.245 219.807C299.864 219.425 299.377 219.165 298.848 219.06C298.318 218.955 297.769 219.009 297.27 219.215C296.771 219.422 296.345 219.772 296.045 220.221C295.745 220.67 295.585 221.198 295.585 221.738C295.584 222.096 295.655 222.452 295.792 222.783C295.929 223.115 296.13 223.416 296.383 223.669C296.637 223.923 296.938 224.124 297.27 224.261C297.601 224.398 297.956 224.468 298.315 224.468Z" fill="#39CCBC"/>
<path d="M315.892 224.955C316.528 224.955 317.15 224.767 317.679 224.413C318.208 224.06 318.621 223.557 318.864 222.969C319.108 222.382 319.171 221.735 319.047 221.111C318.923 220.487 318.617 219.913 318.167 219.463C317.717 219.013 317.144 218.707 316.52 218.583C315.895 218.459 315.249 218.522 314.661 218.766C314.073 219.009 313.57 219.422 313.217 219.951C312.863 220.48 312.675 221.102 312.675 221.738C312.674 222.161 312.757 222.579 312.919 222.97C313.08 223.361 313.317 223.715 313.616 224.014C313.915 224.313 314.27 224.55 314.66 224.712C315.051 224.873 315.469 224.956 315.892 224.955Z" fill="#39CCBC"/>
<path d="M333.47 225.394C334.193 225.394 334.9 225.18 335.502 224.778C336.103 224.376 336.571 223.805 336.848 223.137C337.125 222.469 337.197 221.734 337.056 221.025C336.915 220.315 336.567 219.664 336.056 219.153C335.544 218.641 334.893 218.293 334.184 218.152C333.474 218.011 332.739 218.083 332.071 218.36C331.403 218.637 330.832 219.105 330.43 219.707C330.028 220.308 329.814 221.015 329.814 221.738C329.814 222.708 330.199 223.638 330.885 224.323C331.571 225.009 332.501 225.394 333.47 225.394Z" fill="#39CCBC"/>
<path d="M351.05 225.784C353.285 225.784 355.097 223.972 355.097 221.737C355.097 219.502 353.285 217.69 351.05 217.69C348.815 217.69 347.002 219.502 347.002 221.737C347.002 223.972 348.815 225.784 351.05 225.784Z" fill="#39CCBC"/>
<path d="M201.629 239.418C201.655 239.417 201.679 239.406 201.697 239.387C201.715 239.369 201.725 239.344 201.725 239.318C201.725 239.293 201.715 239.268 201.697 239.25C201.679 239.232 201.654 239.222 201.629 239.222C201.603 239.222 201.578 239.232 201.56 239.25C201.541 239.268 201.53 239.292 201.529 239.318C201.529 239.344 201.54 239.37 201.558 239.388C201.577 239.407 201.602 239.418 201.629 239.418Z" fill="#39CCBC"/>
<path d="M219.204 239.759C219.32 239.759 219.432 239.713 219.514 239.631C219.596 239.548 219.643 239.437 219.643 239.32C219.643 239.204 219.596 239.092 219.514 239.01C219.432 238.927 219.32 238.881 219.204 238.881C219.091 238.886 218.984 238.934 218.905 239.015C218.826 239.096 218.781 239.204 218.779 239.317C218.778 239.431 218.822 239.542 218.901 239.624C218.981 239.707 219.089 239.755 219.204 239.759Z" fill="#39CCBC"/>
<path d="M236.786 240.196C237.019 240.195 237.242 240.102 237.406 239.938C237.571 239.773 237.664 239.551 237.665 239.318C237.664 239.085 237.571 238.863 237.406 238.698C237.242 238.534 237.019 238.441 236.786 238.44C236.554 238.441 236.331 238.534 236.167 238.698C236.002 238.863 235.909 239.085 235.908 239.318C235.909 239.551 236.002 239.773 236.167 239.938C236.331 240.102 236.554 240.195 236.786 240.196Z" fill="#39CCBC"/>
<path d="M254.366 240.635C254.714 240.633 255.047 240.493 255.293 240.246C255.538 240 255.676 239.666 255.676 239.318C255.676 239.145 255.642 238.973 255.575 238.814C255.509 238.654 255.412 238.509 255.29 238.386C255.168 238.264 255.022 238.167 254.863 238.101C254.703 238.035 254.532 238.001 254.359 238.001C254.186 238.001 254.014 238.035 253.855 238.101C253.695 238.167 253.55 238.264 253.427 238.386C253.305 238.509 253.208 238.654 253.142 238.814C253.076 238.973 253.041 239.145 253.041 239.318C253.041 239.491 253.076 239.663 253.142 239.823C253.209 239.984 253.307 240.129 253.43 240.252C253.553 240.374 253.699 240.471 253.86 240.537C254.02 240.602 254.192 240.636 254.366 240.635Z" fill="#39CCBC"/>
<path d="M271.945 241.074C272.292 241.074 272.632 240.971 272.921 240.778C273.21 240.585 273.435 240.31 273.568 239.989C273.701 239.669 273.735 239.315 273.668 238.975C273.6 238.634 273.433 238.321 273.187 238.076C272.941 237.83 272.628 237.663 272.288 237.595C271.947 237.527 271.594 237.562 271.273 237.695C270.952 237.828 270.678 238.053 270.485 238.342C270.292 238.631 270.189 238.97 270.189 239.317C270.189 239.783 270.374 240.23 270.703 240.559C271.033 240.889 271.479 241.074 271.945 241.074Z" fill="#39CCBC"/>
<path d="M289.522 241.512C289.955 241.513 290.379 241.385 290.74 241.145C291.102 240.906 291.383 240.564 291.551 240.164C291.718 239.764 291.763 239.323 291.68 238.898C291.597 238.472 291.39 238.081 291.085 237.773C290.78 237.465 290.391 237.254 289.966 237.167C289.542 237.08 289.101 237.12 288.699 237.283C288.297 237.447 287.953 237.725 287.709 238.084C287.466 238.442 287.334 238.865 287.33 239.299C287.328 239.588 287.383 239.875 287.492 240.144C287.601 240.412 287.762 240.656 287.965 240.862C288.169 241.067 288.411 241.231 288.679 241.342C288.946 241.454 289.232 241.512 289.522 241.512Z" fill="#39CCBC"/>
<path d="M307.102 241.953C307.623 241.953 308.132 241.799 308.565 241.509C308.998 241.22 309.336 240.808 309.535 240.327C309.735 239.846 309.787 239.316 309.685 238.805C309.584 238.294 309.333 237.825 308.964 237.456C308.596 237.088 308.127 236.837 307.616 236.735C307.105 236.634 306.575 236.686 306.094 236.885C305.612 237.085 305.201 237.422 304.911 237.855C304.622 238.289 304.467 238.798 304.467 239.319C304.467 240.018 304.745 240.688 305.239 241.182C305.733 241.676 306.403 241.953 307.102 241.953Z" fill="#39CCBC"/>
<path d="M324.668 242.39C325.276 242.39 325.87 242.21 326.375 241.872C326.881 241.534 327.274 241.054 327.507 240.493C327.74 239.931 327.801 239.313 327.682 238.717C327.563 238.121 327.271 237.573 326.841 237.143C326.411 236.714 325.863 236.421 325.267 236.302C324.671 236.184 324.053 236.245 323.492 236.477C322.93 236.71 322.45 237.104 322.112 237.609C321.775 238.115 321.594 238.709 321.594 239.317C321.594 240.132 321.918 240.913 322.495 241.49C323.071 242.066 323.853 242.39 324.668 242.39Z" fill="#39CCBC"/>
<path d="M342.26 242.779C342.944 242.779 343.614 242.576 344.183 242.196C344.752 241.815 345.195 241.275 345.457 240.642C345.719 240.01 345.788 239.314 345.654 238.643C345.521 237.972 345.191 237.355 344.707 236.871C344.223 236.387 343.606 236.057 342.935 235.924C342.264 235.79 341.568 235.859 340.936 236.121C340.303 236.383 339.763 236.826 339.383 237.395C339.002 237.965 338.799 238.634 338.799 239.318C338.799 240.236 339.164 241.116 339.813 241.765C340.462 242.414 341.342 242.779 342.26 242.779Z" fill="#39CCBC"/>
<path d="M359.839 243.081C360.581 243.081 361.306 242.86 361.923 242.448C362.54 242.036 363.021 241.45 363.305 240.764C363.589 240.079 363.663 239.324 363.519 238.596C363.374 237.868 363.016 237.2 362.492 236.675C361.967 236.15 361.298 235.793 360.571 235.648C359.843 235.503 359.088 235.578 358.403 235.862C357.717 236.146 357.131 236.627 356.719 237.244C356.306 237.861 356.086 238.586 356.086 239.328C356.086 240.323 356.482 241.278 357.185 241.982C357.889 242.685 358.843 243.081 359.839 243.081Z" fill="#39CCBC"/>
<path d="M210.416 256.994C210.441 256.994 210.465 256.984 210.483 256.966C210.501 256.948 210.511 256.924 210.511 256.898C210.512 256.885 210.51 256.872 210.505 256.86C210.501 256.848 210.494 256.837 210.485 256.828C210.476 256.819 210.465 256.811 210.453 256.806C210.441 256.801 210.428 256.799 210.416 256.799C210.403 256.799 210.39 256.801 210.378 256.806C210.366 256.811 210.355 256.819 210.346 256.828C210.337 256.837 210.33 256.848 210.326 256.86C210.321 256.872 210.319 256.885 210.32 256.898C210.32 256.924 210.33 256.948 210.348 256.966C210.366 256.984 210.39 256.994 210.416 256.994Z" fill="#39CCBC"/>
<path d="M228.003 257.385C228.132 257.385 228.256 257.333 228.348 257.242C228.439 257.151 228.49 257.027 228.49 256.898C228.49 256.768 228.439 256.644 228.348 256.553C228.256 256.462 228.132 256.411 228.003 256.411C227.874 256.411 227.75 256.462 227.659 256.553C227.568 256.644 227.516 256.768 227.516 256.898C227.516 257.027 227.568 257.151 227.659 257.242C227.75 257.333 227.874 257.385 228.003 257.385Z" fill="#39CCBC"/>
<path d="M245.573 257.777C245.806 257.777 246.029 257.684 246.194 257.519C246.359 257.355 246.451 257.131 246.451 256.899C246.451 256.666 246.359 256.442 246.194 256.278C246.029 256.113 245.806 256.02 245.573 256.02C245.341 256.021 245.118 256.114 244.955 256.279C244.791 256.444 244.699 256.666 244.699 256.899C244.699 257.131 244.791 257.354 244.955 257.518C245.118 257.683 245.341 257.776 245.573 257.777Z" fill="#39CCBC"/>
<path d="M264.423 256.883C264.426 256.183 263.861 255.612 263.16 255.609C262.459 255.605 261.888 256.171 261.885 256.872C261.882 257.573 262.447 258.144 263.148 258.147C263.849 258.15 264.42 257.584 264.423 256.883Z" fill="#39CCBC"/>
<path d="M280.733 258.601C281.071 258.601 281.401 258.501 281.682 258.313C281.963 258.125 282.182 257.858 282.311 257.546C282.44 257.234 282.474 256.89 282.408 256.559C282.342 256.227 282.178 255.923 281.939 255.684C281.7 255.445 281.395 255.283 281.064 255.217C280.732 255.152 280.388 255.186 280.076 255.316C279.764 255.446 279.498 255.665 279.31 255.947C279.123 256.228 279.024 256.559 279.024 256.897C279.024 257.121 279.069 257.343 279.154 257.55C279.24 257.757 279.366 257.945 279.525 258.103C279.684 258.262 279.872 258.387 280.079 258.473C280.286 258.558 280.508 258.602 280.733 258.601Z" fill="#39CCBC"/>
<path d="M298.315 258.994C298.729 258.994 299.134 258.871 299.479 258.641C299.824 258.411 300.092 258.084 300.251 257.701C300.409 257.318 300.451 256.896 300.37 256.49C300.289 256.083 300.09 255.71 299.796 255.417C299.503 255.124 299.13 254.924 298.724 254.843C298.317 254.763 297.896 254.804 297.513 254.963C297.13 255.121 296.802 255.39 296.572 255.734C296.342 256.079 296.219 256.484 296.219 256.899C296.219 257.455 296.44 257.988 296.833 258.381C297.226 258.774 297.759 258.994 298.315 258.994Z" fill="#39CCBC"/>
<path d="M315.894 259.38C317.268 259.38 318.381 258.267 318.381 256.894C318.381 255.52 317.268 254.407 315.894 254.407C314.521 254.407 313.408 255.52 313.408 256.894C313.408 258.267 314.521 259.38 315.894 259.38Z" fill="#39CCBC"/>
<path d="M333.471 259.72C335.032 259.72 336.298 258.455 336.298 256.894C336.298 255.334 335.032 254.068 333.471 254.068C331.911 254.068 330.645 255.334 330.645 256.894C330.645 258.455 331.911 259.72 333.471 259.72Z" fill="#39CCBC"/>
<path d="M351.052 260.015C351.669 260.015 352.273 259.832 352.786 259.489C353.299 259.146 353.7 258.658 353.936 258.087C354.172 257.517 354.233 256.889 354.113 256.284C353.992 255.678 353.694 255.122 353.257 254.686C352.821 254.249 352.264 253.952 351.658 253.832C351.053 253.712 350.425 253.774 349.855 254.011C349.284 254.248 348.797 254.649 348.455 255.162C348.112 255.676 347.93 256.28 347.93 256.898C347.93 257.307 348.011 257.713 348.168 258.091C348.325 258.47 348.555 258.814 348.845 259.103C349.135 259.393 349.479 259.622 349.857 259.779C350.236 259.935 350.642 260.016 351.052 260.015Z" fill="#39CCBC"/>
<path d="M219.206 274.575C219.232 274.575 219.256 274.565 219.275 274.547C219.294 274.529 219.304 274.504 219.305 274.479C219.305 274.452 219.295 274.427 219.276 274.408C219.258 274.39 219.232 274.379 219.206 274.379C219.18 274.38 219.156 274.391 219.138 274.41C219.12 274.428 219.11 274.453 219.11 274.479C219.11 274.504 219.12 274.529 219.138 274.547C219.156 274.565 219.18 274.575 219.206 274.575Z" fill="#39CCBC"/>
<path d="M236.785 274.914C237.027 274.914 237.224 274.718 237.224 274.475C237.224 274.233 237.027 274.036 236.785 274.036C236.542 274.036 236.346 274.233 236.346 274.475C236.346 274.718 236.542 274.914 236.785 274.914Z" fill="#39CCBC"/>
<path d="M254.364 275.305C254.583 275.305 254.794 275.218 254.949 275.063C255.104 274.908 255.191 274.698 255.191 274.478C255.191 274.37 255.17 274.262 255.129 274.161C255.088 274.06 255.027 273.969 254.95 273.892C254.873 273.815 254.782 273.753 254.681 273.712C254.581 273.67 254.473 273.648 254.364 273.648C254.144 273.648 253.933 273.736 253.777 273.891C253.622 274.047 253.534 274.258 253.534 274.478C253.534 274.587 253.556 274.695 253.597 274.796C253.639 274.896 253.7 274.987 253.778 275.064C253.855 275.141 253.946 275.202 254.047 275.243C254.148 275.284 254.255 275.305 254.364 275.305Z" fill="#39CCBC"/>
<path d="M271.946 275.695C272.188 275.695 272.424 275.623 272.625 275.488C272.826 275.354 272.982 275.163 273.075 274.94C273.167 274.716 273.191 274.471 273.143 274.234C273.096 273.997 272.979 273.779 272.808 273.608C272.637 273.438 272.419 273.322 272.182 273.275C271.945 273.228 271.699 273.253 271.476 273.346C271.253 273.439 271.062 273.596 270.929 273.798C270.795 273.999 270.724 274.235 270.725 274.477C270.725 274.637 270.756 274.796 270.818 274.944C270.879 275.092 270.969 275.226 271.083 275.339C271.196 275.452 271.331 275.542 271.479 275.603C271.627 275.664 271.786 275.695 271.946 275.695Z" fill="#39CCBC"/>
<path d="M289.523 276.035C289.832 276.035 290.134 275.943 290.391 275.771C290.647 275.6 290.847 275.356 290.965 275.07C291.083 274.785 291.114 274.471 291.054 274.168C290.993 273.865 290.844 273.587 290.625 273.369C290.407 273.151 290.128 273.003 289.825 272.943C289.522 272.883 289.208 272.915 288.923 273.033C288.638 273.152 288.395 273.353 288.224 273.61C288.053 273.867 287.962 274.169 287.962 274.478C287.962 274.682 288.003 274.885 288.081 275.074C288.16 275.264 288.275 275.435 288.42 275.58C288.565 275.725 288.737 275.839 288.926 275.917C289.116 275.995 289.318 276.035 289.523 276.035Z" fill="#39CCBC"/>
<path d="M307.102 276.375C308.152 276.375 309.002 275.524 309.002 274.475C309.002 273.425 308.152 272.575 307.102 272.575C306.053 272.575 305.202 273.425 305.202 274.475C305.202 275.524 306.053 276.375 307.102 276.375Z" fill="#39CCBC"/>
<path d="M324.711 276.714C325.95 276.711 326.952 275.704 326.949 274.465C326.946 273.226 325.939 272.225 324.7 272.228C323.461 272.231 322.459 273.238 322.462 274.477C322.466 275.716 323.473 276.718 324.711 276.714Z" fill="#39CCBC"/>
<path d="M342.259 276.961C342.752 276.965 343.235 276.823 343.647 276.552C344.059 276.282 344.381 275.895 344.573 275.44C344.764 274.986 344.817 274.485 344.723 274.001C344.629 273.517 344.394 273.072 344.047 272.722C343.699 272.373 343.256 272.134 342.773 272.037C342.289 271.939 341.788 271.988 341.333 272.176C340.877 272.364 340.488 272.683 340.214 273.093C339.94 273.503 339.794 273.985 339.795 274.478C339.795 275.133 340.054 275.762 340.516 276.227C340.977 276.692 341.604 276.956 342.259 276.961Z" fill="#39CCBC"/>
<path d="M359.839 277.204C361.347 277.204 362.569 275.981 362.569 274.473C362.569 272.966 361.347 271.743 359.839 271.743C358.331 271.743 357.109 272.966 357.109 274.473C357.109 275.981 358.331 277.204 359.839 277.204Z" fill="#39CCBC"/>
<path d="M228.004 292.107C228.011 292.107 228.017 292.106 228.023 292.103C228.03 292.101 228.035 292.097 228.04 292.092C228.044 292.087 228.048 292.081 228.05 292.075C228.052 292.069 228.053 292.062 228.052 292.055C228.052 292.042 228.047 292.03 228.038 292.021C228.029 292.012 228.017 292.007 228.004 292.007C227.991 292.007 227.979 292.012 227.97 292.021C227.961 292.03 227.956 292.042 227.956 292.055C227.955 292.062 227.956 292.069 227.958 292.075C227.961 292.081 227.964 292.087 227.969 292.092C227.973 292.097 227.979 292.101 227.985 292.103C227.991 292.106 227.997 292.107 228.004 292.107Z" fill="#39CCBC"/>
<path d="M245.574 292.398C245.665 292.398 245.752 292.362 245.817 292.298C245.881 292.233 245.917 292.146 245.917 292.055C245.917 292.01 245.908 291.966 245.891 291.924C245.874 291.883 245.848 291.845 245.816 291.814C245.784 291.782 245.747 291.757 245.705 291.74C245.663 291.723 245.619 291.715 245.574 291.715C245.484 291.715 245.398 291.751 245.334 291.815C245.27 291.879 245.234 291.965 245.234 292.055C245.234 292.145 245.27 292.232 245.334 292.296C245.397 292.36 245.484 292.397 245.574 292.398Z" fill="#39CCBC"/>
<path d="M263.155 292.736C263.336 292.736 263.509 292.664 263.637 292.536C263.765 292.408 263.837 292.234 263.837 292.053C263.837 291.872 263.765 291.698 263.637 291.57C263.509 291.442 263.336 291.371 263.155 291.371C262.974 291.371 262.8 291.442 262.672 291.57C262.544 291.698 262.472 291.872 262.472 292.053C262.472 292.234 262.544 292.408 262.672 292.536C262.8 292.664 262.974 292.736 263.155 292.736Z" fill="#39CCBC"/>
<path d="M280.734 293.079C280.937 293.079 281.135 293.019 281.303 292.906C281.472 292.794 281.604 292.633 281.681 292.446C281.759 292.258 281.779 292.052 281.74 291.853C281.7 291.654 281.602 291.472 281.459 291.328C281.315 291.185 281.133 291.087 280.934 291.047C280.735 291.008 280.529 291.028 280.341 291.106C280.154 291.183 279.994 291.315 279.881 291.484C279.768 291.652 279.708 291.851 279.708 292.053C279.707 292.188 279.734 292.322 279.785 292.446C279.836 292.571 279.912 292.684 280.007 292.78C280.103 292.875 280.216 292.951 280.341 293.002C280.465 293.053 280.599 293.08 280.734 293.079Z" fill="#39CCBC"/>
<path d="M298.315 293.419C298.585 293.419 298.849 293.339 299.073 293.189C299.298 293.039 299.473 292.826 299.576 292.577C299.679 292.327 299.707 292.053 299.654 291.788C299.601 291.523 299.471 291.28 299.28 291.089C299.089 290.898 298.846 290.768 298.581 290.715C298.317 290.663 298.042 290.69 297.793 290.793C297.543 290.896 297.33 291.071 297.18 291.296C297.03 291.52 296.95 291.784 296.95 292.054C296.95 292.416 297.094 292.763 297.35 293.019C297.606 293.275 297.953 293.419 298.315 293.419Z" fill="#39CCBC"/>
<path d="M315.889 293.714C316.218 293.715 316.539 293.618 316.813 293.436C317.086 293.254 317.3 292.995 317.426 292.692C317.552 292.388 317.586 292.054 317.522 291.732C317.458 291.41 317.3 291.114 317.068 290.881C316.836 290.648 316.54 290.49 316.218 290.426C315.896 290.361 315.562 290.394 315.259 290.519C314.955 290.645 314.695 290.858 314.513 291.131C314.33 291.404 314.233 291.725 314.233 292.054C314.234 292.493 314.409 292.914 314.719 293.225C315.029 293.536 315.45 293.712 315.889 293.714Z" fill="#39CCBC"/>
<path d="M333.471 293.959C333.848 293.959 334.216 293.848 334.53 293.64C334.844 293.431 335.088 293.134 335.233 292.786C335.377 292.438 335.416 292.055 335.343 291.686C335.27 291.316 335.089 290.977 334.822 290.71C334.556 290.443 334.217 290.262 333.848 290.188C333.478 290.114 333.095 290.152 332.747 290.296C332.399 290.44 332.102 290.684 331.892 290.997C331.683 291.31 331.571 291.678 331.571 292.055C331.571 292.305 331.62 292.552 331.715 292.783C331.81 293.014 331.95 293.224 332.126 293.401C332.303 293.578 332.513 293.718 332.743 293.814C332.974 293.909 333.221 293.959 333.471 293.959Z" fill="#39CCBC"/>
<path d="M351.051 294.201C351.475 294.201 351.891 294.075 352.244 293.84C352.597 293.604 352.872 293.268 353.034 292.876C353.197 292.484 353.24 292.052 353.157 291.635C353.074 291.219 352.869 290.836 352.569 290.536C352.269 290.236 351.886 290.031 351.47 289.948C351.053 289.865 350.621 289.908 350.229 290.07C349.837 290.233 349.501 290.508 349.265 290.861C349.029 291.214 348.903 291.629 348.903 292.054C348.903 292.624 349.13 293.17 349.532 293.573C349.935 293.975 350.481 294.201 351.051 294.201Z" fill="#39CCBC"/>
<path d="M236.786 309.684C236.799 309.684 236.811 309.679 236.82 309.67C236.829 309.661 236.834 309.649 236.834 309.636C236.834 309.623 236.829 309.611 236.82 309.602C236.811 309.593 236.799 309.588 236.786 309.588C236.773 309.588 236.761 309.593 236.752 309.602C236.743 309.611 236.738 309.623 236.738 309.636C236.738 309.649 236.743 309.661 236.752 309.67C236.761 309.679 236.773 309.684 236.786 309.684Z" fill="#39CCBC"/>
<path d="M254.365 309.88C254.429 309.879 254.49 309.853 254.536 309.807C254.581 309.762 254.607 309.7 254.608 309.636C254.607 309.572 254.581 309.51 254.536 309.465C254.49 309.419 254.429 309.394 254.365 309.393C254.3 309.393 254.238 309.418 254.193 309.464C254.147 309.51 254.121 309.571 254.121 309.636C254.121 309.701 254.147 309.763 254.193 309.808C254.238 309.854 254.3 309.88 254.365 309.88Z" fill="#39CCBC"/>
<path d="M271.945 310.169C272.051 310.168 272.154 310.136 272.241 310.077C272.329 310.018 272.397 309.934 272.437 309.836C272.476 309.738 272.487 309.631 272.465 309.527C272.444 309.424 272.393 309.329 272.318 309.254C272.243 309.18 272.148 309.129 272.044 309.109C271.941 309.089 271.833 309.099 271.736 309.14C271.638 309.181 271.555 309.249 271.496 309.337C271.438 309.425 271.406 309.528 271.406 309.634C271.406 309.705 271.42 309.774 271.447 309.84C271.474 309.905 271.514 309.964 271.564 310.014C271.614 310.063 271.674 310.103 271.739 310.129C271.804 310.156 271.874 310.169 271.945 310.169Z" fill="#39CCBC"/>
<path d="M289.522 310.464C289.686 310.464 289.847 310.416 289.984 310.326C290.121 310.235 290.228 310.105 290.291 309.954C290.355 309.802 290.372 309.635 290.34 309.474C290.309 309.313 290.23 309.164 290.114 309.048C289.998 308.931 289.85 308.852 289.689 308.82C289.528 308.787 289.361 308.803 289.209 308.866C289.057 308.929 288.927 309.035 288.836 309.172C288.744 309.309 288.695 309.469 288.695 309.633C288.695 309.853 288.782 310.064 288.937 310.219C289.092 310.375 289.302 310.463 289.522 310.464Z" fill="#39CCBC"/>
<path d="M307.102 310.756C307.321 310.756 307.534 310.691 307.717 310.57C307.899 310.448 308.04 310.275 308.124 310.073C308.208 309.871 308.23 309.648 308.187 309.434C308.144 309.219 308.039 309.022 307.884 308.867C307.729 308.712 307.532 308.607 307.318 308.564C307.103 308.521 306.88 308.543 306.678 308.627C306.476 308.711 306.303 308.853 306.181 309.035C306.06 309.217 305.995 309.431 305.995 309.649C305.995 309.943 306.111 310.225 306.319 310.432C306.527 310.64 306.808 310.756 307.102 310.756Z" fill="#39CCBC"/>
<path d="M324.682 311C325.436 311 326.047 310.389 326.047 309.635C326.047 308.881 325.436 308.27 324.682 308.27C323.928 308.27 323.317 308.881 323.317 309.635C323.317 310.389 323.928 311 324.682 311Z" fill="#39CCBC"/>
<path d="M342.259 311.196C342.568 311.197 342.87 311.106 343.127 310.935C343.384 310.764 343.585 310.52 343.704 310.235C343.822 309.95 343.854 309.636 343.794 309.333C343.734 309.03 343.586 308.752 343.368 308.533C343.15 308.314 342.872 308.165 342.569 308.105C342.266 308.044 341.952 308.075 341.667 308.193C341.381 308.311 341.137 308.511 340.966 308.768C340.794 309.025 340.702 309.326 340.702 309.635C340.702 310.049 340.866 310.445 341.158 310.737C341.45 311.03 341.846 311.195 342.259 311.196Z" fill="#39CCBC"/>
<path d="M359.84 311.336C360.177 311.336 360.506 311.236 360.787 311.049C361.067 310.861 361.285 310.595 361.414 310.284C361.543 309.972 361.577 309.629 361.511 309.299C361.446 308.968 361.283 308.664 361.045 308.426C360.807 308.188 360.503 308.025 360.172 307.96C359.841 307.894 359.499 307.928 359.187 308.057C358.876 308.186 358.61 308.404 358.422 308.684C358.235 308.965 358.135 309.294 358.135 309.631C358.136 310.083 358.316 310.516 358.635 310.836C358.955 311.155 359.388 311.335 359.84 311.336Z" fill="#39CCBC"/>
<path d="M263.152 327.308C263.205 327.308 263.248 327.265 263.247 327.212C263.247 327.159 263.204 327.116 263.151 327.117C263.098 327.117 263.055 327.16 263.056 327.213C263.056 327.266 263.099 327.309 263.152 327.308Z" fill="#39CCBC"/>
<path d="M280.733 327.569C280.818 327.56 280.896 327.521 280.953 327.458C281.009 327.395 281.041 327.313 281.041 327.228C281.041 327.143 281.009 327.061 280.953 326.998C280.896 326.935 280.818 326.896 280.733 326.887C280.685 326.882 280.637 326.887 280.591 326.902C280.546 326.917 280.504 326.941 280.468 326.973C280.432 327.005 280.404 327.045 280.384 327.089C280.365 327.132 280.355 327.18 280.355 327.228C280.355 327.276 280.365 327.324 280.384 327.367C280.404 327.411 280.432 327.451 280.468 327.483C280.504 327.515 280.546 327.539 280.591 327.554C280.637 327.569 280.685 327.574 280.733 327.569Z" fill="#39CCBC"/>
<path d="M298.314 327.797C298.429 327.799 298.543 327.766 298.64 327.703C298.737 327.64 298.814 327.549 298.86 327.443C298.905 327.336 298.919 327.219 298.898 327.105C298.877 326.991 298.823 326.886 298.742 326.803C298.661 326.719 298.558 326.662 298.445 326.637C298.331 326.613 298.213 326.623 298.106 326.665C297.998 326.708 297.905 326.781 297.839 326.876C297.773 326.971 297.736 327.084 297.734 327.2C297.732 327.277 297.746 327.354 297.774 327.426C297.802 327.499 297.844 327.564 297.898 327.62C297.952 327.676 298.017 327.72 298.088 327.751C298.159 327.781 298.236 327.797 298.314 327.797Z" fill="#39CCBC"/>
<path d="M315.894 327.99C316.324 327.99 316.672 327.642 316.672 327.212C316.672 326.782 316.324 326.433 315.894 326.433C315.464 326.433 315.116 326.782 315.116 327.212C315.116 327.642 315.464 327.99 315.894 327.99Z" fill="#39CCBC"/>
<path d="M333.471 328.19C333.665 328.19 333.854 328.133 334.016 328.026C334.177 327.919 334.303 327.766 334.377 327.588C334.452 327.409 334.471 327.212 334.434 327.022C334.396 326.832 334.303 326.657 334.166 326.52C334.029 326.384 333.855 326.29 333.665 326.253C333.475 326.215 333.278 326.235 333.099 326.309C332.92 326.384 332.767 326.51 332.66 326.671C332.553 326.832 332.496 327.022 332.497 327.216C332.497 327.474 332.6 327.722 332.782 327.904C332.965 328.087 333.213 328.19 333.471 328.19Z" fill="#39CCBC"/>
<path d="M351.05 328.384C351.281 328.384 351.508 328.316 351.7 328.187C351.892 328.059 352.042 327.876 352.131 327.662C352.219 327.449 352.242 327.214 352.197 326.987C352.152 326.76 352.041 326.551 351.877 326.388C351.714 326.224 351.505 326.113 351.278 326.068C351.051 326.023 350.816 326.046 350.603 326.134C350.389 326.223 350.206 326.373 350.078 326.565C349.949 326.757 349.881 326.983 349.881 327.215C349.881 327.525 350.004 327.822 350.223 328.042C350.442 328.261 350.74 328.384 351.05 328.384Z" fill="#39CCBC"/>
<path d="M289.523 344.911C289.538 344.914 289.552 344.914 289.567 344.91C289.581 344.906 289.594 344.9 289.606 344.89C289.617 344.881 289.626 344.869 289.632 344.856C289.639 344.843 289.642 344.828 289.642 344.813C289.642 344.799 289.639 344.784 289.632 344.771C289.626 344.758 289.617 344.746 289.606 344.737C289.594 344.727 289.581 344.721 289.567 344.717C289.552 344.713 289.538 344.713 289.523 344.716C289.5 344.72 289.48 344.732 289.465 344.75C289.451 344.768 289.443 344.79 289.443 344.813C289.443 344.837 289.451 344.859 289.465 344.877C289.48 344.895 289.5 344.907 289.523 344.911Z" fill="#39CCBC"/>
<path d="M307.103 345.087C307.162 345.087 307.219 345.071 307.268 345.039C307.317 345.007 307.356 344.961 307.379 344.907C307.401 344.853 307.408 344.794 307.397 344.736C307.386 344.679 307.358 344.626 307.317 344.584C307.276 344.542 307.223 344.514 307.166 344.502C307.109 344.491 307.049 344.496 306.995 344.518C306.941 344.541 306.894 344.578 306.862 344.627C306.829 344.676 306.812 344.733 306.812 344.791C306.811 344.83 306.818 344.868 306.833 344.904C306.847 344.94 306.869 344.972 306.896 345C306.923 345.027 306.955 345.049 306.991 345.064C307.026 345.079 307.065 345.087 307.103 345.087Z" fill="#39CCBC"/>
<path d="M324.668 345.279C324.765 345.279 324.86 345.251 324.942 345.198C325.023 345.144 325.086 345.068 325.124 344.978C325.162 344.889 325.172 344.79 325.153 344.694C325.135 344.599 325.088 344.511 325.02 344.442C324.951 344.373 324.864 344.326 324.769 344.307C324.673 344.288 324.575 344.297 324.485 344.334C324.395 344.371 324.318 344.434 324.264 344.515C324.21 344.596 324.181 344.691 324.181 344.788C324.181 344.917 324.232 345.042 324.323 345.134C324.415 345.225 324.538 345.278 324.668 345.279Z" fill="#39CCBC"/>
<path d="M342.259 345.427C342.385 345.427 342.508 345.391 342.613 345.322C342.717 345.252 342.799 345.153 342.848 345.038C342.897 344.922 342.91 344.794 342.886 344.671C342.861 344.547 342.801 344.434 342.713 344.345C342.624 344.256 342.511 344.195 342.388 344.17C342.265 344.145 342.137 344.158 342.021 344.206C341.905 344.253 341.805 344.335 341.735 344.439C341.665 344.544 341.628 344.667 341.628 344.792C341.628 344.96 341.694 345.121 341.813 345.24C341.931 345.358 342.091 345.426 342.259 345.427Z" fill="#39CCBC"/>
</g>
</g>
</svg>
