<svg width="1332" height="763" viewBox="0 0 1332 763" fill="none" xmlns="http://www.w3.org/2000/svg">
<rect width="1332" height="763" fill="#00100F"/>
<path d="M305.239 174L294.977 137.636H302.061L308.613 164.359H308.95L315.946 137.636H322.391L329.405 164.376H329.724L336.276 137.636H343.361L333.098 174H326.599L319.32 148.485H319.036L311.738 174H305.239ZM356.935 174.533C354.201 174.533 351.839 173.964 349.85 172.828C347.874 171.68 346.353 170.058 345.287 167.963C344.222 165.856 343.689 163.376 343.689 160.523C343.689 157.718 344.222 155.256 345.287 153.137C346.364 151.006 347.868 149.349 349.797 148.165C351.727 146.97 353.993 146.372 356.598 146.372C358.279 146.372 359.865 146.644 361.356 147.189C362.859 147.722 364.185 148.55 365.333 149.675C366.493 150.799 367.405 152.232 368.068 153.972C368.731 155.7 369.062 157.759 369.062 160.151V162.121H346.708V157.789H362.901C362.889 156.558 362.623 155.463 362.102 154.504C361.581 153.534 360.853 152.77 359.918 152.214C358.995 151.657 357.917 151.379 356.686 151.379C355.373 151.379 354.218 151.699 353.224 152.338C352.23 152.965 351.454 153.794 350.898 154.824C350.354 155.842 350.075 156.96 350.064 158.18V161.962C350.064 163.548 350.354 164.909 350.934 166.045C351.514 167.17 352.324 168.034 353.366 168.638C354.408 169.23 355.627 169.526 357.024 169.526C357.959 169.526 358.805 169.395 359.563 169.135C360.32 168.863 360.977 168.466 361.534 167.945C362.09 167.424 362.51 166.779 362.794 166.01L368.796 166.685C368.417 168.271 367.695 169.656 366.63 170.839C365.576 172.011 364.227 172.923 362.581 173.574C360.936 174.213 359.054 174.533 356.935 174.533ZM385.588 143.158V137.636H414.601V143.158H403.362V174H396.828V143.158H385.588ZM426.338 158.02V174H419.91V137.636H426.195V151.362H426.515C427.154 149.823 428.143 148.609 429.48 147.722C430.83 146.822 432.546 146.372 434.629 146.372C436.523 146.372 438.175 146.769 439.583 147.562C440.992 148.355 442.081 149.515 442.85 151.042C443.632 152.569 444.022 154.433 444.022 156.635V174H437.595V157.629C437.595 155.795 437.121 154.368 436.174 153.35C435.239 152.32 433.925 151.805 432.232 151.805C431.096 151.805 430.078 152.054 429.178 152.551C428.291 153.036 427.592 153.741 427.083 154.664C426.586 155.587 426.338 156.706 426.338 158.02ZM450.574 174V146.727H457.002V174H450.574ZM453.806 142.857C452.788 142.857 451.912 142.519 451.178 141.844C450.444 141.158 450.077 140.335 450.077 139.376C450.077 138.406 450.444 137.583 451.178 136.908C451.912 136.222 452.788 135.879 453.806 135.879C454.835 135.879 455.711 136.222 456.433 136.908C457.167 137.583 457.534 138.406 457.534 139.376C457.534 140.335 457.167 141.158 456.433 141.844C455.711 142.519 454.835 142.857 453.806 142.857ZM470.039 158.02V174H463.611V146.727H469.755V151.362H470.074C470.702 149.835 471.702 148.621 473.075 147.722C474.46 146.822 476.17 146.372 478.206 146.372C480.088 146.372 481.728 146.775 483.125 147.58C484.533 148.384 485.622 149.55 486.392 151.077C487.173 152.604 487.558 154.457 487.546 156.635V174H481.118V157.629C481.118 155.806 480.645 154.38 479.698 153.35C478.763 152.32 477.467 151.805 475.809 151.805C474.685 151.805 473.685 152.054 472.809 152.551C471.944 153.036 471.264 153.741 470.767 154.664C470.281 155.587 470.039 156.706 470.039 158.02ZM499.939 165.442L499.922 157.683H500.951L510.752 146.727H518.263L506.207 160.151H504.875L499.939 165.442ZM494.08 174V137.636H500.507V174H494.08ZM511.196 174L502.319 161.589L506.651 157.061L518.885 174H511.196ZM535.233 174V137.636H558.884V143.158H541.82V153.031H557.659V158.553H541.82V168.478H559.026V174H535.233ZM575.441 174.479C573.298 174.479 571.381 173.929 569.688 172.828C567.995 171.727 566.658 170.129 565.675 168.034C564.693 165.939 564.202 163.394 564.202 160.399C564.202 157.369 564.699 154.812 565.693 152.729C566.699 150.634 568.055 149.053 569.759 147.988C571.464 146.911 573.363 146.372 575.459 146.372C577.057 146.372 578.371 146.644 579.4 147.189C580.43 147.722 581.247 148.367 581.851 149.124C582.454 149.87 582.922 150.574 583.253 151.237H583.52V137.636H589.965V174H583.644V169.703H583.253C582.922 170.366 582.443 171.07 581.815 171.816C581.188 172.55 580.359 173.177 579.329 173.698C578.3 174.219 577.003 174.479 575.441 174.479ZM577.234 169.206C578.595 169.206 579.756 168.839 580.714 168.105C581.673 167.359 582.401 166.324 582.898 164.998C583.395 163.672 583.644 162.127 583.644 160.364C583.644 158.6 583.395 157.067 582.898 155.765C582.413 154.463 581.691 153.451 580.732 152.729C579.785 152.007 578.619 151.646 577.234 151.646C575.802 151.646 574.606 152.018 573.648 152.764C572.689 153.51 571.967 154.54 571.481 155.854C570.996 157.168 570.753 158.671 570.753 160.364C570.753 162.068 570.996 163.589 571.481 164.927C571.979 166.253 572.706 167.3 573.665 168.07C574.636 168.827 575.826 169.206 577.234 169.206ZM614.197 162.53V146.727H620.625V174H614.392V169.153H614.108C613.493 170.68 612.481 171.929 611.072 172.899C609.675 173.87 607.953 174.355 605.905 174.355C604.118 174.355 602.538 173.959 601.164 173.165C599.803 172.361 598.738 171.195 597.968 169.668C597.199 168.129 596.814 166.27 596.814 164.092V146.727H603.242V163.098C603.242 164.826 603.715 166.199 604.662 167.217C605.609 168.235 606.852 168.744 608.391 168.744C609.338 168.744 610.255 168.513 611.143 168.052C612.031 167.59 612.759 166.904 613.327 165.992C613.907 165.069 614.197 163.915 614.197 162.53ZM639.131 174.533C636.408 174.533 634.07 173.935 632.117 172.739C630.176 171.544 628.678 169.893 627.625 167.786C626.583 165.667 626.062 163.228 626.062 160.47C626.062 157.7 626.595 155.256 627.66 153.137C628.726 151.006 630.229 149.349 632.17 148.165C634.123 146.97 636.432 146.372 639.095 146.372C641.309 146.372 643.268 146.781 644.972 147.597C646.689 148.402 648.056 149.545 649.074 151.024C650.092 152.492 650.672 154.208 650.814 156.173H644.67C644.422 154.859 643.83 153.764 642.895 152.888C641.971 152.001 640.734 151.557 639.184 151.557C637.87 151.557 636.716 151.912 635.721 152.622C634.727 153.321 633.952 154.327 633.395 155.641C632.851 156.955 632.579 158.529 632.579 160.364C632.579 162.222 632.851 163.82 633.395 165.158C633.94 166.483 634.703 167.507 635.686 168.229C636.68 168.94 637.846 169.295 639.184 169.295C640.131 169.295 640.977 169.117 641.723 168.762C642.48 168.395 643.114 167.868 643.623 167.182C644.132 166.495 644.481 165.661 644.67 164.678H650.814C650.66 166.608 650.092 168.318 649.109 169.81C648.127 171.289 646.789 172.449 645.096 173.29C643.404 174.118 641.415 174.533 639.131 174.533ZM663.94 174.55C662.211 174.55 660.655 174.243 659.27 173.627C657.897 173 656.808 172.076 656.003 170.857C655.21 169.638 654.813 168.135 654.813 166.347C654.813 164.808 655.097 163.536 655.665 162.53C656.234 161.524 657.009 160.719 657.991 160.115C658.974 159.511 660.081 159.056 661.312 158.748C662.555 158.428 663.839 158.197 665.165 158.055C666.763 157.89 668.059 157.742 669.053 157.612C670.048 157.469 670.77 157.256 671.219 156.972C671.681 156.676 671.912 156.221 671.912 155.605V155.499C671.912 154.161 671.515 153.125 670.722 152.391C669.929 151.657 668.787 151.29 667.295 151.29C665.721 151.29 664.472 151.634 663.549 152.32C662.638 153.007 662.022 153.818 661.702 154.753L655.701 153.901C656.174 152.243 656.956 150.858 658.045 149.746C659.134 148.621 660.465 147.781 662.04 147.224C663.614 146.656 665.354 146.372 667.26 146.372C668.574 146.372 669.882 146.526 671.184 146.834C672.486 147.142 673.676 147.651 674.753 148.361C675.83 149.059 676.694 150.012 677.345 151.219C678.008 152.427 678.339 153.936 678.339 155.747V174H672.161V170.254H671.947C671.557 171.011 671.006 171.721 670.296 172.384C669.598 173.035 668.716 173.562 667.651 173.964C666.597 174.355 665.36 174.55 663.94 174.55ZM665.609 169.827C666.899 169.827 668.018 169.573 668.964 169.064C669.911 168.543 670.639 167.857 671.148 167.004C671.669 166.152 671.93 165.223 671.93 164.217V161.003C671.728 161.169 671.385 161.322 670.9 161.464C670.426 161.607 669.894 161.731 669.302 161.837C668.71 161.944 668.124 162.039 667.544 162.121C666.964 162.204 666.461 162.275 666.035 162.335C665.076 162.465 664.218 162.678 663.46 162.974C662.703 163.27 662.105 163.684 661.667 164.217C661.229 164.737 661.01 165.412 661.01 166.241C661.01 167.424 661.442 168.318 662.306 168.922C663.17 169.526 664.271 169.827 665.609 169.827ZM698.421 146.727V151.699H682.743V146.727H698.421ZM686.614 140.193H693.041V165.797C693.041 166.661 693.171 167.324 693.432 167.786C693.704 168.235 694.059 168.543 694.497 168.709C694.935 168.875 695.42 168.957 695.953 168.957C696.356 168.957 696.723 168.928 697.054 168.869C697.397 168.809 697.658 168.756 697.835 168.709L698.918 173.734C698.575 173.852 698.084 173.982 697.445 174.124C696.817 174.266 696.048 174.349 695.136 174.373C693.527 174.42 692.076 174.178 690.786 173.645C689.496 173.1 688.472 172.26 687.714 171.124C686.969 169.987 686.602 168.567 686.614 166.862V140.193ZM703.797 174V146.727H710.224V174H703.797ZM707.028 142.857C706.01 142.857 705.134 142.519 704.4 141.844C703.666 141.158 703.3 140.335 703.3 139.376C703.3 138.406 703.666 137.583 704.4 136.908C705.134 136.222 706.01 135.879 707.028 135.879C708.058 135.879 708.934 136.222 709.656 136.908C710.39 137.583 710.757 138.406 710.757 139.376C710.757 140.335 710.39 141.158 709.656 141.844C708.934 142.519 708.058 142.857 707.028 142.857ZM728.73 174.533C726.067 174.533 723.759 173.947 721.805 172.775C719.852 171.603 718.337 169.964 717.26 167.857C716.195 165.75 715.662 163.287 715.662 160.47C715.662 157.653 716.195 155.185 717.26 153.066C718.337 150.947 719.852 149.302 721.805 148.13C723.759 146.958 726.067 146.372 728.73 146.372C731.393 146.372 733.702 146.958 735.655 148.13C737.608 149.302 739.117 150.947 740.183 153.066C741.26 155.185 741.798 157.653 741.798 160.47C741.798 163.287 741.26 165.75 740.183 167.857C739.117 169.964 737.608 171.603 735.655 172.775C733.702 173.947 731.393 174.533 728.73 174.533ZM728.766 169.384C730.21 169.384 731.417 168.987 732.388 168.194C733.358 167.389 734.08 166.312 734.554 164.962C735.039 163.613 735.282 162.11 735.282 160.452C735.282 158.783 735.039 157.274 734.554 155.925C734.08 154.563 733.358 153.48 732.388 152.675C731.417 151.871 730.21 151.468 728.766 151.468C727.286 151.468 726.055 151.871 725.072 152.675C724.102 153.48 723.374 154.563 722.888 155.925C722.415 157.274 722.178 158.783 722.178 160.452C722.178 162.11 722.415 163.613 722.888 164.962C723.374 166.312 724.102 167.389 725.072 168.194C726.055 168.987 727.286 169.384 728.766 169.384ZM753.681 158.02V174H747.254V146.727H753.397V151.362H753.717C754.344 149.835 755.344 148.621 756.718 147.722C758.102 146.822 759.813 146.372 761.849 146.372C763.731 146.372 765.37 146.775 766.767 147.58C768.176 148.384 769.265 149.55 770.034 151.077C770.816 152.604 771.2 154.457 771.188 156.635V174H764.761V157.629C764.761 155.806 764.287 154.38 763.34 153.35C762.405 152.32 761.109 151.805 759.452 151.805C758.327 151.805 757.327 152.054 756.451 152.551C755.587 153.036 754.906 153.741 754.409 154.664C753.924 155.587 753.681 156.706 753.681 158.02ZM800.246 174.479C798.103 174.479 796.185 173.929 794.493 172.828C792.8 171.727 791.462 170.129 790.48 168.034C789.497 165.939 789.006 163.394 789.006 160.399C789.006 157.369 789.503 154.812 790.498 152.729C791.504 150.634 792.859 149.053 794.564 147.988C796.268 146.911 798.168 146.372 800.263 146.372C801.861 146.372 803.175 146.644 804.205 147.189C805.235 147.722 806.052 148.367 806.655 149.124C807.259 149.87 807.727 150.574 808.058 151.237H808.324V137.636H814.77V174H808.449V169.703H808.058C807.727 170.366 807.247 171.07 806.62 171.816C805.992 172.55 805.164 173.177 804.134 173.698C803.104 174.219 801.808 174.479 800.246 174.479ZM802.039 169.206C803.4 169.206 804.56 168.839 805.519 168.105C806.478 167.359 807.206 166.324 807.703 164.998C808.2 163.672 808.449 162.127 808.449 160.364C808.449 158.6 808.2 157.067 807.703 155.765C807.218 154.463 806.496 153.451 805.537 152.729C804.59 152.007 803.424 151.646 802.039 151.646C800.607 151.646 799.411 152.018 798.452 152.764C797.493 153.51 796.771 154.54 796.286 155.854C795.801 157.168 795.558 158.671 795.558 160.364C795.558 162.068 795.801 163.589 796.286 164.927C796.783 166.253 797.511 167.3 798.47 168.07C799.441 168.827 800.63 169.206 802.039 169.206ZM821.619 174V146.727H828.047V174H821.619ZM824.85 142.857C823.833 142.857 822.957 142.519 822.223 141.844C821.489 141.158 821.122 140.335 821.122 139.376C821.122 138.406 821.489 137.583 822.223 136.908C822.957 136.222 823.833 135.879 824.85 135.879C825.88 135.879 826.756 136.222 827.478 136.908C828.212 137.583 828.579 138.406 828.579 139.376C828.579 140.335 828.212 141.158 827.478 141.844C826.756 142.519 825.88 142.857 824.85 142.857ZM848.47 146.727V151.699H832.348V146.727H848.47ZM836.378 174V144.153C836.378 142.318 836.757 140.791 837.515 139.572C838.284 138.353 839.314 137.441 840.604 136.837C841.894 136.234 843.327 135.932 844.901 135.932C846.014 135.932 847.002 136.021 847.866 136.198C848.73 136.376 849.37 136.536 849.784 136.678L848.506 141.649C848.233 141.566 847.89 141.483 847.476 141.401C847.061 141.306 846.6 141.259 846.091 141.259C844.895 141.259 844.049 141.549 843.552 142.129C843.066 142.697 842.824 143.513 842.824 144.579V174H836.378ZM867.318 146.727V151.699H851.195V146.727H867.318ZM855.226 174V144.153C855.226 142.318 855.605 140.791 856.362 139.572C857.132 138.353 858.162 137.441 859.452 136.837C860.742 136.234 862.174 135.932 863.749 135.932C864.861 135.932 865.85 136.021 866.714 136.198C867.578 136.376 868.217 136.536 868.632 136.678L867.353 141.649C867.081 141.566 866.738 141.483 866.323 141.401C865.909 141.306 865.447 141.259 864.938 141.259C863.743 141.259 862.896 141.549 862.399 142.129C861.914 142.697 861.671 143.513 861.671 144.579V174H855.226ZM883.4 174.533C880.665 174.533 878.304 173.964 876.315 172.828C874.339 171.68 872.817 170.058 871.752 167.963C870.687 165.856 870.154 163.376 870.154 160.523C870.154 157.718 870.687 155.256 871.752 153.137C872.829 151.006 874.333 149.349 876.262 148.165C878.192 146.97 880.458 146.372 883.062 146.372C884.743 146.372 886.33 146.644 887.821 147.189C889.324 147.722 890.65 148.55 891.798 149.675C892.958 150.799 893.87 152.232 894.533 153.972C895.196 155.7 895.527 157.759 895.527 160.151V162.121H873.173V157.789H889.366C889.354 156.558 889.088 155.463 888.567 154.504C888.046 153.534 887.318 152.77 886.383 152.214C885.46 151.657 884.382 151.379 883.151 151.379C881.837 151.379 880.683 151.699 879.689 152.338C878.695 152.965 877.919 153.794 877.363 154.824C876.818 155.842 876.54 156.96 876.528 158.18V161.962C876.528 163.548 876.818 164.909 877.398 166.045C877.978 167.17 878.789 168.034 879.831 168.638C880.873 169.23 882.092 169.526 883.489 169.526C884.424 169.526 885.27 169.395 886.028 169.135C886.785 168.863 887.442 168.466 887.999 167.945C888.555 167.424 888.975 166.779 889.259 166.01L895.261 166.685C894.882 168.271 894.16 169.656 893.094 170.839C892.041 172.011 890.692 172.923 889.046 173.574C887.401 174.213 885.519 174.533 883.4 174.533ZM900.965 174V146.727H907.197V151.273H907.481C907.978 149.698 908.83 148.485 910.038 147.633C911.257 146.769 912.648 146.337 914.21 146.337C914.566 146.337 914.962 146.354 915.4 146.39C915.85 146.414 916.223 146.455 916.519 146.514V152.427C916.246 152.332 915.814 152.249 915.222 152.178C914.642 152.095 914.08 152.054 913.536 152.054C912.364 152.054 911.31 152.308 910.375 152.817C909.452 153.315 908.724 154.007 908.191 154.895C907.659 155.783 907.392 156.807 907.392 157.967V174H900.965ZM931.74 174.533C929.005 174.533 926.644 173.964 924.655 172.828C922.678 171.68 921.157 170.058 920.092 167.963C919.027 165.856 918.494 163.376 918.494 160.523C918.494 157.718 919.027 155.256 920.092 153.137C921.169 151.006 922.672 149.349 924.602 148.165C926.531 146.97 928.798 146.372 931.402 146.372C933.083 146.372 934.669 146.644 936.161 147.189C937.664 147.722 938.99 148.55 940.138 149.675C941.298 150.799 942.21 152.232 942.873 153.972C943.535 155.7 943.867 157.759 943.867 160.151V162.121H921.512V157.789H937.706C937.694 156.558 937.427 155.463 936.907 154.504C936.386 153.534 935.658 152.77 934.723 152.214C933.799 151.657 932.722 151.379 931.491 151.379C930.177 151.379 929.023 151.699 928.029 152.338C927.034 152.965 926.259 153.794 925.703 154.824C925.158 155.842 924.88 156.96 924.868 158.18V161.962C924.868 163.548 925.158 164.909 925.738 166.045C926.318 167.17 927.129 168.034 928.171 168.638C929.212 169.23 930.432 169.526 931.828 169.526C932.764 169.526 933.61 169.395 934.368 169.135C935.125 168.863 935.782 168.466 936.338 167.945C936.895 167.424 937.315 166.779 937.599 166.01L943.6 166.685C943.222 168.271 942.5 169.656 941.434 170.839C940.381 172.011 939.031 172.923 937.386 173.574C935.741 174.213 933.859 174.533 931.74 174.533ZM955.732 158.02V174H949.305V146.727H955.448V151.362H955.768C956.395 149.835 957.395 148.621 958.768 147.722C960.153 146.822 961.864 146.372 963.9 146.372C965.782 146.372 967.421 146.775 968.818 147.58C970.227 148.384 971.316 149.55 972.085 151.077C972.866 152.604 973.251 154.457 973.239 156.635V174H966.812V157.629C966.812 155.806 966.338 154.38 965.391 153.35C964.456 152.32 963.16 151.805 961.503 151.805C960.378 151.805 959.378 152.054 958.502 152.551C957.638 153.036 956.957 153.741 956.46 154.664C955.975 155.587 955.732 156.706 955.732 158.02ZM993.392 146.727V151.699H977.714V146.727H993.392ZM981.584 140.193H988.012V165.797C988.012 166.661 988.142 167.324 988.403 167.786C988.675 168.235 989.03 168.543 989.468 168.709C989.906 168.875 990.391 168.957 990.924 168.957C991.326 168.957 991.693 168.928 992.025 168.869C992.368 168.809 992.628 168.756 992.806 168.709L993.889 173.734C993.546 173.852 993.055 173.982 992.415 174.124C991.788 174.266 991.019 174.349 990.107 174.373C988.497 174.42 987.047 174.178 985.757 173.645C984.467 173.1 983.443 172.26 982.685 171.124C981.939 169.987 981.573 168.567 981.584 166.862V140.193ZM1005.78 137.636V174H999.353V137.636H1005.78ZM1016.39 184.227C1015.51 184.227 1014.7 184.156 1013.95 184.014C1013.22 183.884 1012.63 183.73 1012.2 183.553L1013.69 178.545C1014.62 178.818 1015.46 178.948 1016.19 178.936C1016.92 178.924 1017.57 178.693 1018.13 178.244C1018.69 177.806 1019.17 177.072 1019.56 176.042L1020.11 174.568L1010.22 146.727H1017.04L1023.33 167.324H1023.61L1029.92 146.727H1036.75L1025.83 177.303C1025.32 178.747 1024.65 179.984 1023.81 181.013C1022.97 182.055 1021.94 182.848 1020.72 183.393C1019.51 183.949 1018.07 184.227 1016.39 184.227Z" fill="#ECF6FF"/>
<path d="M666.5 331C679.893 331 692.738 336.321 702.209 345.791C711.679 355.262 717 368.107 717 381.5C717 394.893 711.679 407.738 702.209 417.209C692.738 426.679 679.893 432 666.5 432C653.107 432 640.262 426.679 630.791 417.209C621.321 407.738 616 394.893 616 381.5C616 368.107 621.321 355.262 630.791 345.791C640.262 336.321 653.107 331 666.5 331ZM666.5 424.786C677.98 424.786 688.99 420.225 697.108 412.108C705.225 403.99 709.786 392.98 709.786 381.5C709.786 370.02 705.225 359.01 697.108 350.892C688.99 342.775 677.98 338.214 666.5 338.214C655.02 338.214 644.01 342.775 635.892 350.892C627.775 359.01 623.214 370.02 623.214 381.5C623.214 392.98 627.775 403.99 635.892 412.108C644.01 420.225 655.02 424.786 666.5 424.786ZM661.089 396.874L682.153 381.5L661.089 366.126V396.874ZM662.287 358.248L688.408 376.998C689.149 377.492 689.757 378.162 690.177 378.947C690.597 379.732 690.817 380.609 690.817 381.5C690.817 382.391 690.597 383.268 690.177 384.053C689.757 384.838 689.149 385.508 688.408 386.002L662.287 404.752C661.472 405.295 660.525 405.607 659.547 405.654C658.569 405.701 657.596 405.482 656.733 405.02C655.869 404.558 655.147 403.87 654.644 403.03C654.141 402.19 653.875 401.229 653.875 400.25V362.743C653.875 361.764 654.141 360.803 654.644 359.963C655.147 359.123 655.869 358.435 656.733 357.973C657.596 357.511 658.569 357.292 659.547 357.339C660.525 357.386 661.472 357.698 662.287 358.241V358.248Z" fill="white"/>
<path d="M687.34 382.158L659.315 399.091L659.615 364.738L687.34 382.158Z" fill="white"/>
</svg>
