<?xml version="1.0" encoding="utf-8"?>
<!-- Generator: Adobe Illustrator 26.0.1, SVG Export Plug-In . SVG Version: 6.00 Build 0)  -->
<svg version="1.1" id="Layer_1" xmlns="http://www.w3.org/2000/svg" xmlns:xlink="http://www.w3.org/1999/xlink" x="0px" y="0px"
	 viewBox="0 0 549.8 467.1" style="enable-background:new 0 0 549.8 467.1;" xml:space="preserve">
<style type="text/css">
	.st0{fill:#FFFFFF;}
	.st1{fill:#5375E2;stroke:#FFFFFF;stroke-width:8;stroke-miterlimit:10;}
	.st2{fill:#5375E2;}
</style>
<rect class="st0" width="549.8" height="467.1"/>
<g>
	<g>
		<path class="st1" d="M337.1,179.9h-54c2.3-30.1,13.8-54.4,34.4-73s45.2-27.9,73.6-27.9c27,0,48.9,7.7,65.9,23.2
			s25.5,35.5,25.5,60.2c0,36.3-19.2,64.6-57.7,84.8c13.8,9.7,23.8,19.5,30.1,29.5c6.2,9.9,9.4,23,9.4,39.1c0,25.8-10.7,48.2-32,67.3
			c-21.4,19.1-46.5,28.6-75.4,28.6c-22.5,0-43.9-7.5-64.2-22.4c-20.3-15-33.9-39.8-40.8-74.5h55c9.2,23.3,24.8,35,46.8,35
			c10.8,0,20.6-4.2,29.3-12.7c8.7-8.5,13.1-17.9,13.1-28.2c0-12.5-4.6-22.2-13.8-29.1c-9.2-6.9-22.1-10.4-38.7-10.4l7.1-47.1
			c21.2-1.3,37.4-6.3,48.7-15c11.3-8.7,16.9-20,16.9-33.8c0-10.4-3.3-19-9.9-26c-6.6-7-14.9-10.5-24.9-10.5
			C357.9,137,343.1,151.3,337.1,179.9z"/>
	</g>
	<g>
		<g>
			<path class="st1" d="M251.8,349.8h90.6l-8.6,56.9h-215l124.6-138c21.8-24.2,37.2-42.9,46.3-56.1c9-13.2,13.6-25.6,13.6-37.3
				c0-11.5-4.2-21.4-12.6-29.8c-8.4-8.4-18.4-12.6-29.9-12.6c-28.4,0-44.8,20.7-49.4,62.1H154c2.5-35.5,14.9-63.7,37.3-84.7
				s47.9-31.4,76.3-31.4c28.8,0,52.7,8.5,71.9,25.5s28.7,38.3,28.7,63.7c0,35.7-18.1,73.2-54.2,112.7L251.8,349.8z"/>
		</g>
	</g>
	<g>
		<path class="st1" d="M91.6,79.1h106.6l-54.9,323.2H77.1l44.9-266.5H82L91.6,79.1z"/>
	</g>
	<rect x="41.5" y="346.5" class="st0" width="462.4" height="85.4"/>
	<g>
		<path class="st2" d="M80.1,358.5h7.8l13.7,53.9H91.2l-2.8-10.8h-20l-5.8,10.8H51.2L80.1,358.5z M82.1,376.2l-8.5,15.9h12.5
			L82.1,376.2z"/>
		<path class="st2" d="M114.7,358.5h13.9c3.6,0,7.4,0.8,11.4,2.3c4.1,1.6,7.3,4.3,9.9,8.2c2.5,3.9,3.7,8.5,3.7,13.8
			c0,4.7-0.9,9.1-2.7,13.1c-1.7,4-4.1,7.3-7.2,9.9c-3.1,2.6-6.1,4.4-9.1,5.3c-3,0.9-6.5,1.4-10.6,1.4h-17.3L114.7,358.5z
			 M124.3,369.5l-4.6,31.8h4.1c6.6,0,11.3-1.7,14-5.2c2.8-3.5,4.1-8,4.1-13.5c0-4-1.3-7.2-3.8-9.6c-2.5-2.3-6-3.5-10.4-3.5H124.3z"
			/>
		<path class="st2" d="M170.6,358.5h10.3l5.5,30.3l15.2-30.3h10.4v53.9h-10v-32.2l-16.4,32.2h-5.2l-6.1-33.6l-11.4,33.6h-10.6
			L170.6,358.5z"/>
		<path class="st2" d="M224.4,358.5h11.1l-8,53.9h-11.1L224.4,358.5z"/>
		<path class="st2" d="M271.5,364.2l-6,7.8c-2.1-1.4-3.7-2.5-5.1-3.3c-1.3-0.7-2.7-1.1-4-1.1c-2.1,0-3.7,0.6-5,1.8
			c-1.3,1.2-2,2.7-2,4.5c0,1.6,0.7,3,2.1,4.2c1.4,1.2,3.8,2.5,7.2,4c2.8,1.7,4.6,3,5.6,4c1,0.9,2,2.3,2.8,4.1c0.9,1.8,1.4,3.8,1.4,6
			c0,4.7-1.8,8.6-5.2,11.9c-3.5,3.2-7.7,4.9-12.7,4.9c-6,0-11.7-2.3-17.2-7l6.3-7.8c1.4,1,3,2.1,4.9,3.3c1.8,1.2,3.7,1.8,5.5,1.8
			c2,0,3.7-0.7,5.1-1.9c1.4-1.3,2.1-2.9,2.1-4.7c0-1.6-0.7-3.1-2.1-4.4c-1.4-1.2-3.5-2.5-6.2-3.6c-2.8-1.2-4.7-2.1-5.9-3
			c-1.2-0.9-2.3-2.3-3.5-4.1c-1.2-1.9-1.7-4.3-1.7-7.1c0-4.8,1.7-8.8,5.3-11.9c3.5-3.1,7.9-4.7,13.2-4.7
			C261.7,357.7,266.8,359.9,271.5,364.2z"/>
		<path class="st2" d="M307.4,364.2l-6,7.8c-2.1-1.4-3.7-2.5-5.1-3.3c-1.3-0.7-2.7-1.1-4-1.1c-2.1,0-3.7,0.6-5,1.8
			c-1.3,1.2-2,2.7-2,4.5c0,1.6,0.7,3,2.1,4.2c1.4,1.2,3.8,2.5,7.2,4c2.8,1.7,4.6,3,5.6,4c1,0.9,2,2.3,2.8,4.1c0.9,1.8,1.4,3.8,1.4,6
			c0,4.7-1.8,8.6-5.2,11.9c-3.5,3.2-7.7,4.9-12.7,4.9c-6,0-11.7-2.3-17.2-7l6.3-7.8c1.4,1,3,2.1,4.9,3.3c1.8,1.2,3.7,1.8,5.5,1.8
			c2,0,3.7-0.7,5.1-1.9c1.4-1.3,2.1-2.9,2.1-4.7c0-1.6-0.7-3.1-2.1-4.4c-1.4-1.2-3.5-2.5-6.2-3.6c-2.8-1.2-4.7-2.1-5.9-3
			c-1.2-0.9-2.3-2.3-3.5-4.1c-1.2-1.9-1.7-4.3-1.7-7.1c0-4.8,1.7-8.8,5.3-11.9c3.5-3.1,7.9-4.7,13.2-4.7
			C297.6,357.7,302.7,359.9,307.4,364.2z"/>
		<path class="st2" d="M313.7,358.5h11.1l-8,53.9h-11.1L313.7,358.5z"/>
		<path class="st2" d="M357.4,357.6c8.2,0,14.5,2.3,19,7c4.4,4.7,6.7,11.2,6.7,19.6c0,8.6-2.8,15.6-8.3,21c-5.5,5.3-12.8,8-21.7,8
			c-7.9,0-14.1-2.4-18.7-7.1c-4.5-4.8-6.8-11.2-6.8-19.4c0-8.3,2.8-15.2,8.4-20.7C341.5,360.4,348.6,357.6,357.4,357.6z M372,384.4
			c0-5.1-1.4-9.2-4.3-12.4c-2.8-3.1-6.6-4.7-11.3-4.7c-4.8,0-9,1.9-12.5,5.7c-3.5,3.7-5.3,8.3-5.3,13.4c0,5,1.4,9.1,4.4,12.3
			c2.9,3.2,6.6,4.8,11.1,4.8c4.9,0,9.1-1.8,12.6-5.6C370.2,394.1,372,389.7,372,384.4z"/>
		<path class="st2" d="M395.2,358.5h11.4l17.3,36.1l5.3-36.1h11.1l-7.9,53.9H422L403.9,375l-5.5,37.4h-11.1L395.2,358.5z"/>
		<path class="st2" d="M476.5,364.2l-6,7.8c-2.1-1.4-3.7-2.5-5.1-3.3c-1.3-0.7-2.7-1.1-4-1.1c-2.1,0-3.7,0.6-5,1.8
			c-1.3,1.2-2,2.7-2,4.5c0,1.6,0.7,3,2.1,4.2c1.4,1.2,3.8,2.5,7.2,4c2.8,1.7,4.6,3,5.6,4c1,0.9,2,2.3,2.8,4.1c0.9,1.8,1.4,3.8,1.4,6
			c0,4.7-1.8,8.6-5.2,11.9c-3.5,3.2-7.7,4.9-12.7,4.9c-6,0-11.7-2.3-17.2-7l6.3-7.8c1.4,1,3,2.1,4.9,3.3c1.8,1.2,3.7,1.8,5.5,1.8
			c2,0,3.7-0.7,5.1-1.9c1.4-1.3,2.1-2.9,2.1-4.7c0-1.6-0.7-3.1-2.1-4.4c-1.4-1.2-3.5-2.5-6.2-3.6c-2.8-1.2-4.7-2.1-5.9-3
			c-1.2-0.9-2.3-2.3-3.5-4.1c-1.2-1.9-1.7-4.3-1.7-7.1c0-4.8,1.7-8.8,5.3-11.9c3.5-3.1,7.9-4.7,13.2-4.7
			C466.7,357.7,471.8,359.9,476.5,364.2z"/>
	</g>
	<path class="st0" d="M463.2,220.6c0,0-140.4,78.7-289.3,107.6C25,357.1,0,300.6,0,300.6s51.3,40,192.5,7.6
		C323.9,278.1,463.2,220.6,463.2,220.6z"/>
	<path class="st2" d="M485.1,216c-0.1,0-0.3,0-0.4-0.1c0.1-0.1,0.1-0.3,0.2-0.4c0.3-0.2,0.6-0.4,0.9-0.7c-1-0.5-1.9-0.9-2.8-1.3
		c-1-0.5-2.1-0.8-3-1.6c-0.3-0.3-0.7-0.7-0.9-1c-0.8-1-1.6-2-2.4-3.1c0.5-0.1,1-0.1,1.4,0.2c0.8,0.6,1.6,1.2,2.4,1.8
		c0.7,0.6,1.5,0.9,2.4,1.1c5.2,1.5,10.4,3.1,15.6,4.6c0.3,0.1,0.6,0.1,0.8,0c5.6-1.8,11.2-3.6,16.9-5.4c1.9-0.6,3.8-1.2,5.8-1.7
		c2.4-0.6,4.7-0.4,6.8,0.9c0.3,0.2,0.6,0.2,1,0.2c0.4,0.1,0.8,0.1,1.1,0.2c0.9,0.3,1.2,1.2,0.8,2c-0.2,0.4-0.5,0.7-0.9,1
		c-2.7,2.1-5.8,3.4-9.1,4.3c-2.5,0.7-4.9,1.5-7.4,2.3c-0.2,0.1-0.4,0.2-0.6,0.3c-0.9,0.5-1.7,1.1-2.6,1.4c-0.6,0.2-0.8,0.6-0.8,1.2
		c0.4-0.1,0.8-0.3,1.2-0.4c1.2-0.4,2.4-0.8,3.6-1.2c0.4-0.1,0.9-0.1,1.3-0.1c0.5,0.1,0.8,0.4,1,0.9c0.2,0.9,0.4,1.9,0.6,2.8
		c0.1,0.4-0.1,0.8-0.6,0.9c-1.6,0.6-3.2,1.3-4.9,1.9c-0.7,0.2-1.5,0.2-2.2,0.2c-0.3,0-0.3-0.2-0.1-0.4c0.1-0.1,0.2-0.2,0.3-0.3
		c-0.5,0-0.9-0.1-1.5-0.1c-0.2,0.6-0.5,1.3-0.7,2c-0.2,1.1-0.9,3-1.9,3.2c-0.6,0.1-1.1-0.4-1.6-1c-0.3-0.5-0.5-1-0.8-1.4
		c-0.5,0.1-0.8,0.2-1.2,0.3c-0.1,0-0.3-0.1-0.4-0.1c0.1-0.2,0.1-0.3,0.2-0.4c0.2-0.2,0.5-0.4,0.8-0.7c-0.3-0.3-0.5-0.7-0.8-0.8
		c-0.3-0.2-0.7-0.1-1.1-0.1c0.3-0.3,0.5-0.6,0.7-0.9c0.3,0,0.7,0,0.9-0.2c0.1-0.2,0-0.6-0.1-0.9c-0.8,0.2-1.5,0.4-2.2,0.5
		c-0.1,0-0.3,0.1-0.4,0c-0.1,0-0.2-0.1-0.4-0.2c0.1-0.1,0.1-0.2,0.2-0.3c0.2-0.2,0.5-0.4,0.7-0.6c-0.3,0.1-0.6,0.2-0.9,0.3
		c-1.8,0.7-3.7,0.9-5.6,0.9c-1,0-1.8,0.3-2.7,0.6c-1.2,0.4-2.4,0.9-3.6,1.3c-1.3,0.4-2.6,0.6-3.9,0.8c-4.2,0.6-8.4,1.1-12.7,1.6
		c-0.3,0-0.5,0.2-0.7,0.4c-0.4,0.7-0.8,1.3-1.2,2c-0.2,0.4-0.4,0.5-0.9,0.6c-1.3,0.2-1.3,0.2-1.8-1c-0.2-0.5-0.4-0.9-0.6-1.4
		c-0.1-0.3-0.3-0.4-0.6-0.4c-1.2,0-2.4,0-3.5,0.1c-0.5,0-0.7-0.3-0.8-0.6c-0.2-0.4,0-0.7,0.3-0.9c0.6-0.4,1.3-0.8,2-1.2
		c-1.5-0.9-3-1.7-4.6-2.6c0.9-0.3,1.7-0.6,2.5-0.9c0.2-0.1,0.5,0.1,0.8,0.1c0.6,0.1,1.2,0.3,1.9,0.4c-1.6-2.9-3.1-5.7-4.7-8.6
		c1.2-0.3,2.4-0.7,3.7-1c0.1,0,0.3,0,0.5,0.1c3.5,2.3,7.1,4.6,10.6,6.9c0.8,0.5,1.7,0.6,2.5,0.4c5-1.6,10-3.3,14.9-5
		c0,0,0,0,0.1-0.1c-0.3-0.3-0.5-0.3-0.9-0.2c-0.4,0.2-0.8,0.3-1.2,0.4c-0.2,0-0.3,0-0.6,0.1c0.1-0.6,0.7-0.7,1-1.2
		c-1.1-0.5-2.2-1-3.3-1.5"/>
	<path class="st0" d="M289.9,145.3c0,0,5.4,3.6,8.3,10.2c2.9,6.6,6.1,13.3,4.5,24.7s-22.7,1-22.5,0.2S289.9,145.3,289.9,145.3z"/>
	<path class="st2" d="M414.7,63.2l-23.3-20.6l68.9,8.8l46.9,50.4l-29.4-5.8l-7.4,14.7c-4.3-5.8-13.7-16.9-29.3-24.6
		c-14.3-7-26.2-9.5-33.7-10.1C410.4,70.5,412,68,414.7,63.2z"/>
	<g>
		<g>
			<path class="st2" d="M507.4,114.5l2.3,0.5c2.8,0.7,3.2,1.5,2.2,5.5c-1.9,7.3-2.7,2.9-2.7,21.8c-2.4-0.4-3.1-0.5-5.5-0.9
				c-0.6-0.1,3.3-17.7-1.7-0.5c-0.2,0.6-4.3-0.5-3.9-1.1c6.7-12.8,6-14.9,7-22.1C505.2,116.5,505.8,115.1,507.4,114.5z"/>
			<g>
				<path class="st2" d="M507.8,111.4c0.3-2.1,0.5-4.3,0.5-6.5c0-1.8,0.2-6.2-0.3-7.9c-0.8-2.4-5.6-4.2-7.4-4.7
					c-2.2-0.6-8.4-2.5-10.5-2c-1.5,0.4-2.1-1.9-0.6-2.3c2.5-0.6,8.6,1.3,11.4,2.2c6.7,2.1,8.6,4.1,9.4,6.9c0.6,2.1,0.2,4.7,0.2,6.8
					c0,2.6,0,5.6-0.4,8.1c-0.1,0.6-0.9,0.9-1.5,0.8C508,112.6,507.7,112,507.8,111.4L507.8,111.4z"/>
			</g>
			<g>
				<path class="st2" d="M505.8,112.4c-0.3,1.7,1.1,3.4,3,3.7c1.9,0.3,3.6-0.9,3.9-2.6c0.3-1.7-1.1-3.4-3-3.7
					C507.8,109.5,506.1,110.7,505.8,112.4z"/>
				<g>
					<path class="st2" d="M505.8,112.4c0.2,0.1,0.3-1.3,1.9-2c0.8-0.3,1.9-0.4,2.9,0.2c1,0.5,1.7,1.7,1.6,2.8
						c-0.2,1.2-1.2,2.1-2.3,2.2c-1.1,0.2-2.2-0.2-2.8-0.7C505.7,113.7,506,112.4,505.8,112.4c-0.1,0-0.2,0.3-0.2,0.8
						c0,0.5,0.2,1.4,1,2.2c0.7,0.8,2,1.4,3.5,1.1c1.4-0.2,2.9-1.3,3.1-3c0.3-1.6-0.8-3.2-2.1-3.8c-1.3-0.6-2.7-0.5-3.6,0
						c-0.9,0.5-1.4,1.2-1.5,1.8C505.7,112.1,505.8,112.4,505.8,112.4z"/>
				</g>
			</g>
			<g>
				<path class="st2" d="M509.8,137c0.3,0.1,1.7-5.3,1.8-11.2c0.1-2.9,0.2-4.9,0-6.8c-0.2-1.9-1.4-3.1-1.5-3
					c-0.1,0.1,0.3,1.1,0.3,3.1c0.1,1.9,0.5,3.4,0.4,6.3C510.6,131.1,509.6,136.9,509.8,137z"/>
			</g>
			<g>
				<path class="st2" d="M506.6,131.4c0.3,0.1,1.3-3.3,1.9-7.6c0.6-4.3,0.5-7.9,0.2-7.9c-0.3,0-0.7,3.5-1.3,7.7
					C506.9,127.9,506.3,131.3,506.6,131.4z"/>
			</g>
			<g>
				<path class="st2" d="M506.5,119.9c0.3,0.1,0.7-0.8,1-2c0.3-1.1,0.3-2.1,0-2.2c-0.3-0.1-0.7,0.8-1,2
					C506.2,118.9,506.2,119.9,506.5,119.9z"/>
			</g>
		</g>
	</g>
</g>
</svg>
