<svg width="1191" height="151" viewBox="0 0 1191 151" fill="none" xmlns="http://www.w3.org/2000/svg">
<mask id="path-1-outside-1_789_3752" maskUnits="userSpaceOnUse" x="-4" y="-4" width="1202" height="159" fill="black">
<rect fill="white" x="-4" y="-4" width="1202" height="159"/>
<path d="M0.642045 148V2.54545H58.0284C69.0606 2.54545 78.4593 4.65246 86.2244 8.86648C93.9896 13.0331 99.9081 18.8333 103.98 26.267C108.099 33.6534 110.159 42.1761 110.159 51.8352C110.159 61.4943 108.076 70.017 103.909 77.4034C99.7424 84.7898 93.7055 90.5426 85.7983 94.6619C77.9384 98.7812 68.4214 100.841 57.2472 100.841H20.6705V76.196H52.2756C58.1941 76.196 63.071 75.178 66.9062 73.142C70.7888 71.0587 73.6771 68.1941 75.571 64.5483C77.5123 60.8551 78.483 56.6174 78.483 51.8352C78.483 47.0057 77.5123 42.7917 75.571 39.1932C73.6771 35.5473 70.7888 32.7301 66.9062 30.7415C63.0237 28.7055 58.0994 27.6875 52.1335 27.6875H31.3949V148H0.642045ZM130.134 148V2.54545H187.521C198.505 2.54545 207.88 4.51041 215.646 8.44034C223.458 12.3229 229.4 17.839 233.472 24.9886C237.592 32.0909 239.651 40.4479 239.651 50.0597C239.651 59.7187 237.568 68.0284 233.401 74.9886C229.235 81.9015 223.198 87.2045 215.29 90.8977C207.431 94.5909 197.914 96.4375 186.739 96.4375H148.316V71.7216H181.768C187.639 71.7216 192.516 70.9167 196.398 69.3068C200.281 67.697 203.169 65.2822 205.063 62.0625C207.004 58.8428 207.975 54.8419 207.975 50.0597C207.975 45.2301 207.004 41.1581 205.063 37.8438C203.169 34.5294 200.257 32.0199 196.327 30.3153C192.445 28.5634 187.544 27.6875 181.626 27.6875H160.887V148H130.134ZM208.685 81.8068L244.836 148H210.887L175.518 81.8068H208.685ZM395.049 75.2727C395.049 91.1345 392.042 104.629 386.029 115.756C380.063 126.883 371.919 135.382 361.597 141.253C351.323 147.077 339.77 149.989 326.938 149.989C314.012 149.989 302.412 147.053 292.137 141.182C281.862 135.311 273.742 126.812 267.776 115.685C261.81 104.558 258.827 91.0871 258.827 75.2727C258.827 59.411 261.81 45.9167 267.776 34.7898C273.742 23.6629 281.862 15.1875 292.137 9.36364C302.412 3.49242 314.012 0.556813 326.938 0.556813C339.77 0.556813 351.323 3.49242 361.597 9.36364C371.919 15.1875 380.063 23.6629 386.029 34.7898C392.042 45.9167 395.049 59.411 395.049 75.2727ZM363.87 75.2727C363.87 64.9981 362.331 56.3333 359.254 49.2784C356.223 42.2235 351.938 36.8731 346.398 33.2273C340.859 29.5814 334.372 27.7585 326.938 27.7585C319.504 27.7585 313.018 29.5814 307.478 33.2273C301.938 36.8731 297.629 42.2235 294.552 49.2784C291.522 56.3333 290.006 64.9981 290.006 75.2727C290.006 85.5473 291.522 94.2121 294.552 101.267C297.629 108.322 301.938 113.672 307.478 117.318C313.018 120.964 319.504 122.787 326.938 122.787C334.372 122.787 340.859 120.964 346.398 117.318C351.938 113.672 356.223 108.322 359.254 101.267C362.331 94.2121 363.87 85.5473 363.87 75.2727ZM417.83 148V2.54545H514.136V27.9006H448.582V62.5597H507.744V87.9148H448.582V148H417.83ZM534.822 148V2.54545H632.833V27.9006H565.575V62.5597H627.79V87.9148H565.575V122.645H633.117V148H534.822ZM736.189 44.3778C735.621 38.6487 733.182 34.1979 728.874 31.0256C724.565 27.8532 718.717 26.267 711.331 26.267C706.312 26.267 702.074 26.9773 698.618 28.3977C695.161 29.7708 692.51 31.6884 690.663 34.1506C688.864 36.6127 687.964 39.4062 687.964 42.5312C687.87 45.1354 688.414 47.4081 689.598 49.3494C690.829 51.2907 692.51 52.9716 694.641 54.392C696.771 55.7651 699.233 56.9725 702.027 58.0142C704.821 59.0085 707.804 59.8608 710.976 60.571L724.044 63.696C730.389 65.1165 736.213 67.0104 741.516 69.3778C746.819 71.7453 751.411 74.6572 755.294 78.1136C759.177 81.5701 762.183 85.642 764.314 90.3295C766.492 95.017 767.605 100.391 767.652 106.452C767.605 115.353 765.332 123.071 760.834 129.605C756.383 136.092 749.944 141.134 741.516 144.733C733.135 148.284 723.026 150.06 711.189 150.06C699.446 150.06 689.219 148.26 680.507 144.662C671.842 141.063 665.071 135.737 660.195 128.682C655.365 121.58 652.832 112.796 652.595 102.332H682.354C682.685 107.209 684.082 111.281 686.544 114.548C689.054 117.768 692.392 120.206 696.558 121.864C700.772 123.473 705.531 124.278 710.834 124.278C716.042 124.278 720.564 123.521 724.399 122.006C728.282 120.491 731.288 118.384 733.419 115.685C735.55 112.986 736.615 109.884 736.615 106.381C736.615 103.114 735.644 100.367 733.703 98.142C731.809 95.9167 729.016 94.0227 725.322 92.4602C721.677 90.8977 717.202 89.4773 711.899 88.1989L696.061 84.2216C683.798 81.2386 674.115 76.5748 667.013 70.2301C659.911 63.8854 656.383 55.339 656.43 44.5909C656.383 35.7841 658.727 28.09 663.462 21.5085C668.244 14.9271 674.802 9.78977 683.135 6.09659C691.468 2.4034 700.938 0.556813 711.544 0.556813C722.339 0.556813 731.762 2.4034 739.811 6.09659C747.908 9.78977 754.205 14.9271 758.703 21.5085C763.201 28.09 765.521 35.7131 765.663 44.3778H736.189ZM867.244 44.3778C866.675 38.6487 864.237 34.1979 859.928 31.0256C855.62 27.8532 849.772 26.267 842.386 26.267C837.367 26.267 833.129 26.9773 829.673 28.3977C826.216 29.7708 823.565 31.6884 821.718 34.1506C819.919 36.6127 819.019 39.4062 819.019 42.5312C818.924 45.1354 819.469 47.4081 820.653 49.3494C821.884 51.2907 823.565 52.9716 825.695 54.392C827.826 55.7651 830.288 56.9725 833.082 58.0142C835.875 59.0085 838.858 59.8608 842.031 60.571L855.099 63.696C861.443 65.1165 867.267 67.0104 872.57 69.3778C877.873 71.7453 882.466 74.6572 886.349 78.1136C890.231 81.5701 893.238 85.642 895.369 90.3295C897.547 95.017 898.659 100.391 898.707 106.452C898.659 115.353 896.387 123.071 891.888 129.605C887.438 136.092 880.998 141.134 872.57 144.733C864.19 148.284 854.081 150.06 842.244 150.06C830.501 150.06 820.274 148.26 811.562 144.662C802.897 141.063 796.126 135.737 791.249 128.682C786.42 121.58 783.887 112.796 783.65 102.332H813.408C813.74 107.209 815.137 111.281 817.599 114.548C820.108 117.768 823.446 120.206 827.613 121.864C831.827 123.473 836.585 124.278 841.888 124.278C847.097 124.278 851.619 123.521 855.454 122.006C859.336 120.491 862.343 118.384 864.474 115.685C866.604 112.986 867.67 109.884 867.67 106.381C867.67 103.114 866.699 100.367 864.758 98.142C862.864 95.9167 860.07 94.0227 856.377 92.4602C852.731 90.8977 848.257 89.4773 842.954 88.1989L827.116 84.2216C814.853 81.2386 805.17 76.5748 798.067 70.2301C790.965 63.8854 787.438 55.339 787.485 44.5909C787.438 35.7841 789.781 28.09 794.516 21.5085C799.299 14.9271 805.856 9.78977 814.19 6.09659C822.523 2.4034 831.993 0.556813 842.599 0.556813C853.394 0.556813 862.817 2.4034 870.866 6.09659C878.962 9.78977 885.26 14.9271 889.758 21.5085C894.256 28.09 896.576 35.7131 896.718 44.3778H867.244ZM1053.06 75.2727C1053.06 91.1345 1050.05 104.629 1044.04 115.756C1038.07 126.883 1029.93 135.382 1019.61 141.253C1009.33 147.077 997.777 149.989 984.946 149.989C972.02 149.989 960.42 147.053 950.145 141.182C939.87 135.311 931.75 126.812 925.784 115.685C919.818 104.558 916.835 91.0871 916.835 75.2727C916.835 59.411 919.818 45.9167 925.784 34.7898C931.75 23.6629 939.87 15.1875 950.145 9.36364C960.42 3.49242 972.02 0.556813 984.946 0.556813C997.777 0.556813 1009.33 3.49242 1019.61 9.36364C1029.93 15.1875 1038.07 23.6629 1044.04 34.7898C1050.05 45.9167 1053.06 59.411 1053.06 75.2727ZM1021.88 75.2727C1021.88 64.9981 1020.34 56.3333 1017.26 49.2784C1014.23 42.2235 1009.95 36.8731 1004.41 33.2273C998.866 29.5814 992.38 27.7585 984.946 27.7585C977.512 27.7585 971.026 29.5814 965.486 33.2273C959.946 36.8731 955.637 42.2235 952.56 49.2784C949.529 56.3333 948.014 64.9981 948.014 75.2727C948.014 85.5473 949.529 94.2121 952.56 101.267C955.637 108.322 959.946 113.672 965.486 117.318C971.026 120.964 977.512 122.787 984.946 122.787C992.38 122.787 998.866 120.964 1004.41 117.318C1009.95 113.672 1014.23 108.322 1017.26 101.267C1020.34 94.2121 1021.88 85.5473 1021.88 75.2727ZM1075.84 148V2.54545H1133.22C1144.21 2.54545 1153.58 4.51041 1161.35 8.44034C1169.16 12.3229 1175.1 17.839 1179.18 24.9886C1183.29 32.0909 1185.35 40.4479 1185.35 50.0597C1185.35 59.7187 1183.27 68.0284 1179.1 74.9886C1174.94 81.9015 1168.9 87.2045 1160.99 90.8977C1153.13 94.5909 1143.62 96.4375 1132.44 96.4375H1094.02V71.7216H1127.47C1133.34 71.7216 1138.22 70.9167 1142.1 69.3068C1145.98 67.697 1148.87 65.2822 1150.77 62.0625C1152.71 58.8428 1153.68 54.8419 1153.68 50.0597C1153.68 45.2301 1152.71 41.1581 1150.77 37.8438C1148.87 34.5294 1145.96 32.0199 1142.03 30.3153C1138.15 28.5634 1133.25 27.6875 1127.33 27.6875H1106.59V148H1075.84ZM1154.39 81.8068L1190.54 148H1156.59L1121.22 81.8068H1154.39Z"/>
</mask>
<path d="M0.642045 148H-3.35795V152H0.642045V148ZM0.642045 2.54545V-1.45455H-3.35795V2.54545H0.642045ZM86.2244 8.86647L84.3165 12.3821L84.3248 12.3867L84.3332 12.3911L86.2244 8.86647ZM103.98 26.267L100.472 28.1887L100.479 28.202L100.487 28.2153L103.98 26.267ZM85.7983 94.6619L83.9502 91.1144L83.9415 91.119L85.7983 94.6619ZM20.6705 100.841H16.6705V104.841H20.6705V100.841ZM20.6705 76.196V72.196H16.6705V76.196H20.6705ZM66.9062 73.142L68.7818 76.6751L68.7897 76.6709L68.7975 76.6667L66.9062 73.142ZM75.571 64.5483L72.0304 62.6872L72.0259 62.6957L72.0214 62.7043L75.571 64.5483ZM75.571 39.1932L72.0214 41.0371L72.0358 41.0648L72.0506 41.0923L75.571 39.1932ZM66.9062 30.7415L65.0486 34.284L65.0656 34.2929L65.0827 34.3017L66.9062 30.7415ZM31.3949 27.6875V23.6875H27.3949V27.6875H31.3949ZM31.3949 148V152H35.3949V148H31.3949ZM4.64205 148V2.54545H-3.35795V148H4.64205ZM0.642045 6.54545H58.0284V-1.45455H0.642045V6.54545ZM58.0284 6.54545C68.5572 6.54545 77.2653 8.55556 84.3165 12.3821L88.1323 5.3508C79.6533 0.749355 69.564 -1.45455 58.0284 -1.45455V6.54545ZM84.3332 12.3911C91.4441 16.2067 96.7876 21.4626 100.472 28.1887L107.488 24.3454C103.029 16.2041 96.5351 9.85957 88.1157 5.34184L84.3332 12.3911ZM100.487 28.2153C104.229 34.9258 106.159 42.7599 106.159 51.8352H114.159C114.159 41.5923 111.97 32.381 107.474 24.3188L100.487 28.2153ZM106.159 51.8352C106.159 60.9028 104.209 68.7308 100.425 75.4381L107.393 79.3687C111.943 71.3033 114.159 62.0858 114.159 51.8352H106.159ZM100.425 75.4381C96.6591 82.1143 91.2075 87.3337 83.9502 91.1145L87.6464 98.2094C96.2035 93.7515 102.826 87.4652 107.393 79.3687L100.425 75.4381ZM83.9415 91.119C76.784 94.8702 67.9386 96.8409 57.2472 96.8409V104.841C68.9042 104.841 79.0929 102.692 87.6551 98.2048L83.9415 91.119ZM57.2472 96.8409H20.6705V104.841H57.2472V96.8409ZM24.6705 100.841V76.196H16.6705V100.841H24.6705ZM20.6705 80.196H52.2756V72.196H20.6705V80.196ZM52.2756 80.196C58.6219 80.196 64.1977 79.1086 68.7818 76.6751L65.0307 69.609C61.9444 71.2474 57.7664 72.196 52.2756 72.196V80.196ZM68.7975 76.6667C73.3353 74.2318 76.8283 70.805 79.1206 66.3923L72.0214 62.7043C70.5259 65.5833 68.2423 67.8857 65.015 69.6174L68.7975 76.6667ZM79.1117 66.4094C81.3962 62.0633 82.483 57.1704 82.483 51.8352H74.483C74.483 56.0645 73.6285 59.6469 72.0304 62.6872L79.1117 66.4094ZM82.483 51.8352C82.483 46.4628 81.4 41.5733 79.0914 37.294L72.0506 41.0923C73.6246 44.01 74.483 47.5485 74.483 51.8352H82.483ZM79.1206 37.3492C76.8193 32.9191 73.3036 29.524 68.7298 27.1813L65.0827 34.3017C68.274 35.9362 70.5349 38.1756 72.0214 41.0371L79.1206 37.3492ZM68.7639 27.199C64.1392 24.7739 58.5241 23.6875 52.1335 23.6875V31.6875C57.6747 31.6875 61.9081 32.6371 65.0486 34.284L68.7639 27.199ZM52.1335 23.6875H31.3949V31.6875H52.1335V23.6875ZM27.3949 27.6875V148H35.3949V27.6875H27.3949ZM31.3949 144H0.642045V152H31.3949V144ZM130.134 148H126.134V152H130.134V148ZM130.134 2.54545V-1.45455H126.134V2.54545H130.134ZM215.646 8.44034L213.839 12.0093L213.852 12.0159L213.865 12.0224L215.646 8.44034ZM233.472 24.9886L229.996 26.9682L230.004 26.9819L230.012 26.9955L233.472 24.9886ZM233.401 74.9886L236.827 77.0535L236.833 77.0432L233.401 74.9886ZM215.29 90.8977L213.598 87.2735L213.589 87.2775L215.29 90.8977ZM148.316 96.4375H144.316V100.438H148.316V96.4375ZM148.316 71.7216V67.7216H144.316V71.7216H148.316ZM196.398 69.3068L197.93 73.0018L196.398 69.3068ZM205.063 62.0625L201.638 59.9971L201.626 60.0157L201.615 60.0344L205.063 62.0625ZM205.063 37.8438L201.59 39.8283L201.601 39.8469L201.612 39.8654L205.063 37.8438ZM196.327 30.3153L194.682 33.9614L194.709 33.9734L194.736 33.985L196.327 30.3153ZM160.887 27.6875V23.6875H156.887V27.6875H160.887ZM160.887 148V152H164.887V148H160.887ZM208.685 81.8068L212.196 79.8896L211.058 77.8068H208.685V81.8068ZM244.836 148V152H251.578L248.346 146.083L244.836 148ZM210.887 148L207.359 149.885L208.489 152H210.887V148ZM175.518 81.8068V77.8068H168.845L171.99 83.6919L175.518 81.8068ZM134.134 148V2.54545H126.134V148H134.134ZM130.134 6.54545H187.521V-1.45455H130.134V6.54545ZM187.521 6.54545C198.038 6.54545 206.762 8.42724 213.839 12.0093L217.452 4.87138C208.999 0.593582 198.973 -1.45455 187.521 -1.45455V6.54545ZM213.865 12.0224C221.011 15.5736 226.342 20.552 229.996 26.9682L236.948 23.009C232.458 15.126 225.905 9.07219 217.426 4.8583L213.865 12.0224ZM230.012 26.9955C233.722 33.391 235.651 41.0314 235.651 50.0597H243.651C243.651 39.8645 241.462 30.7908 236.932 22.9818L230.012 26.9955ZM235.651 50.0597C235.651 59.134 233.699 66.704 229.969 72.9341L236.833 77.0432C241.437 69.3528 243.651 60.3035 243.651 50.0597H235.651ZM229.975 72.9238C226.252 79.1006 220.846 83.8879 213.598 87.2735L216.983 94.5219C225.549 90.5212 232.217 84.7024 236.827 77.0535L229.975 72.9238ZM213.589 87.2775C206.391 90.6596 197.488 92.4375 186.739 92.4375V100.438C198.339 100.438 208.47 98.5222 216.992 94.518L213.589 87.2775ZM186.739 92.4375H148.316V100.438H186.739V92.4375ZM152.316 96.4375V71.7216H144.316V96.4375H152.316ZM148.316 75.7216H181.768V67.7216H148.316V75.7216ZM181.768 75.7216C187.971 75.7216 193.41 74.876 197.93 73.0018L194.866 65.6118C191.621 66.9574 187.307 67.7216 181.768 67.7216V75.7216ZM197.93 73.0018C202.51 71.1029 206.122 68.152 208.511 64.0906L201.615 60.0344C200.217 62.4124 198.052 64.2911 194.866 65.6118L197.93 73.0018ZM208.489 64.1279C210.895 60.1365 211.975 55.3745 211.975 50.0597H203.975C203.975 54.3092 203.114 57.5491 201.638 59.9971L208.489 64.1279ZM211.975 50.0597C211.975 44.7001 210.897 39.8887 208.515 35.8221L201.612 39.8654C203.112 42.4276 203.975 45.7602 203.975 50.0597H211.975ZM208.536 35.8592C206.162 31.7039 202.54 28.6499 197.919 26.6457L194.736 33.985C197.975 35.3898 200.177 37.3548 201.59 39.8283L208.536 35.8592ZM197.973 26.6693C193.413 24.6119 187.905 23.6875 181.626 23.6875V31.6875C187.184 31.6875 191.477 32.515 194.682 33.9614L197.973 26.6693ZM181.626 23.6875H160.887V31.6875H181.626V23.6875ZM156.887 27.6875V148H164.887V27.6875H156.887ZM160.887 144H130.134V152H160.887V144ZM205.175 83.7241L241.325 149.917L248.346 146.083L212.196 79.8896L205.175 83.7241ZM244.836 144H210.887V152H244.836V144ZM214.415 146.115L179.046 79.9217L171.99 83.6919L207.359 149.885L214.415 146.115ZM175.518 85.8068H208.685V77.8068H175.518V85.8068ZM386.029 115.756L382.51 113.854L382.504 113.866L386.029 115.756ZM361.597 141.253L363.57 144.733L363.575 144.73L361.597 141.253ZM292.137 141.182L294.122 137.709L292.137 141.182ZM267.776 115.685L264.251 117.575L267.776 115.685ZM267.776 34.7898L271.302 36.6799L267.776 34.7898ZM292.137 9.36364L294.11 12.8435L294.122 12.8366L292.137 9.36364ZM361.597 9.36364L359.613 12.8366L359.622 12.842L359.632 12.8474L361.597 9.36364ZM386.029 34.7898L382.504 36.6799L382.51 36.6915L386.029 34.7898ZM359.254 49.2784L355.578 50.8571L355.583 50.8674L355.587 50.8778L359.254 49.2784ZM346.398 33.2273L344.199 36.5686L346.398 33.2273ZM307.478 33.2273L309.677 36.5686L307.478 33.2273ZM294.552 49.2784L290.886 47.679L290.881 47.6894L290.877 47.6998L294.552 49.2784ZM294.552 101.267L290.877 102.846L290.881 102.856L290.886 102.866L294.552 101.267ZM307.478 117.318L309.677 113.977L307.478 117.318ZM346.398 117.318L344.199 113.977L346.398 117.318ZM359.254 101.267L355.587 99.6676L355.583 99.678L355.578 99.6884L359.254 101.267ZM391.049 75.2727C391.049 90.6361 388.137 103.441 382.51 113.854L389.548 117.657C395.947 105.816 399.049 91.6329 399.049 75.2727H391.049ZM382.504 113.866C376.871 124.372 369.245 132.301 359.62 137.776L363.575 144.73C374.594 138.462 383.256 129.393 389.554 117.646L382.504 113.866ZM359.625 137.773C350.003 143.227 339.14 145.989 326.938 145.989V153.989C340.4 153.989 352.642 150.927 363.57 144.733L359.625 137.773ZM326.938 145.989C314.642 145.989 303.737 143.203 294.122 137.709L290.153 144.655C301.086 150.903 313.382 153.989 326.938 153.989V145.989ZM294.122 137.709C284.543 132.235 276.937 124.306 271.302 113.795L264.251 117.575C270.547 129.317 279.182 138.386 290.153 144.655L294.122 137.709ZM271.302 113.795C265.716 103.378 262.827 90.5911 262.827 75.2727H254.827C254.827 91.5832 257.904 105.738 264.251 117.575L271.302 113.795ZM262.827 75.2727C262.827 59.9048 265.717 47.0951 271.302 36.6799L264.251 32.8996C257.904 44.7382 254.827 58.9172 254.827 75.2727H262.827ZM271.302 36.6799C276.936 26.171 284.538 18.2688 294.11 12.8435L290.165 5.88378C279.187 12.1062 270.548 21.1548 264.251 32.8996L271.302 36.6799ZM294.122 12.8366C303.737 7.34212 314.642 4.55681 326.938 4.55681V-3.44319C313.382 -3.44319 301.086 -0.357285 290.153 5.89067L294.122 12.8366ZM326.938 4.55681C339.134 4.55681 349.993 7.33957 359.613 12.8366L363.582 5.89067C352.652 -0.354729 340.405 -3.44319 326.938 -3.44319V4.55681ZM359.632 12.8474C369.25 18.274 376.872 26.1757 382.504 36.6799L389.554 32.8996C383.255 21.1501 374.589 12.101 363.563 5.8799L359.632 12.8474ZM382.51 36.6915C388.137 47.1041 391.049 59.9094 391.049 75.2727H399.049C399.049 58.9126 395.947 44.7292 389.548 32.888L382.51 36.6915ZM367.87 75.2727C367.87 64.6223 366.278 55.3771 362.92 47.679L355.587 50.8778C358.384 57.2896 359.87 65.3739 359.87 75.2727H367.87ZM362.929 47.6998C359.64 40.0418 354.889 34.0269 348.597 29.8859L344.199 36.5686C348.987 39.7193 352.807 44.4052 355.578 50.8571L362.929 47.6998ZM348.597 29.886C342.328 25.7597 335.056 23.7585 326.938 23.7585V31.7585C333.688 31.7585 339.39 33.4032 344.199 36.5686L348.597 29.886ZM326.938 23.7585C318.821 23.7585 311.549 25.7597 305.279 29.886L309.677 36.5686C314.487 33.4032 320.188 31.7585 326.938 31.7585V23.7585ZM305.279 29.8859C298.993 34.023 294.222 40.0303 290.886 47.679L298.218 50.8778C301.037 44.4167 304.884 39.7233 309.677 36.5686L305.279 29.8859ZM290.877 47.6998C287.573 55.3914 286.006 64.6289 286.006 75.2727H294.006C294.006 65.3673 295.47 57.2752 298.227 50.8571L290.877 47.6998ZM286.006 75.2727C286.006 85.9165 287.573 95.154 290.877 102.846L298.227 99.6884C295.47 93.2702 294.006 85.1781 294.006 75.2727H286.006ZM290.886 102.866C294.222 110.515 298.993 116.522 305.279 120.66L309.677 113.977C304.884 110.822 301.037 106.129 298.218 99.6676L290.886 102.866ZM305.279 120.66C311.549 124.786 318.821 126.787 326.938 126.787V118.787C320.188 118.787 314.487 117.142 309.677 113.977L305.279 120.66ZM326.938 126.787C335.056 126.787 342.328 124.786 348.597 120.66L344.199 113.977C339.39 117.142 333.688 118.787 326.938 118.787V126.787ZM348.597 120.66C354.889 116.519 359.64 110.504 362.929 102.846L355.578 99.6884C352.807 106.14 348.987 110.826 344.199 113.977L348.597 120.66ZM362.92 102.866C366.278 95.1684 367.87 85.9231 367.87 75.2727H359.87C359.87 85.1716 358.384 93.2559 355.587 99.6676L362.92 102.866ZM417.83 148H413.83V152H417.83V148ZM417.83 2.54545V-1.45455H413.83V2.54545H417.83ZM514.136 2.54545H518.136V-1.45455H514.136V2.54545ZM514.136 27.9006V31.9006H518.136V27.9006H514.136ZM448.582 27.9006V23.9006H444.582V27.9006H448.582ZM448.582 62.5597H444.582V66.5597H448.582V62.5597ZM507.744 62.5597H511.744V58.5597H507.744V62.5597ZM507.744 87.9148V91.9148H511.744V87.9148H507.744ZM448.582 87.9148V83.9148H444.582V87.9148H448.582ZM448.582 148V152H452.582V148H448.582ZM421.83 148V2.54545H413.83V148H421.83ZM417.83 6.54545H514.136V-1.45455H417.83V6.54545ZM510.136 2.54545V27.9006H518.136V2.54545H510.136ZM514.136 23.9006H448.582V31.9006H514.136V23.9006ZM444.582 27.9006V62.5597H452.582V27.9006H444.582ZM448.582 66.5597H507.744V58.5597H448.582V66.5597ZM503.744 62.5597V87.9148H511.744V62.5597H503.744ZM507.744 83.9148H448.582V91.9148H507.744V83.9148ZM444.582 87.9148V148H452.582V87.9148H444.582ZM448.582 144H417.83V152H448.582V144ZM534.822 148H530.822V152H534.822V148ZM534.822 2.54545V-1.45455H530.822V2.54545H534.822ZM632.833 2.54545H636.833V-1.45455H632.833V2.54545ZM632.833 27.9006V31.9006H636.833V27.9006H632.833ZM565.575 27.9006V23.9006H561.575V27.9006H565.575ZM565.575 62.5597H561.575V66.5597H565.575V62.5597ZM627.79 62.5597H631.79V58.5597H627.79V62.5597ZM627.79 87.9148V91.9148H631.79V87.9148H627.79ZM565.575 87.9148V83.9148H561.575V87.9148H565.575ZM565.575 122.645H561.575V126.645H565.575V122.645ZM633.117 122.645H637.117V118.645H633.117V122.645ZM633.117 148V152H637.117V148H633.117ZM538.822 148V2.54545H530.822V148H538.822ZM534.822 6.54545H632.833V-1.45455H534.822V6.54545ZM628.833 2.54545V27.9006H636.833V2.54545H628.833ZM632.833 23.9006H565.575V31.9006H632.833V23.9006ZM561.575 27.9006V62.5597H569.575V27.9006H561.575ZM565.575 66.5597H627.79V58.5597H565.575V66.5597ZM623.79 62.5597V87.9148H631.79V62.5597H623.79ZM627.79 83.9148H565.575V91.9148H627.79V83.9148ZM561.575 87.9148V122.645H569.575V87.9148H561.575ZM565.575 126.645H633.117V118.645H565.575V126.645ZM629.117 122.645V148H637.117V122.645H629.117ZM633.117 144H534.822V152H633.117V144ZM736.189 44.3778L732.208 44.7726L732.566 48.3778H736.189V44.3778ZM698.618 28.3977L700.095 32.1151L700.117 32.1064L700.138 32.0975L698.618 28.3977ZM690.663 34.1506L687.463 31.7506L687.448 31.7704L687.434 31.7905L690.663 34.1506ZM687.964 42.5312L691.962 42.6766L691.964 42.604V42.5312H687.964ZM689.598 49.3494L686.183 51.4319L686.201 51.4619L686.22 51.4916L689.598 49.3494ZM694.641 54.392L692.422 57.7202L692.448 57.7375L692.474 57.7543L694.641 54.392ZM702.027 58.0142L700.629 61.7621L700.657 61.7726L700.686 61.7826L702.027 58.0142ZM710.976 60.571L711.906 56.6807L711.878 56.674L711.85 56.6676L710.976 60.571ZM724.044 63.696L723.114 67.5863L723.142 67.5931L723.17 67.5994L724.044 63.696ZM741.516 69.3778L739.885 73.0304L741.516 69.3778ZM755.294 78.1136L757.954 75.126L755.294 78.1136ZM764.314 90.3295L760.672 91.9848L760.679 91.9999L760.686 92.0151L764.314 90.3295ZM767.652 106.452L771.652 106.473L771.652 106.447L771.652 106.42L767.652 106.452ZM760.834 129.605L757.539 127.337L757.536 127.342L760.834 129.605ZM741.516 144.733L743.076 148.416L743.086 148.412L741.516 144.733ZM680.507 144.662L678.973 148.356L678.98 148.359L680.507 144.662ZM660.195 128.682L656.887 130.931L656.896 130.944L656.904 130.956L660.195 128.682ZM652.595 102.332V98.3324H648.504L648.596 102.423L652.595 102.332ZM682.354 102.332L686.344 102.061L686.091 98.3324H682.354V102.332ZM686.544 114.548L683.35 116.956L683.369 116.982L683.389 117.007L686.544 114.548ZM696.558 121.864L695.08 125.58L695.105 125.591L695.131 125.6L696.558 121.864ZM724.399 122.006L722.945 118.279L722.937 118.282L722.929 118.285L724.399 122.006ZM733.419 115.685L736.559 118.163L733.419 115.685ZM733.703 98.142L730.657 100.735L730.673 100.753L730.689 100.772L733.703 98.142ZM725.322 92.4602L723.747 96.1368L723.755 96.1405L723.764 96.1441L725.322 92.4602ZM711.899 88.1989L710.925 92.0784L710.943 92.083L710.962 92.0875L711.899 88.1989ZM696.061 84.2216L697.035 80.342L697.021 80.3384L697.006 80.3349L696.061 84.2216ZM667.013 70.2301L664.348 73.2132H664.348L667.013 70.2301ZM656.43 44.5909L660.43 44.6085L660.43 44.589L660.43 44.5694L656.43 44.5909ZM663.462 21.5085L660.226 19.1572L660.22 19.1649L660.215 19.1725L663.462 21.5085ZM739.811 6.09659L738.143 9.73218L738.151 9.73586L739.811 6.09659ZM758.703 21.5085L755.401 23.7656L758.703 21.5085ZM765.663 44.3778V48.3778H769.729L769.663 44.3123L765.663 44.3778ZM740.169 43.9831C739.499 37.2228 736.541 31.7039 731.245 27.8045L726.502 34.2467C729.823 36.6919 731.743 40.0745 732.208 44.7726L740.169 43.9831ZM731.245 27.8045C726.031 23.9656 719.253 22.267 711.331 22.267V30.267C718.182 30.267 723.099 31.7408 726.502 34.2467L731.245 27.8045ZM711.331 22.267C705.959 22.267 701.171 23.0239 697.097 24.698L700.138 32.0975C702.978 30.9306 706.665 30.267 711.331 30.267V22.267ZM697.141 24.6803C693.143 26.2685 689.836 28.5867 687.463 31.7506L693.863 36.5506C695.184 34.7902 697.18 33.2731 700.095 32.1151L697.141 24.6803ZM687.434 31.7905C685.121 34.9557 683.964 38.5803 683.964 42.5312H691.964C691.964 40.2322 692.607 38.2697 693.893 36.5106L687.434 31.7905ZM683.967 42.3859C683.848 45.656 684.534 48.7271 686.183 51.4319L693.013 47.267C692.295 46.0891 691.891 44.6149 691.962 42.6766L683.967 42.3859ZM686.22 51.4916C687.783 53.9561 689.879 56.0253 692.422 57.7202L696.859 51.0638C695.141 49.9179 693.875 48.6254 692.976 47.2073L686.22 51.4916ZM692.474 57.7543C694.884 59.3077 697.612 60.637 700.629 61.7621L703.424 54.2663C700.855 53.308 698.658 52.2226 696.807 51.0298L692.474 57.7543ZM700.686 61.7826C703.646 62.8363 706.786 63.732 710.102 64.4744L711.85 56.6676C708.821 55.9895 705.995 55.1808 703.368 54.2458L700.686 61.7826ZM710.046 64.4613L723.114 67.5863L724.974 59.8057L711.906 56.6807L710.046 64.4613ZM723.17 67.5994C729.285 68.9684 734.852 70.7836 739.885 73.0304L743.146 65.7253C737.573 63.2373 731.492 61.2645 724.918 59.7926L723.17 67.5994ZM739.885 73.0304C744.856 75.2497 749.092 77.9479 752.634 81.1013L757.954 75.126C753.731 71.3665 748.781 68.2408 743.146 65.7253L739.885 73.0304ZM752.634 81.1013C756.104 84.1905 758.775 87.81 760.672 91.9848L767.955 88.6743C765.592 83.4741 762.249 78.9496 757.954 75.126L752.634 81.1013ZM760.686 92.0151C762.585 96.1022 763.608 100.896 763.652 106.483L771.652 106.42C771.601 99.8859 770.398 93.9319 767.941 88.644L760.686 92.0151ZM763.652 106.43C763.608 114.631 761.527 121.543 757.539 127.337L764.129 131.873C769.136 124.599 771.601 116.075 771.652 106.473L763.652 106.43ZM757.536 127.342C753.581 133.105 747.792 137.704 739.945 141.054L743.086 148.412C752.096 144.565 759.185 139.079 764.132 131.868L757.536 127.342ZM739.955 141.05C732.192 144.339 722.644 146.06 711.189 146.06V154.06C723.408 154.06 734.078 152.229 743.076 148.416L739.955 141.05ZM711.189 146.06C699.846 146.06 690.159 144.321 682.034 140.965L678.98 148.359C688.28 152.2 699.047 154.06 711.189 154.06V146.06ZM682.041 140.968C674.017 137.635 667.884 132.771 663.485 126.407L656.904 130.956C662.259 138.702 669.668 144.492 678.973 148.356L682.041 140.968ZM663.502 126.433C659.193 120.095 656.817 112.105 656.594 102.242L648.596 102.423C648.847 113.488 651.537 123.064 656.887 130.931L663.502 126.433ZM652.595 106.332H682.354V98.3324H652.595V106.332ZM678.363 102.604C678.737 108.102 680.336 112.957 683.35 116.956L689.738 112.141C687.828 109.606 686.634 106.317 686.344 102.061L678.363 102.604ZM683.389 117.007C686.378 120.842 690.32 123.687 695.08 125.58L698.036 118.147C694.464 116.726 691.729 114.694 689.699 112.089L683.389 117.007ZM695.131 125.6C699.873 127.412 705.127 128.278 710.834 128.278V120.278C705.935 120.278 701.672 119.535 697.986 118.127L695.131 125.6ZM710.834 128.278C716.418 128.278 721.46 127.467 725.869 125.726L722.929 118.285C719.667 119.574 715.666 120.278 710.834 120.278V128.278ZM725.853 125.732C730.258 124.013 733.902 121.528 736.559 118.163L730.279 113.206C728.674 115.239 726.305 116.968 722.945 118.279L725.853 125.732ZM736.559 118.163C739.258 114.744 740.615 110.765 740.615 106.381H732.615C732.615 109.004 731.841 111.228 730.279 113.206L736.559 118.163ZM740.615 106.381C740.615 102.257 739.363 98.5457 736.717 95.5126L730.689 100.772C731.926 102.189 732.615 103.97 732.615 106.381H740.615ZM736.749 95.5496C734.33 92.7065 730.946 90.4962 726.881 88.7764L723.764 96.1441C727.085 97.5493 729.289 99.1269 730.657 100.735L736.749 95.5496ZM726.898 88.7836C722.985 87.1068 718.283 85.6233 712.837 84.3103L710.962 92.0875C716.121 93.3313 720.368 94.6886 723.747 96.1368L726.898 88.7836ZM712.873 84.3193L697.035 80.342L695.087 88.1011L710.925 92.0784L712.873 84.3193ZM697.006 80.3349C685.182 77.4587 676.156 73.0347 669.678 67.2471L664.348 73.2132C672.074 80.115 682.414 85.0186 695.116 88.1083L697.006 80.3349ZM669.678 67.2471C663.544 61.7681 660.387 54.3752 660.43 44.6085L652.43 44.5733C652.379 56.3028 656.277 66.0027 664.348 73.2132L669.678 67.2471ZM660.43 44.5694C660.387 36.5313 662.511 29.6795 666.709 23.8445L660.215 19.1725C654.943 26.5004 652.379 35.0369 652.43 44.6124L660.43 44.5694ZM666.698 23.8598C671.018 17.9145 676.987 13.1965 684.756 9.75354L681.514 2.43963C672.616 6.38309 665.47 11.9397 660.226 19.1572L666.698 23.8598ZM684.756 9.75354C692.502 6.32056 701.406 4.55681 711.544 4.55681V-3.44319C700.47 -3.44319 690.435 -1.51375 681.514 2.43963L684.756 9.75354ZM711.544 4.55681C721.887 4.55681 730.719 6.32575 738.143 9.73217L741.479 2.461C732.805 -1.51894 722.792 -3.44319 711.544 -3.44319V4.55681ZM738.151 9.73586C745.664 13.1627 751.36 17.854 755.401 23.7656L762.005 19.2515C757.05 12.0002 750.152 6.41685 741.471 2.45731L738.151 9.73586ZM755.401 23.7656C759.418 29.6441 761.534 36.4904 761.664 44.4434L769.663 44.3123C769.509 34.9357 766.984 26.5358 762.005 19.2515L755.401 23.7656ZM765.663 40.3778H736.189V48.3778H765.663V40.3778ZM867.244 44.3778L863.263 44.7726L863.621 48.3778H867.244V44.3778ZM829.673 28.3977L831.149 32.1151L831.171 32.1064L831.193 32.0975L829.673 28.3977ZM821.718 34.1506L818.518 31.7506L818.503 31.7704L818.488 31.7905L821.718 34.1506ZM819.019 42.5312L823.017 42.6766L823.019 42.604V42.5312H819.019ZM820.653 49.3494L817.237 51.4319L817.256 51.4619L817.275 51.4916L820.653 49.3494ZM825.695 54.392L823.477 57.7202L823.502 57.7375L823.529 57.7543L825.695 54.392ZM833.082 58.0142L831.684 61.7621L831.712 61.7726L831.74 61.7826L833.082 58.0142ZM842.031 60.571L842.961 56.6807L842.933 56.674L842.904 56.6676L842.031 60.571ZM855.099 63.696L854.168 67.5863L854.197 67.5931L854.225 67.5994L855.099 63.696ZM872.57 69.3778L870.94 73.0304L872.57 69.3778ZM886.349 78.1136L889.008 75.126L886.349 78.1136ZM895.369 90.3295L891.727 91.9848L891.734 91.9999L891.741 92.0151L895.369 90.3295ZM898.707 106.452L902.707 106.473L902.707 106.447L902.707 106.42L898.707 106.452ZM891.888 129.605L888.594 127.337L888.59 127.342L891.888 129.605ZM872.57 144.733L874.131 148.416L874.141 148.412L872.57 144.733ZM811.562 144.662L810.028 148.356L810.035 148.359L811.562 144.662ZM791.249 128.682L787.942 130.931L787.95 130.944L787.959 130.956L791.249 128.682ZM783.65 102.332V98.3324H779.558L779.651 102.423L783.65 102.332ZM813.408 102.332L817.399 102.061L817.146 98.3324H813.408V102.332ZM817.599 114.548L814.404 116.956L814.424 116.982L814.444 117.007L817.599 114.548ZM827.613 121.864L826.135 125.58L826.16 125.591L826.185 125.6L827.613 121.864ZM855.454 122.006L854 118.279L853.992 118.282L853.984 118.285L855.454 122.006ZM864.474 115.685L867.613 118.163L864.474 115.685ZM864.758 98.142L861.712 100.735L861.727 100.753L861.744 100.772L864.758 98.142ZM856.377 92.4602L854.801 96.1368L854.81 96.1405L854.819 96.1441L856.377 92.4602ZM842.954 88.1989L841.98 92.0784L841.998 92.083L842.016 92.0875L842.954 88.1989ZM827.116 84.2216L828.09 80.342L828.076 80.3384L828.061 80.3349L827.116 84.2216ZM798.067 70.2301L795.403 73.2132H795.403L798.067 70.2301ZM787.485 44.5909L791.485 44.6085L791.485 44.589L791.485 44.5694L787.485 44.5909ZM794.516 21.5085L791.28 19.1572L791.275 19.1649L791.269 19.1725L794.516 21.5085ZM870.866 6.09659L869.198 9.73218L869.206 9.73586L870.866 6.09659ZM889.758 21.5085L886.455 23.7656L889.758 21.5085ZM896.718 44.3778V48.3778H900.784L900.718 44.3123L896.718 44.3778ZM871.224 43.9831C870.554 37.2228 867.596 31.7039 862.3 27.8045L857.557 34.2467C860.878 36.6919 862.797 40.0745 863.263 44.7726L871.224 43.9831ZM862.3 27.8045C857.086 23.9656 850.308 22.267 842.386 22.267V30.267C849.236 30.267 854.153 31.7408 857.557 34.2467L862.3 27.8045ZM842.386 22.267C837.014 22.267 832.226 23.0239 828.152 24.698L831.193 32.0975C834.032 30.9306 837.72 30.267 842.386 30.267V22.267ZM828.196 24.6803C824.198 26.2685 820.891 28.5867 818.518 31.7506L824.918 36.5506C826.238 34.7902 828.234 33.2731 831.149 32.1151L828.196 24.6803ZM818.488 31.7905C816.175 34.9557 815.019 38.5803 815.019 42.5312H823.019C823.019 40.2322 823.662 38.2697 824.948 36.5106L818.488 31.7905ZM815.022 42.3859C814.903 45.656 815.588 48.7271 817.237 51.4319L824.068 47.267C823.35 46.0891 822.946 44.6149 823.017 42.6766L815.022 42.3859ZM817.275 51.4916C818.838 53.9561 820.934 56.0253 823.477 57.7202L827.914 51.0638C826.195 49.9179 824.93 48.6254 824.031 47.2073L817.275 51.4916ZM823.529 57.7543C825.939 59.3077 828.667 60.637 831.684 61.7621L834.479 54.2663C831.909 53.308 829.713 52.2226 827.862 51.0298L823.529 57.7543ZM831.74 61.7826C834.701 62.8363 837.841 63.732 841.157 64.4744L842.904 56.6676C839.876 55.9895 837.05 55.1808 834.423 54.2458L831.74 61.7826ZM841.1 64.4613L854.168 67.5863L856.029 59.8057L842.961 56.6807L841.1 64.4613ZM854.225 67.5994C860.34 68.9684 865.907 70.7836 870.94 73.0304L874.201 65.7253C868.628 63.2373 862.547 61.2645 855.973 59.7926L854.225 67.5994ZM870.94 73.0304C875.911 75.2497 880.147 77.9479 883.689 81.1013L889.008 75.126C884.785 71.3665 879.836 68.2408 874.201 65.7253L870.94 73.0304ZM883.689 81.1013C887.159 84.1905 889.83 87.81 891.727 91.9848L899.01 88.6743C896.646 83.4741 893.303 78.9496 889.008 75.126L883.689 81.1013ZM891.741 92.0151C893.64 96.1022 894.663 100.896 894.707 106.483L902.707 106.42C902.656 99.8859 901.453 93.9319 898.996 88.644L891.741 92.0151ZM894.707 106.43C894.663 114.631 892.582 121.543 888.594 127.337L895.183 131.873C900.191 124.599 902.656 116.075 902.707 106.473L894.707 106.43ZM888.59 127.342C884.636 133.105 878.846 137.704 871 141.054L874.141 148.412C883.15 144.565 890.239 139.079 895.187 131.868L888.59 127.342ZM871.01 141.05C863.247 144.339 853.698 146.06 842.244 146.06V154.06C854.463 154.06 865.132 152.229 874.131 148.416L871.01 141.05ZM842.244 146.06C830.901 146.06 821.214 144.321 813.089 140.965L810.035 148.359C819.334 152.2 830.102 154.06 842.244 154.06V146.06ZM813.096 140.968C805.071 137.635 798.939 132.771 794.54 126.407L787.959 130.956C793.314 138.702 800.723 144.492 810.028 148.356L813.096 140.968ZM794.557 126.433C790.248 120.095 787.872 112.105 787.649 102.242L779.651 102.423C779.901 113.488 782.592 123.064 787.942 130.931L794.557 126.433ZM783.65 106.332H813.408V98.3324H783.65V106.332ZM809.418 102.604C809.791 108.102 811.391 112.957 814.404 116.956L820.793 112.141C818.883 109.606 817.688 106.317 817.399 102.061L809.418 102.604ZM814.444 117.007C817.433 120.842 821.374 123.687 826.135 125.58L829.091 118.147C825.518 116.726 822.784 114.694 820.754 112.089L814.444 117.007ZM826.185 125.6C830.928 127.412 836.182 128.278 841.888 128.278V120.278C836.989 120.278 832.726 119.535 829.04 118.127L826.185 125.6ZM841.888 128.278C847.473 128.278 852.515 127.467 856.924 125.726L853.984 118.285C850.722 119.574 846.721 120.278 841.888 120.278V128.278ZM856.908 125.732C861.313 124.013 864.957 121.528 867.613 118.163L861.334 113.206C859.729 115.239 857.36 116.968 854 118.279L856.908 125.732ZM867.613 118.163C870.313 114.744 871.67 110.765 871.67 106.381H863.67C863.67 109.004 862.896 111.228 861.334 113.206L867.613 118.163ZM871.67 106.381C871.67 102.257 870.418 98.5457 867.772 95.5126L861.744 100.772C862.98 102.189 863.67 103.97 863.67 106.381H871.67ZM867.804 95.5496C865.384 92.7065 862.001 90.4962 857.936 88.7764L854.819 96.1441C858.14 97.5493 860.343 99.1269 861.712 100.735L867.804 95.5496ZM857.953 88.7836C854.04 87.1068 849.338 85.6233 843.891 84.3103L842.016 92.0875C847.176 93.3313 851.422 94.6886 854.801 96.1368L857.953 88.7836ZM843.928 84.3193L828.09 80.342L826.142 88.1011L841.98 92.0784L843.928 84.3193ZM828.061 80.3349C816.237 77.4587 807.211 73.0347 800.732 67.2471L795.403 73.2132C803.129 80.115 813.468 85.0186 826.17 88.1083L828.061 80.3349ZM800.732 67.2471C794.599 61.7681 791.442 54.3752 791.485 44.6085L783.485 44.5733C783.433 56.3028 787.331 66.0027 795.403 73.2132L800.732 67.2471ZM791.485 44.5694C791.442 36.5313 793.565 29.6795 797.763 23.8445L791.269 19.1725C785.997 26.5004 783.434 35.0369 783.485 44.6124L791.485 44.5694ZM797.752 23.8598C802.072 17.9145 808.042 13.1965 815.81 9.75354L812.569 2.43963C803.671 6.38309 796.525 11.9397 791.28 19.1572L797.752 23.8598ZM815.81 9.75354C823.557 6.32056 832.46 4.55681 842.599 4.55681V-3.44319C831.525 -3.44319 821.489 -1.51375 812.569 2.43963L815.81 9.75354ZM842.599 4.55681C852.942 4.55681 861.773 6.32575 869.198 9.73217L872.534 2.461C863.86 -1.51894 853.846 -3.44319 842.599 -3.44319V4.55681ZM869.206 9.73586C876.718 13.1627 882.415 17.854 886.455 23.7656L893.06 19.2515C888.104 12.0002 881.206 6.41685 872.526 2.45731L869.206 9.73586ZM886.455 23.7656C890.473 29.6441 892.588 36.4904 892.719 44.4434L900.718 44.3123C900.564 34.9357 898.039 26.5358 893.06 19.2515L886.455 23.7656ZM896.718 40.3778H867.244V48.3778H896.718V40.3778ZM1044.04 115.756L1040.52 113.854L1040.51 113.866L1044.04 115.756ZM1019.61 141.253L1021.58 144.733L1021.58 144.73L1019.61 141.253ZM950.145 141.182L952.129 137.709L950.145 141.182ZM925.784 115.685L922.259 117.575L925.784 115.685ZM925.784 34.7898L929.309 36.6799L925.784 34.7898ZM950.145 9.36364L952.117 12.8435L952.129 12.8366L950.145 9.36364ZM1019.61 9.36364L1017.62 12.8366L1017.63 12.842L1017.64 12.8474L1019.61 9.36364ZM1044.04 34.7898L1040.51 36.6799L1040.52 36.6915L1044.04 34.7898ZM1017.26 49.2784L1013.59 50.8571L1013.59 50.8674L1013.6 50.8778L1017.26 49.2784ZM1004.41 33.2273L1002.21 36.5686L1004.41 33.2273ZM965.486 33.2273L967.685 36.5686L965.486 33.2273ZM952.56 49.2784L948.893 47.679L948.889 47.6894L948.884 47.6998L952.56 49.2784ZM952.56 101.267L948.884 102.846L948.889 102.856L948.893 102.866L952.56 101.267ZM965.486 117.318L967.685 113.977L965.486 117.318ZM1004.41 117.318L1002.21 113.977L1004.41 117.318ZM1017.26 101.267L1013.6 99.6676L1013.59 99.678L1013.59 99.6884L1017.26 101.267ZM1049.06 75.2727C1049.06 90.6361 1046.15 103.441 1040.52 113.854L1047.56 117.657C1053.96 105.816 1057.06 91.6329 1057.06 75.2727H1049.06ZM1040.51 113.866C1034.88 124.372 1027.25 132.301 1017.63 137.776L1021.58 144.73C1032.6 138.462 1041.26 129.393 1047.56 117.646L1040.51 113.866ZM1017.63 137.773C1008.01 143.227 997.148 145.989 984.946 145.989V153.989C998.407 153.989 1010.65 150.927 1021.58 144.733L1017.63 137.773ZM984.946 145.989C972.65 145.989 961.745 143.203 952.129 137.709L948.16 144.655C959.094 150.903 971.39 153.989 984.946 153.989V145.989ZM952.129 137.709C942.551 132.235 934.945 124.306 929.309 113.795L922.259 117.575C928.555 129.317 937.19 138.386 948.16 144.655L952.129 137.709ZM929.309 113.795C923.724 103.378 920.835 90.5911 920.835 75.2727H912.835C912.835 91.5832 915.912 105.738 922.259 117.575L929.309 113.795ZM920.835 75.2727C920.835 59.9048 923.725 47.0951 929.309 36.6799L922.259 32.8996C915.911 44.7382 912.835 58.9172 912.835 75.2727H920.835ZM929.309 36.6799C934.944 26.171 942.546 18.2688 952.117 12.8435L948.172 5.88378C937.195 12.1062 928.556 21.1548 922.259 32.8996L929.309 36.6799ZM952.129 12.8366C961.745 7.34212 972.65 4.55681 984.946 4.55681V-3.44319C971.39 -3.44319 959.094 -0.357285 948.16 5.89067L952.129 12.8366ZM984.946 4.55681C997.142 4.55681 1008 7.33957 1017.62 12.8366L1021.59 5.89067C1010.66 -0.354729 998.413 -3.44319 984.946 -3.44319V4.55681ZM1017.64 12.8474C1027.26 18.274 1034.88 26.1757 1040.51 36.6799L1047.56 32.8996C1041.26 21.1501 1032.6 12.101 1021.57 5.8799L1017.64 12.8474ZM1040.52 36.6915C1046.15 47.1041 1049.06 59.9094 1049.06 75.2727H1057.06C1057.06 58.9126 1053.96 44.7292 1047.56 32.888L1040.52 36.6915ZM1025.88 75.2727C1025.88 64.6223 1024.29 55.3771 1020.93 47.679L1013.6 50.8778C1016.39 57.2896 1017.88 65.3739 1017.88 75.2727H1025.88ZM1020.94 47.6998C1017.65 40.0418 1012.9 34.0269 1006.61 29.8859L1002.21 36.5686C1006.99 39.7193 1010.81 44.4052 1013.59 50.8571L1020.94 47.6998ZM1006.61 29.886C1000.34 25.7597 993.064 23.7585 984.946 23.7585V31.7585C991.696 31.7585 997.398 33.4032 1002.21 36.5686L1006.61 29.886ZM984.946 23.7585C976.828 23.7585 969.557 25.7597 963.287 29.886L967.685 36.5686C972.495 33.4032 978.196 31.7585 984.946 31.7585V23.7585ZM963.287 29.8859C957.001 34.023 952.23 40.0303 948.893 47.679L956.226 50.8778C959.045 44.4167 962.891 39.7233 967.685 36.5686L963.287 29.8859ZM948.884 47.6998C945.581 55.3914 944.014 64.6289 944.014 75.2727H952.014C952.014 65.3673 953.478 57.2752 956.235 50.8571L948.884 47.6998ZM944.014 75.2727C944.014 85.9165 945.581 95.154 948.884 102.846L956.235 99.6884C953.478 93.2702 952.014 85.1781 952.014 75.2727H944.014ZM948.893 102.866C952.23 110.515 957.001 116.522 963.287 120.66L967.685 113.977C962.891 110.822 959.045 106.129 956.226 99.6676L948.893 102.866ZM963.287 120.66C969.557 124.786 976.828 126.787 984.946 126.787V118.787C978.196 118.787 972.495 117.142 967.685 113.977L963.287 120.66ZM984.946 126.787C993.064 126.787 1000.34 124.786 1006.61 120.66L1002.21 113.977C997.398 117.142 991.696 118.787 984.946 118.787V126.787ZM1006.61 120.66C1012.9 116.519 1017.65 110.504 1020.94 102.846L1013.59 99.6884C1010.81 106.14 1006.99 110.826 1002.21 113.977L1006.61 120.66ZM1020.93 102.866C1024.29 95.1684 1025.88 85.9231 1025.88 75.2727H1017.88C1017.88 85.1716 1016.39 93.2559 1013.6 99.6676L1020.93 102.866ZM1075.84 148H1071.84V152H1075.84V148ZM1075.84 2.54545V-1.45455H1071.84V2.54545H1075.84ZM1161.35 8.44034L1159.54 12.0093L1159.56 12.0159L1159.57 12.0224L1161.35 8.44034ZM1179.18 24.9886L1175.7 26.9682L1175.71 26.9819L1175.72 26.9955L1179.18 24.9886ZM1179.1 74.9886L1182.53 77.0535L1182.54 77.0432L1179.1 74.9886ZM1160.99 90.8977L1159.3 87.2735L1159.29 87.2775L1160.99 90.8977ZM1094.02 96.4375H1090.02V100.438H1094.02V96.4375ZM1094.02 71.7216V67.7216H1090.02V71.7216H1094.02ZM1142.1 69.3068L1143.63 73.0018L1142.1 69.3068ZM1150.77 62.0625L1147.34 59.9971L1147.33 60.0157L1147.32 60.0344L1150.77 62.0625ZM1150.77 37.8438L1147.29 39.8283L1147.3 39.8469L1147.31 39.8654L1150.77 37.8438ZM1142.03 30.3153L1140.39 33.9614L1140.41 33.9734L1140.44 33.985L1142.03 30.3153ZM1106.59 27.6875V23.6875H1102.59V27.6875H1106.59ZM1106.59 148V152H1110.59V148H1106.59ZM1154.39 81.8068L1157.9 79.8896L1156.76 77.8068H1154.39V81.8068ZM1190.54 148V152H1197.28L1194.05 146.083L1190.54 148ZM1156.59 148L1153.06 149.885L1154.19 152H1156.59V148ZM1121.22 81.8068V77.8068H1114.55L1117.69 83.6919L1121.22 81.8068ZM1079.84 148V2.54545H1071.84V148H1079.84ZM1075.84 6.54545H1133.22V-1.45455H1075.84V6.54545ZM1133.22 6.54545C1143.74 6.54545 1152.46 8.42724 1159.54 12.0093L1163.15 4.87138C1154.7 0.593582 1144.68 -1.45455 1133.22 -1.45455V6.54545ZM1159.57 12.0224C1166.71 15.5736 1172.05 20.552 1175.7 26.9682L1182.65 23.009C1178.16 15.126 1171.61 9.07219 1163.13 4.8583L1159.57 12.0224ZM1175.72 26.9955C1179.42 33.391 1181.35 41.0314 1181.35 50.0597H1189.35C1189.35 39.8645 1187.16 30.7908 1182.64 22.9818L1175.72 26.9955ZM1181.35 50.0597C1181.35 59.134 1179.4 66.704 1175.67 72.9341L1182.54 77.0432C1187.14 69.3528 1189.35 60.3035 1189.35 50.0597H1181.35ZM1175.68 72.9238C1171.96 79.1006 1166.55 83.8879 1159.3 87.2735L1162.69 94.5219C1171.25 90.5212 1177.92 84.7024 1182.53 77.0535L1175.68 72.9238ZM1159.29 87.2775C1152.09 90.6596 1143.19 92.4375 1132.44 92.4375V100.438C1144.04 100.438 1154.17 98.5222 1162.69 94.518L1159.29 87.2775ZM1132.44 92.4375H1094.02V100.438H1132.44V92.4375ZM1098.02 96.4375V71.7216H1090.02V96.4375H1098.02ZM1094.02 75.7216H1127.47V67.7216H1094.02V75.7216ZM1127.47 75.7216C1133.67 75.7216 1139.11 74.876 1143.63 73.0018L1140.57 65.6118C1137.32 66.9574 1133.01 67.7216 1127.47 67.7216V75.7216ZM1143.63 73.0018C1148.21 71.1029 1151.83 68.152 1154.21 64.0906L1147.32 60.0344C1145.92 62.4124 1143.75 64.2911 1140.57 65.6118L1143.63 73.0018ZM1154.19 64.1279C1156.6 60.1365 1157.68 55.3745 1157.68 50.0597H1149.68C1149.68 54.3092 1148.82 57.5491 1147.34 59.9971L1154.19 64.1279ZM1157.68 50.0597C1157.68 44.7001 1156.6 39.8887 1154.22 35.8221L1147.31 39.8654C1148.82 42.4276 1149.68 45.7602 1149.68 50.0597H1157.68ZM1154.24 35.8592C1151.86 31.7039 1148.24 28.6499 1143.62 26.6457L1140.44 33.985C1143.68 35.3898 1145.88 37.3548 1147.29 39.8283L1154.24 35.8592ZM1143.68 26.6693C1139.12 24.6119 1133.61 23.6875 1127.33 23.6875V31.6875C1132.89 31.6875 1137.18 32.515 1140.39 33.9614L1143.68 26.6693ZM1127.33 23.6875H1106.59V31.6875H1127.33V23.6875ZM1102.59 27.6875V148H1110.59V27.6875H1102.59ZM1106.59 144H1075.84V152H1106.59V144ZM1150.88 83.7241L1187.03 149.917L1194.05 146.083L1157.9 79.8896L1150.88 83.7241ZM1190.54 144H1156.59V152H1190.54V144ZM1160.12 146.115L1124.75 79.9217L1117.69 83.6919L1153.06 149.885L1160.12 146.115ZM1121.22 85.8068H1154.39V77.8068H1121.22V85.8068Z" fill="url(#paint0_linear_789_3752)" mask="url(#path-1-outside-1_789_3752)"/>
<defs>
<linearGradient id="paint0_linear_789_3752" x1="591.5" y1="-46" x2="591.5" y2="196" gradientUnits="userSpaceOnUse">
<stop stop-color="#1EA698"/>
<stop offset="0.793373" stop-color="#1EA698" stop-opacity="0"/>
</linearGradient>
</defs>
</svg>
