<svg id="Layer_1" data-name="Layer 1" xmlns="http://www.w3.org/2000/svg" viewBox="0 0 220 50"><defs><style>.cls-1{fill:#e9f9ff;}.cls-1,.cls-4{stroke:#01b3ef;stroke-miterlimit:10;stroke-width:0.25px;}.cls-2{fill:#01b3ef;}.cls-3{font-size:21px;fill:#fff;font-family:MyriadPro-Regular, Myriad Pro;}</style></defs><path class="cls-1" d="M39.46,25.61l-16.92-.27-.94,7a41.13,41.13,0,0,1,4.27,3,33.9,33.9,0,0,1,4.79,4.61V34a1.25,1.25,0,1,1,1.44-1.23,1.26,1.26,0,0,1-1,1.23v5.94A34.77,34.77,0,0,1,35.7,35.5a33.44,33.44,0,0,1,4.55-3.19Z"/><path class="cls-2" d="M35.85,11.57a69.29,69.29,0,0,0-11.53,5.86,37.19,37.19,0,0,0-6.44,5.16,10.78,10.78,0,0,0-2.09,2.88,5,5,0,0,0-.43,1.65,1.24,1.24,0,0,0,.86,1.37,4.43,4.43,0,0,0,3.26.13,3,3,0,0,0,.56-.3c.19-.11.36-.1.45.06a.3.3,0,0,1-.1.43,3.14,3.14,0,0,1-1.7.62,5.22,5.22,0,0,1-2.56-.32,3.4,3.4,0,0,1-.54-.27,1.62,1.62,0,0,1-.83-1.46,5.61,5.61,0,0,1,1-3.12c.13-.22.28-.43.45-.69l-2.17-1.06.25-.14c2.11-1,4.23-2,6.33-3.09A23.21,23.21,0,0,0,22.75,18a47.6,47.6,0,0,1,7.85-4.38,44,44,0,0,1,5.25-2"/><path class="cls-2" d="M37.65,10.55h0v0l0,0-.15-.07a.6.6,0,0,1-.16-.08l-.05-.05-.13-.16a.06.06,0,0,1,.07,0l.13.09a.31.31,0,0,0,.13.06l.81.21h0l.86-.3.3-.1a.45.45,0,0,1,.36,0H40a.07.07,0,0,1,0,.1l0,.05a1.4,1.4,0,0,1-.47.24l-.38.13,0,0-.13.08s0,0,0,.06l.06,0,.18-.07h.07s0,0,0,0a.74.74,0,0,1,0,.14,0,0,0,0,1,0,.05l-.25.11H39s0,0,0,0l0,0H38.9l0,.11c0,.05,0,.15-.1.16s-.05,0-.08-.05l0-.07-.06,0h0s0,0,0,0l0,0,0,0h0l0,0h.05a.43.43,0,0,1,0-.05l-.11,0h0v0l0,0h0a.75.75,0,0,1-.29.06.32.32,0,0,0-.14,0l-.19.07-.2.05-.66.1s0,0,0,0a.6.6,0,0,0-.06.11.05.05,0,0,1,0,0c-.06,0-.06,0-.09-.05a.43.43,0,0,1,0-.07s0,0,0,0h-.18s0,0,0,0,0,0,0,0l.1-.07-.24-.13.13-.05h0l.1,0-.25-.44.19,0s0,0,0,0l.56.34a.17.17,0,0,0,.14,0l.77-.28h0s0,0,0,0l-.06,0h0s0,0,.05-.06l-.18-.08"/><path class="cls-2" d="M37.52,17.62h0c-.18-.07-1.37-.66-1.55-.73l-5.1-2.5a.52.52,0,0,0-.54,0c-1.07.6-2.15,1.17-3.2,1.79A46.37,46.37,0,0,0,20,21.15,17.6,17.6,0,0,0,17.31,24l.2.11L21.26,26l9.57,4.43,16.45-8Z"/><text class="cls-3" transform="translate(55.15 34.05)"><tspan class="cls-4">123</tspan><tspan class="cls-2" x="32.32" y="0">ADMISSIONS</tspan></text></svg>