<svg width="24" height="19" viewBox="0 0 24 19" fill="none" xmlns="http://www.w3.org/2000/svg">
<path d="M9.45052 18.087L0.713332 9.50033L9.45052 0.913689L9.45082 0.913391C9.58338 0.782894 9.74129 0.678913 9.91574 0.607811C10.0902 0.536707 10.2775 0.5 10.4669 0.5C10.6563 0.5 10.8436 0.536707 11.018 0.607811C11.1925 0.678913 11.3504 0.782894 11.483 0.913393L11.4843 0.91469C11.6173 1.04468 11.7224 1.19875 11.7939 1.36782C11.8655 1.53686 11.9022 1.71782 11.9022 1.90037C11.9022 2.08292 11.8655 2.26388 11.7939 2.43293C11.7224 2.60199 11.6173 2.75607 11.4843 2.88605L11.4833 2.88705L7.05021 7.24373L6.17858 8.10034H7.40068H22.0667C22.4496 8.10034 22.8151 8.24992 23.0833 8.51345C23.3511 8.77669 23.5 9.13186 23.5 9.50033C23.5 9.8688 23.3511 10.224 23.0833 10.4872C22.8151 10.7508 22.4496 10.9003 22.0667 10.9003H7.40068H6.17858L7.05021 11.7569L11.4833 16.1136C11.6159 16.244 11.7207 16.3983 11.792 16.5675C11.8633 16.7367 11.8999 16.9177 11.8999 17.1003C11.8999 17.2829 11.8633 17.4639 11.792 17.6331C11.7207 17.8023 11.6159 17.9566 11.4833 18.087C11.3506 18.2174 11.1926 18.3213 11.0181 18.3923C10.8436 18.4633 10.6563 18.5 10.4669 18.5C10.2775 18.5 10.0902 18.4633 9.91568 18.3923C9.74119 18.3213 9.5832 18.2174 9.45052 18.087Z" fill="#222222" stroke="#E5F3FF"/>
</svg>
