<svg width="26" height="21" viewBox="0 0 26 21" fill="none" xmlns="http://www.w3.org/2000/svg">
<path d="M17.9826 8.89964H19.1874L18.3366 8.04656L13.5341 3.23128C13.3861 3.0828 13.2685 2.90645 13.1883 2.71228C13.1081 2.5181 13.0668 2.30993 13.0668 2.09967C13.0668 1.88942 13.1081 1.68125 13.1883 1.48707C13.2685 1.2929 13.3861 1.11655 13.5341 0.968064C13.6822 0.819582 13.858 0.701871 14.0513 0.621587C14.2446 0.541304 14.4517 0.5 14.6609 0.5C14.87 0.5 15.0772 0.541304 15.2705 0.621587C15.4638 0.701871 15.6395 0.819582 15.7876 0.968064L25.2938 10.4996L15.7876 20.0312L15.7873 20.0315C15.6393 20.1801 15.4637 20.2979 15.2704 20.3783C15.0771 20.4587 14.87 20.5 14.6609 20.5C14.4517 20.5 14.2446 20.4587 14.0513 20.3783C13.8581 20.2979 13.6824 20.1801 13.5344 20.0315L13.5331 20.0302C13.3846 19.8821 13.2667 19.7061 13.1862 19.512C13.1057 19.318 13.0643 19.1098 13.0643 18.8996C13.0643 18.6894 13.1057 18.4812 13.1862 18.2872C13.2667 18.0931 13.3846 17.917 13.5331 17.769L13.5341 17.768L18.3366 12.9527L19.1874 12.0996H17.9826L2.09441 12.0996C1.67197 12.0996 1.26657 11.9314 0.967459 11.6315C0.668303 11.3315 0.499998 10.9244 0.499998 10.4996C0.499998 10.0749 0.668303 9.66775 0.967459 9.3678C1.26657 9.06789 1.67197 8.89964 2.09441 8.89964L17.9826 8.89964Z" fill="#222222" stroke="#E5F3FF"/>
</svg>
