<svg width="32" height="32" viewBox="0 0 32 32" fill="none" xmlns="http://www.w3.org/2000/svg">
<path d="M31.9856 7.27556C31.9723 6.58909 31.9172 5.90406 31.8208 5.22426C31.7058 4.61959 31.5105 4.03303 31.24 3.48017C30.6477 2.311 29.6983 1.36099 28.5294 0.768038C27.9801 0.498765 27.3974 0.303971 26.7965 0.188809C26.1115 0.0903766 25.4211 0.0342674 24.7292 0.0208011C24.4364 0.0096005 24.0572 0.00480027 23.8812 0.00480027L8.12361 0C7.9476 0 7.56838 0.00480022 7.27556 0.0160008C6.58908 0.029228 5.90405 0.0842659 5.22426 0.180809C4.61959 0.295758 4.03303 0.491102 3.48017 0.761638C2.31106 1.35399 1.36108 2.30341 0.768038 3.47217C0.498836 4.02151 0.304045 4.60426 0.188809 5.20506C0.0899297 5.89003 0.0332866 6.58044 0.0192011 7.27236C0.00960061 7.56518 0.00320031 7.9444 0.00320031 8.12041L0 23.878C0 24.054 0.00480022 24.4332 0.0160008 24.726C0.029228 25.4125 0.0842659 26.0976 0.180809 26.7773C0.295777 27.382 0.491119 27.9686 0.761638 28.5214C1.35399 29.6905 2.30341 30.6405 3.47217 31.2336C4.02152 31.5027 4.60427 31.6975 5.20506 31.8128C5.89005 31.9112 6.58046 31.9673 7.27236 31.9808C7.56518 31.992 7.9444 31.9968 8.12041 31.9968L23.878 32C24.054 32 24.4332 31.9952 24.726 31.984C25.4125 31.9707 26.0975 31.9157 26.7773 31.8192C27.382 31.7042 27.9685 31.5088 28.5214 31.2384C29.6911 30.6463 30.6417 29.6968 31.2352 28.5278C31.5044 27.9785 31.6992 27.3957 31.8144 26.7949C31.9133 26.11 31.97 25.4196 31.984 24.7276C31.9936 24.4348 32 24.0556 32 23.8796L32.0016 8.12361C32.0016 7.9476 31.9968 7.56838 31.9856 7.27556ZM16.348 27.1326H16.3432C14.4386 27.1322 12.5644 26.6547 10.8917 25.7437L4.84344 27.3294L6.46272 21.4203C5.20898 19.2447 4.70803 16.7162 5.03753 14.2269C5.36703 11.7376 6.50857 9.4266 8.28517 7.65211C10.0618 5.87763 12.3742 4.73883 14.8638 4.41229C17.3535 4.08576 19.8814 4.58972 22.0555 5.84604C24.2296 7.10237 25.9285 9.04087 26.8888 11.361C27.8491 13.6811 28.0171 16.2532 27.3668 18.6786C26.7165 21.1039 25.2842 23.2469 23.292 24.7754C21.2998 26.3039 18.859 27.1324 16.348 27.1326Z" fill="white"/>
<path d="M16.3531 6.24183C14.6588 6.24134 12.9953 6.69478 11.5355 7.555C10.0758 8.41522 8.87315 9.65081 8.0527 11.1333C7.23225 12.6157 6.82395 14.2909 6.87024 15.9846C6.91654 17.6783 7.41574 19.3287 8.31594 20.7642L8.54156 21.1226L7.58311 24.6204L11.1721 23.6795L11.5177 23.8843C12.9787 24.7496 14.6455 25.2061 16.3435 25.206H16.3483C18.8634 25.2064 21.2755 24.2077 23.0542 22.4296C24.8329 20.6516 25.8324 18.2397 25.8328 15.7247C25.8332 13.2097 24.8346 10.7975 23.0565 9.01884C21.2784 7.24015 18.8666 6.24066 16.3515 6.24023L16.3531 6.24183ZM21.9278 19.7945C21.7181 20.1409 21.4389 20.4401 21.1079 20.6733C20.777 20.9066 20.4013 21.0688 20.0045 21.1498C19.4055 21.2525 18.7908 21.2142 18.2092 21.0378C17.6577 20.8659 17.1156 20.6651 16.5852 20.4361C14.6166 19.4482 12.9387 17.9655 11.7161 16.1335C11.0492 15.2854 10.6443 14.2611 10.5513 13.1862C10.5436 12.7425 10.6284 12.3021 10.8003 11.893C10.9722 11.4839 11.2274 11.1151 11.5497 10.8101C11.645 10.7014 11.7616 10.6136 11.8924 10.5522C12.0232 10.4908 12.1653 10.4571 12.3097 10.4532C12.4986 10.4532 12.689 10.4532 12.8554 10.4628C13.0314 10.4708 13.265 10.3956 13.4954 10.9525C13.7354 11.5221 14.305 12.9254 14.3754 13.0678C14.4206 13.1424 14.4465 13.2272 14.4507 13.3143C14.4549 13.4015 14.4373 13.4884 14.3994 13.567C14.3277 13.7382 14.2318 13.8982 14.1146 14.0422C13.9706 14.2086 13.8154 14.4134 13.6874 14.5414C13.5434 14.6839 13.3962 14.8375 13.561 15.1223C13.9891 15.8552 14.5234 16.5206 15.1467 17.0968C15.8229 17.698 16.5989 18.1767 17.4396 18.5112C17.7244 18.6553 17.8908 18.6297 18.0572 18.4392C18.2236 18.2488 18.7693 17.6072 18.9597 17.3224C19.1501 17.0376 19.3389 17.0856 19.5997 17.18C19.8605 17.2744 21.2638 17.964 21.5486 18.108C21.8334 18.252 22.0238 18.3208 22.0942 18.4392C22.1723 18.8976 22.1144 19.3687 21.9278 19.7945Z" fill="white"/>
</svg>
