<svg width="32" height="32" viewBox="0 0 32 32" fill="none" xmlns="http://www.w3.org/2000/svg">
<path fill-rule="evenodd" clip-rule="evenodd" d="M23.0438 0C27.9904 0 32 4.0128 32 8.95616V23.0438C32 27.9904 27.9872 32 23.0438 32H8.95616C4.0096 32 0 27.9872 0 23.0438V8.95616C0 4.0096 4.0128 0 8.95616 0H23.0438ZM16 7.68C11.4048 7.68 7.68 11.4048 7.68 16C7.68 20.5952 11.4048 24.32 16 24.32C20.5952 24.32 24.32 20.5952 24.32 16C24.32 11.4048 20.5952 7.68 16 7.68ZM16 10.24C16.7564 10.24 17.5054 10.389 18.2043 10.6785C18.9031 10.9679 19.5381 11.3922 20.0729 11.9271C20.6078 12.4619 21.0321 13.0969 21.3215 13.7957C21.611 14.4946 21.76 15.2436 21.76 16C21.76 16.7564 21.611 17.5054 21.3215 18.2043C21.0321 18.9031 20.6078 19.5381 20.0729 20.0729C19.5381 20.6078 18.9031 21.0321 18.2043 21.3215C17.5054 21.611 16.7564 21.76 16 21.76C14.4724 21.76 13.0073 21.1531 11.9271 20.0729C10.8469 18.9927 10.24 17.5276 10.24 16C10.24 14.4724 10.8469 13.0073 11.9271 11.9271C13.0073 10.8469 14.4724 10.24 16 10.24ZM25.28 4.48C24.6859 4.48 24.1162 4.716 23.6961 5.13608C23.276 5.55616 23.04 6.12592 23.04 6.72C23.04 7.31408 23.276 7.88384 23.6961 8.30392C24.1162 8.724 24.6859 8.96 25.28 8.96C25.8741 8.96 26.4438 8.724 26.8639 8.30392C27.284 7.88384 27.52 7.31408 27.52 6.72C27.52 6.12592 27.284 5.55616 26.8639 5.13608C26.4438 4.716 25.8741 4.48 25.28 4.48Z" fill="white"/>
</svg>
